<svg width="32" height="32" viewBox="0 0 32 32" fill="none" xmlns="http://www.w3.org/2000/svg">
    <path d="M32 16C32 24.8366 24.8366 32 16 32C7.16344 32 0 24.8366 0 16C0 7.16344 7.16344 0 16 0C24.8366 0 32 7.16344 32 16Z" fill="#92949C"/>
    <path fill-rule="evenodd" clip-rule="evenodd" d="M17.7969 8.125H14.2031C13.6871 8.125 13.2139 8.35993 12.8725 8.75792C12.8529 8.78082 12.8349 8.80511 12.8188 8.8306L11.8067 10.4297L11.7984 10.4384C11.6867 10.5532 11.5525 10.6204 11.4411 10.6248L11.4297 10.625H9.125C8.08947 10.625 7.25 11.4645 7.25 12.5V20C7.25 21.0355 8.08947 21.875 9.125 21.875H22.875C23.9105 21.875 24.75 21.0355 24.75 20V12.5C24.75 11.4645 23.9105 10.625 22.875 10.625H22.7188V10.3125C22.7188 9.97143 22.4456 9.69417 22.106 9.68762L22.0938 9.6875H21.1562C20.8152 9.6875 20.5379 9.9607 20.5314 10.3002L20.5312 10.3125V10.625C20.4322 10.625 20.3213 10.5676 20.2016 10.4392L20.1944 10.4313L19.1812 8.8306C19.1683 8.8102 19.1543 8.79058 19.1391 8.77182L19.1275 8.75792C18.7861 8.35993 18.3129 8.125 17.7969 8.125ZM14.1899 9.37521L14.2031 9.375H17.7969C17.9204 9.375 18.0408 9.42883 18.1456 9.53562L18.153 9.54332L19.1649 11.1421C19.1777 11.1623 19.1917 11.1819 19.2068 11.2005L19.2183 11.2144C19.5698 11.6248 20.0159 11.875 20.5312 11.875H22.875C23.2202 11.875 23.5 12.1548 23.5 12.5V20C23.5 20.3452 23.2202 20.625 22.875 20.625H9.125C8.77982 20.625 8.5 20.3452 8.5 20V12.5C8.5 12.1548 8.77982 11.875 9.125 11.875H11.4297C11.9458 11.875 12.4364 11.6176 12.7817 11.2144C12.8012 11.1916 12.8191 11.1674 12.8351 11.1421L13.847 9.54332L13.8544 9.53562C13.9555 9.43264 14.071 9.37891 14.1899 9.37521ZM19.75 15.625C19.75 13.5539 18.0711 11.875 16 11.875C13.9289 11.875 12.25 13.5539 12.25 15.625C12.25 17.6961 13.9289 19.375 16 19.375C18.0711 19.375 19.75 17.6961 19.75 15.625ZM13.5 15.625C13.5 14.2443 14.6193 13.125 16 13.125C17.3807 13.125 18.5 14.2443 18.5 15.625C18.5 17.0057 17.3807 18.125 16 18.125C14.6193 18.125 13.5 17.0057 13.5 15.625Z" fill="white"/>
</svg>
