<svg width="84" height="84" viewBox="0 0 84 84" fill="none" xmlns="http://www.w3.org/2000/svg">
<path d="M15 9L17.5 6.5L20 9V19L17.5 21.5L15 19V9Z" fill="white"/>
<path d="M55 9L57.5 6.5L60 9V19L57.5 21.5L55 19V9Z" fill="white"/>
<path d="M73.5 26H48H1.5V65L3.5 67H49.5C52 70.5 58.7 77.5 65.5 77.5C74 77.5 83 70 83 60C83 52 76.6667 46.6667 73.5 45V26Z" fill="white"/>
<path fill-rule="evenodd" clip-rule="evenodd" d="M65.5 78C75.165 78 83 70.165 83 60.5C83 50.835 75.165 43 65.5 43C55.835 43 48 50.835 48 60.5C48 70.165 55.835 78 65.5 78ZM65.5 72C72.1274 72 77.5 66.6274 77.5 60C77.5 53.3726 72.1274 48 65.5 48C58.8726 48 53.5 53.3726 53.5 60C53.5 66.6274 58.8726 72 65.5 72Z" fill="#3880FF"/>
<path fill-rule="evenodd" clip-rule="evenodd" d="M2 13H14.5V19L17.5 21L20.5 19V13H54.5V19L57.5 21L60.5 19V13H73V26H2V13Z" fill="#0CD1E8"/>
<path d="M65.4591 47.0238C58.2418 47.0238 52.3704 52.8954 52.3704 60.1127C52.3704 67.3298 58.242 73.2014 65.4591 73.2014C67.2559 73.2014 68.9971 72.8438 70.6345 72.1383C71.2599 71.8689 71.5483 71.1434 71.2789 70.5182C71.0095 69.8928 70.2839 69.6045 69.6588 69.8737C68.3313 70.4457 66.9184 70.7355 65.4593 70.7355C59.6017 70.7355 54.8362 65.97 54.8362 60.1127C54.8362 54.255 59.6017 49.4895 65.4593 49.4895C71.3168 49.4895 76.0823 54.255 76.0823 60.1127C76.0823 62.7916 75.0822 65.3502 73.2662 67.317C72.8042 67.8172 72.8354 68.5972 73.3356 69.0592C73.836 69.521 74.6159 69.4898 75.0778 68.9896C77.3156 66.5659 78.548 63.4133 78.548 60.1125C78.548 52.8954 72.6764 47.0238 65.4591 47.0238Z" fill="black"/>
<path d="M64.5615 54.1318C64.5615 53.4508 65.1136 52.8988 65.7944 52.8988C66.4753 52.8988 67.0274 53.4506 67.0274 54.1316V60.719C67.0275 61.0432 66.8946 61.364 66.6648 61.5927L63.1876 65.07C62.7063 65.5517 61.9257 65.5515 61.4441 65.0702C60.9626 64.5888 60.9626 63.8082 61.4441 63.3267L64.5615 60.2091V54.1318Z" fill="black"/>
<path fill-rule="evenodd" clip-rule="evenodd" d="M74.8995 16.2645V44.1614C80.3432 47.3952 84 53.3346 84 60.1128C84 70.3362 75.6827 78.6537 65.4591 78.6537C58.1713 78.6537 51.8534 74.4268 48.8252 68.2963H22.2794C21.5983 68.2963 21.0464 67.7444 21.0464 67.0633C21.0464 66.3823 21.5985 65.8304 22.2794 65.8304H47.8216C47.2361 64.0287 46.9183 62.1073 46.9183 60.1128L46.9185 60.072C46.9187 60.0406 46.9193 60.0094 46.9198 59.9781C46.9203 59.9518 46.9208 59.9254 46.9211 59.8991H41.938C40.3518 59.8991 39.0613 58.6085 39.0613 57.0224V51.2074C39.0613 49.6212 40.3518 48.3307 41.938 48.3307H47.753C48.763 48.3307 49.6515 48.855 50.1649 49.6447C51.6908 47.4223 53.688 45.548 56.0111 44.1663C54.7721 43.8459 53.8529 42.7219 53.8529 41.3841V35.5691C53.8529 33.9829 55.1434 32.6924 56.7295 32.6924H62.5446C64.1307 32.6924 65.4212 33.9829 65.4212 35.5691V41.3841C65.4212 41.4478 65.4158 41.5101 65.4117 41.5728C65.4275 41.5726 65.4432 41.5721 65.4591 41.5721C67.925 41.5721 70.2794 42.0573 72.4336 42.935V27.4129H51.8626C51.1818 27.4129 50.6297 26.861 50.6297 26.1799C50.6297 25.4989 51.1818 24.947 51.8626 24.947H72.4333V16.2645C72.4333 15.1315 71.5116 14.2098 70.3785 14.2098H61.8056V17.6932C61.8056 20.1157 59.8347 22.0867 57.4122 22.0867C54.9897 22.0867 53.0188 20.1157 53.0188 17.6932V14.2098H21.8802V17.6932C21.8802 20.1157 19.9093 22.0867 17.4868 22.0867C15.0642 22.0867 13.0933 20.1157 13.0933 17.6932V14.2098H4.52041C3.3874 14.2098 2.4657 15.1315 2.4657 16.2645V24.9467H46.9312C47.6123 24.9467 48.1642 25.4986 48.1642 26.1796C48.1642 26.8606 47.6121 27.4125 46.9312 27.4125H2.46586V63.7754C2.46586 64.9085 3.38756 65.8302 4.52058 65.8302H17.348C18.0288 65.8302 18.5809 66.3821 18.5809 67.0632C18.5809 67.7442 18.0288 68.2961 17.348 68.2961H4.52058C2.02798 68.2961 0 66.2681 0 63.7755V16.2645C0 13.7719 2.02798 11.7439 4.52058 11.7439H13.0935V9.74006C13.0935 7.31751 15.0644 5.34647 17.4869 5.34647C19.9095 5.34647 21.8804 7.31751 21.8804 9.74006V11.7439H53.0191V9.74006C53.0191 7.31751 54.99 5.34647 57.4125 5.34647C59.8351 5.34647 61.806 7.31751 61.806 9.74006V11.7439H70.3789C72.8716 11.7439 74.8995 13.7719 74.8995 16.2645ZM17.4869 19.6209C18.5499 19.6209 19.4147 18.756 19.4147 17.693V9.74006C19.4147 8.6771 18.5499 7.81233 17.4869 7.81233C16.424 7.81233 15.5592 8.6771 15.5592 9.74006V17.693C15.5592 18.7561 16.424 19.6209 17.4869 19.6209ZM57.4125 19.6209C58.4755 19.6209 59.3403 18.756 59.3403 17.693V9.74006C59.3403 8.6771 58.4755 7.81233 57.4125 7.81233C56.3496 7.81233 55.4848 8.6771 55.4848 9.74006V17.693C55.4848 18.7561 56.3496 19.6209 57.4125 19.6209ZM56.7295 35.1576C56.503 35.1576 56.3186 35.3419 56.3186 35.5686V41.3836C56.3186 41.6104 56.503 41.7946 56.7295 41.7946H62.5446C62.7711 41.7946 62.9555 41.6104 62.9555 41.3836V35.5686C62.9555 35.3419 62.7711 35.1576 62.5446 35.1576H56.7295ZM41.527 57.0222C41.527 57.249 41.7114 57.4332 41.938 57.4332L47.1127 57.4334C47.3146 56.0442 47.671 54.7048 48.164 53.4327V51.2072C48.164 50.9805 47.9796 50.7962 47.753 50.7962H41.938C41.7114 50.7962 41.527 50.9805 41.527 51.2072V57.0222ZM49.3841 60.1128C49.3841 68.9766 56.5953 76.1878 65.4591 76.1878C74.3229 76.1878 81.5341 68.9766 81.5341 60.1128C81.5341 51.249 74.3229 44.0378 65.4591 44.0378C56.5953 44.0378 49.3841 51.249 49.3841 60.1128Z" fill="black"/>
<path fill-rule="evenodd" clip-rule="evenodd" d="M18.17 44.2605H12.3549C10.7686 44.2605 9.47811 42.9699 9.47827 41.3838V35.5687C9.47827 33.9826 10.7688 32.6921 12.3549 32.6921H18.17C19.7561 32.6921 21.0467 33.9826 21.0467 35.5687V41.3838C21.0467 42.9699 19.7561 44.2605 18.17 44.2605ZM12.3549 35.1576C12.1284 35.1576 11.944 35.3419 11.944 35.5686V41.3836C11.944 41.6104 12.1284 41.7946 12.3549 41.7946H18.17C18.3966 41.7946 18.581 41.6104 18.581 41.3836V35.5686C18.581 35.3419 18.3966 35.1576 18.17 35.1576H12.3549Z" fill="black"/>
<path fill-rule="evenodd" clip-rule="evenodd" d="M32.9615 44.2605H27.1465C25.5603 44.2605 24.2698 42.9699 24.2698 41.3838V35.5687C24.2698 33.9826 25.5603 32.6921 27.1465 32.6921H32.9615C34.5476 32.6921 35.8382 33.9826 35.8382 35.5687V41.3838C35.8382 42.9699 34.5476 44.2605 32.9615 44.2605ZM27.1465 35.1576C26.9199 35.1576 26.7355 35.3419 26.7355 35.5686V41.3836C26.7355 41.6104 26.9199 41.7946 27.1465 41.7946H32.9615C33.188 41.7946 33.3725 41.6104 33.3725 41.3836V35.5686C33.3725 35.3419 33.188 35.1576 32.9615 35.1576H27.1465Z" fill="black"/>
<path fill-rule="evenodd" clip-rule="evenodd" d="M41.9382 44.2605H47.7532C49.3394 44.2605 50.6299 42.9699 50.6299 41.3838V35.5687C50.6299 33.9826 49.3394 32.6921 47.7532 32.6921H41.9382C40.352 32.6921 39.0615 33.9826 39.0615 35.5687V41.3838C39.0615 42.9699 40.352 44.2605 41.9382 44.2605ZM41.5272 35.5686C41.5272 35.3419 41.7116 35.1576 41.9382 35.1576H47.7532C47.9798 35.1576 48.1642 35.3419 48.1642 35.5686V41.3836C48.1642 41.6104 47.9798 41.7946 47.7532 41.7946H41.9382C41.7116 41.7946 41.5272 41.6104 41.5272 41.3836V35.5686Z" fill="black"/>
<path fill-rule="evenodd" clip-rule="evenodd" d="M12.3547 59.8989C10.7685 59.8989 9.47803 58.6084 9.47803 57.0222L9.47819 51.2072C9.47819 49.621 10.7687 48.3305 12.3549 48.3305H18.1697C19.7559 48.3305 21.0464 49.621 21.0464 51.2072V57.0222C21.0464 58.6084 19.7559 59.8989 18.1697 59.8989H12.3547ZM12.3549 50.796C12.1283 50.796 11.9439 50.9803 11.9439 51.207V57.022C11.9439 57.2488 12.1283 57.433 12.3549 57.433H18.1699C18.3965 57.433 18.5809 57.2488 18.5809 57.022V51.207C18.5809 50.9803 18.3965 50.796 18.1699 50.796H12.3549Z" fill="black"/>
<path fill-rule="evenodd" clip-rule="evenodd" d="M24.2698 57.0222C24.2698 58.6084 25.5603 59.8989 27.1465 59.8989H32.9615C34.5476 59.8989 35.8382 58.6084 35.8382 57.0222V51.2072C35.8382 49.621 34.5476 48.3305 32.9615 48.3305H27.1465C25.5603 48.3305 24.2698 49.621 24.2698 51.2072V57.0222ZM26.7355 51.207C26.7355 50.9803 26.9199 50.796 27.1465 50.796H32.9615C33.188 50.796 33.3725 50.9803 33.3725 51.207V57.022C33.3725 57.2488 33.188 57.433 32.9615 57.433H27.1465C26.9199 57.433 26.7355 57.2488 26.7355 57.022V51.207Z" fill="black"/>
</svg>
