<svg width="84" height="84" viewBox="0 0 84 84" fill="none" xmlns="http://www.w3.org/2000/svg">
<g clip-path="url(#clip0_545:8301)">
<path d="M17.5 10V18.5L1.5 29.5V79L5 82.5H79.5L83 79V30L66.5 18V10.5L63 7H52.5L42 1L32 7H20.5L17.5 10Z" fill="white"/>
<path d="M29.5 25.5C29.5 14.7 37.8333 12 42 12C49.5 12 54 17.5 54.5 22C55 26.5 52.5 31.5 50.5 33C50.5 30.6 47.1667 27.3333 45.5 26C46.3333 22.8333 46.8 16.5 42 16.5C36 16.5 37.5 25 39 26.5C35.8 26.5 34 30.8333 33.5 33C32.8333 32.6667 31.1 30.7 29.5 25.5Z" fill="#0CD1E8"/>
<path d="M67 18.5L82.5 30L67 39V18.5Z" fill="#3880FF"/>
<path d="M33.5 6.5L41.5 0.5L50 6.5H33.5Z" fill="#3880FF"/>
<path d="M17.5 39V18.5L2 30L17.5 39Z" fill="#3880FF"/>
<path d="M52.1216 40.3955H31.8787C31.1991 40.3955 30.6483 40.9464 30.6483 41.6259C30.6483 42.3054 31.1991 42.8563 31.8787 42.8563H52.1216C52.8013 42.8563 53.352 42.3054 53.352 41.6259C53.352 40.9464 52.8011 40.3955 52.1216 40.3955ZM45.9695 45.3171H38.0308C37.3511 45.3171 36.8004 45.868 36.8004 46.5475C36.8004 47.2271 37.3511 47.778 38.0308 47.778H45.9695C46.6492 47.778 47.1999 47.2271 47.1999 46.5475C47.1999 45.868 46.649 45.3171 45.9695 45.3171ZM42.0001 10.5609C34.4531 10.5609 28.3132 16.7008 28.3132 24.2478C28.3132 31.7406 34.5138 37.9347 42.0001 37.9347C49.4655 37.9347 55.687 31.7808 55.687 24.2478C55.687 16.7008 49.5471 10.5609 42.0001 10.5609ZM42.0001 35.4739C39.2925 35.4739 36.8056 34.5102 34.8645 32.9081C35.146 31.3577 35.9279 29.9379 37.1078 28.8595C37.5821 28.4248 38.1079 28.0589 38.6763 27.7659C39.6196 28.4243 40.7652 28.8119 42.0002 28.8119C43.2341 28.8119 44.3789 28.4249 45.3217 27.7676C47.3302 28.7988 48.734 30.6887 49.1343 32.9092C47.1934 34.5107 44.7071 35.4739 42.0001 35.4739ZM38.6386 22.9897V21.4403C38.6386 19.5868 40.1464 18.0788 42.0001 18.0788C43.8537 18.0788 45.3615 19.5868 45.3615 21.4403V22.9897C45.3615 24.8431 43.8537 26.3511 42.0001 26.3511C40.1464 26.3511 38.6386 24.8431 38.6386 22.9897ZM51.1025 30.8065C50.3444 28.768 48.9194 27.0403 47.037 25.9044C47.5354 25.0466 47.8225 24.0512 47.8225 22.9897V21.4403C47.8225 18.2299 45.2106 15.618 42.0002 15.618C38.7899 15.618 36.1779 18.2298 36.1779 21.4403V22.9897C36.1779 24.0524 36.4655 25.0485 36.9649 25.907C36.4244 26.235 35.9159 26.6138 35.4463 27.0441C34.2992 28.0927 33.4338 29.385 32.9008 30.8105C31.5647 28.9632 30.7742 26.6966 30.7742 24.2476C30.7742 18.0575 35.8101 13.0215 42.0002 13.0215C48.1903 13.0215 53.2263 18.0575 53.2263 24.2476C53.2262 26.695 52.4367 28.9599 51.1025 30.8065ZM83.5049 28.7982L67.7038 17.283V11.7915C67.7038 8.41669 64.9582 5.67124 61.5834 5.67124H51.7712L45.6047 1.17779C43.4485 -0.392541 40.5515 -0.392705 38.3955 1.17795L32.2292 5.67124H22.4169C19.0423 5.67124 16.2965 8.41669 16.2965 11.7915V17.283L0.495437 28.7982C0.249683 28.9853 0.000320631 29.3189 0.00196118 29.7676V77.8798C0.00196118 81.2546 2.74758 84 6.12234 84H56.6613C57.3233 84 57.86 83.4634 57.86 82.8015C57.86 82.1395 57.3234 81.6029 56.6613 81.6029H6.12234C4.06936 81.6029 2.39945 79.9326 2.39945 77.8798V31.8903L38.8392 53.869C40.7892 55.0449 43.2114 55.0449 45.1611 53.869L81.6009 31.8903V77.8798C81.6009 79.9326 79.9308 81.6029 77.878 81.6029H62.4034C61.7414 81.6029 61.2046 82.1395 61.2046 82.8015C61.2046 83.4634 61.7412 84 62.4034 84H77.878C81.2526 84 83.9984 81.2546 83.9984 77.8798V29.7676C83.9952 29.4496 83.8699 29.0664 83.5049 28.7982ZM39.807 3.1156C41.1186 2.16015 42.8814 2.16031 44.193 3.11544L47.7005 5.67124H36.2997L39.807 3.1156ZM65.3065 38.9187L43.923 51.8162C42.7368 52.5316 41.2635 52.5316 40.0774 51.8162L18.6938 38.9187V31.958C18.6938 31.2961 18.1572 30.7594 17.4953 30.7594C16.8333 30.7594 16.2967 31.2961 16.2967 31.958V37.4729L3.36491 29.6731L16.2965 20.2491V26.2161C16.2965 26.8781 16.8331 27.4147 17.4953 27.4147C18.1574 27.4147 18.6938 26.8781 18.6938 26.2161V11.7915C18.6938 9.73864 20.3641 8.06841 22.4169 8.06841H61.5833C63.6362 8.06841 65.3063 9.73864 65.3063 11.7915V38.9187H65.3065ZM67.7036 37.4729V20.2493L80.6352 29.6732L67.7036 37.4729Z" fill="black"/>
</g>
<defs>
<clipPath id="clip0_545:8301">
<rect width="84" height="84" fill="white"/>
</clipPath>
</defs>
</svg>
