<svg width="220" height="222" viewBox="0 0 220 222" fill="none" xmlns="http://www.w3.org/2000/svg">
<g clip-path="url(#clip0)">
<path d="M139.369 164.209L94.2433 164.49C93.9513 164.49 93.8557 164.756 93.8557 165.021V203.221C93.8557 206.879 67.8236 216.379 67.5768 215.896L67.5449 219.939C67.5608 220.327 67.7282 220.693 68.0112 220.958C68.2941 221.224 68.67 221.368 69.0579 221.359H107.863C109.609 221.342 111.335 220.981 112.941 220.297L133.739 211.58C137.481 210.011 139.844 206.643 139.844 202.967V164.743C139.851 164.609 139.805 164.478 139.716 164.378C139.627 164.278 139.502 164.217 139.369 164.209V164.209Z" fill="#222428"/>
<path d="M88.7807 162.38V200.588C88.7807 204.355 86.3465 207.787 82.5188 209.412L68.4901 215.371C67.5743 215.761 67.8849 216.982 68.9016 216.982H107.449C109.17 216.985 110.873 216.646 112.461 215.984L128.005 209.473C131.862 207.856 134.32 204.411 134.32 200.625V162.38C134.315 162.3 134.279 162.226 134.22 162.172C134.16 162.119 134.082 162.092 134.002 162.096H89.0965C89.0173 162.093 88.94 162.121 88.8811 162.174C88.8221 162.227 88.7861 162.301 88.7807 162.38V162.38Z" fill="white"/>
<path d="M107.449 217.247H68.9015C68.6261 217.262 68.3544 217.178 68.1347 217.012C67.915 216.845 67.7616 216.606 67.7017 216.337C67.6511 216.086 67.6925 215.826 67.8183 215.604C67.9441 215.381 68.1458 215.212 68.3865 215.126L82.4152 209.167C86.1314 207.593 88.5204 204.224 88.5204 200.588V162.38C88.526 162.229 88.5907 162.087 88.7006 161.984C88.8105 161.881 88.9566 161.826 89.1071 161.83H134.007C134.157 161.826 134.303 161.881 134.412 161.984C134.522 162.087 134.586 162.23 134.591 162.38V200.625C134.591 204.5 132.048 208.057 128.114 209.716L112.57 216.23C110.946 216.903 109.206 217.249 107.449 217.247V217.247ZM89.046 162.382V200.588C89.046 204.439 86.5243 207.996 82.6223 209.655L68.5935 215.604C68.4673 215.644 68.3599 215.728 68.2915 215.842C68.2231 215.955 68.1983 216.09 68.2219 216.22C68.2596 216.368 68.3486 216.498 68.4729 216.587C68.5973 216.676 68.7491 216.718 68.9015 216.706H107.449C109.134 216.706 110.803 216.374 112.36 215.729L127.904 209.233C131.642 207.667 134.055 204.291 134.055 200.63V162.38C134.048 162.373 134.039 162.368 134.03 162.365C134.021 162.361 134.011 162.36 134.002 162.361H89.0964C89.0776 162.362 89.0598 162.37 89.046 162.382V162.382Z" fill="#222428"/>
<path d="M6.32617 183.989L201.061 184.162C202.765 184.162 204.199 183.012 204.414 181.329L219.961 60.3401C220.338 57.407 218.188 54.6357 215.22 54.6357L207.018 54.6623L113.828 61.5426L22.9722 55.3047L6.32617 183.989Z" fill="#222428"/>
<path d="M4.70948 183.815H195.54C196.362 183.814 197.156 183.514 197.774 182.971C198.391 182.428 198.79 181.679 198.895 180.863L214.556 61.0096C214.658 60.2269 214.591 59.4315 214.361 58.6766C214.131 57.9216 213.742 57.2244 213.221 56.6316C212.7 56.0387 212.059 55.5638 211.34 55.2385C210.62 54.9132 209.84 54.745 209.051 54.7451L20.437 55.0504C19.6142 55.0508 18.8197 55.351 18.2022 55.8947C17.5847 56.4385 17.1864 57.1886 17.0818 58.0048L1.35426 179.992C1.29241 180.469 1.33298 180.954 1.47324 181.415C1.61351 181.875 1.85027 182.3 2.16773 182.662C2.4852 183.024 2.8761 183.314 3.31437 183.512C3.75265 183.711 4.22824 183.814 4.70948 183.815V183.815Z" fill="white"/>
<path d="M9.55858 174.991H192.102C193.729 174.991 195.101 173.855 195.311 172.337L210.054 65.0973C210.463 62.119 207.991 59.4805 204.79 59.4805H24.5933C22.9662 59.4805 21.5912 60.6166 21.3841 62.1349L6.34937 171.567C6.09985 173.383 7.60491 174.991 9.55858 174.991Z" fill="white"/>
<path d="M192.102 175.256H9.55927C9.04857 175.26 8.54305 175.154 8.07655 174.946C7.61005 174.738 7.19336 174.433 6.85441 174.051C6.55153 173.711 6.32606 173.309 6.19362 172.873C6.06117 172.437 6.0249 171.978 6.08727 171.527L21.1432 62.1107C21.3689 60.4676 22.8607 59.2306 24.6152 59.2306H204.804C205.617 59.2247 206.422 59.3929 207.165 59.724C207.907 60.055 208.57 60.5411 209.109 61.1498C209.59 61.6884 209.948 62.3252 210.159 63.0159C210.369 63.7066 210.427 64.4348 210.328 65.15L195.585 172.389C195.349 174.022 193.857 175.256 192.102 175.256ZM24.594 59.7615C23.1022 59.7615 21.8361 60.802 21.6476 62.1824L6.60222 171.604C6.55065 171.979 6.58141 172.362 6.69233 172.724C6.80325 173.087 6.9917 173.421 7.2446 173.703C7.53318 174.029 7.88814 174.289 8.28558 174.465C8.68302 174.642 9.11369 174.732 9.54864 174.728H192.092C193.581 174.728 194.847 173.687 195.038 172.307L209.781 65.0677C209.869 64.4275 209.817 63.7758 209.628 63.1576C209.44 62.5394 209.12 61.9694 208.69 61.4869C208.2 60.9358 207.598 60.4958 206.924 60.1964C206.25 59.897 205.52 59.7451 204.783 59.7509L24.594 59.7615Z" fill="#222428"/>
<path d="M195.539 184.08H4.70891C4.19006 184.079 3.67722 183.969 3.20458 183.754C2.73194 183.54 2.31037 183.228 1.96799 182.838C1.62561 182.448 1.3703 181.99 1.21906 181.494C1.06782 180.997 1.02412 180.474 1.09091 179.96L4.31872 154.934C4.32325 154.899 4.3346 154.865 4.35212 154.835C4.36965 154.804 4.393 154.778 4.42085 154.756C4.4487 154.735 4.48052 154.719 4.51446 154.71C4.5484 154.701 4.58381 154.698 4.61867 154.703C4.65353 154.707 4.68716 154.719 4.71763 154.736C4.7481 154.754 4.77483 154.777 4.79627 154.805C4.81771 154.833 4.83345 154.865 4.84261 154.899C4.85176 154.933 4.85414 154.968 4.84961 155.003L1.61648 180.034C1.56039 180.474 1.59845 180.92 1.72811 181.344C1.85777 181.768 2.07608 182.159 2.36855 182.492C2.66102 182.825 3.02096 183.092 3.42446 183.275C3.82797 183.458 4.2658 183.553 4.70891 183.554H195.539C196.296 183.551 197.027 183.273 197.594 182.772C198.162 182.271 198.529 181.581 198.626 180.831L214.038 61.2852C214.134 60.5411 214.071 59.785 213.853 59.0671C213.635 58.3493 213.266 57.6861 212.772 57.1217C212.278 56.5572 211.669 56.1045 210.986 55.7935C210.303 55.4825 209.562 55.3204 208.811 55.318H185.187C185.117 55.318 185.049 55.29 184.999 55.2402C184.949 55.1905 184.922 55.123 184.922 55.0526C184.922 54.9822 184.949 54.9146 184.999 54.8649C185.049 54.8151 185.117 54.7871 185.187 54.7871H208.811C209.638 54.7878 210.454 54.9646 211.207 55.3057C211.96 55.6468 212.631 56.1443 213.176 56.7652C213.722 57.3861 214.128 58.116 214.369 58.9064C214.61 59.6967 214.68 60.5294 214.574 61.3489L199.163 180.894C199.048 181.774 198.617 182.583 197.95 183.169C197.284 183.755 196.427 184.079 195.539 184.08V184.08Z" fill="#222428"/>
<path d="M14.2634 80.1346H14.2422C14.1726 80.1254 14.1094 80.0889 14.0666 80.0332C14.0238 79.9774 14.0049 79.907 14.0139 79.8373L16.8329 57.9754C16.9475 57.0961 17.3775 56.2884 18.043 55.7024C18.7085 55.1165 19.5643 54.7923 20.4509 54.79H42.9102C42.9806 54.79 43.0481 54.818 43.0979 54.8678C43.1477 54.9176 43.1756 54.9851 43.1756 55.0555C43.1756 55.1259 43.1477 55.1934 43.0979 55.2432C43.0481 55.293 42.9806 55.3209 42.9102 55.3209H20.4297C19.6721 55.3229 18.941 55.5998 18.3722 56.1002C17.8034 56.6006 17.4357 57.2906 17.3373 58.0417L14.5183 79.9064C14.5095 79.9683 14.4792 80.0252 14.4325 80.067C14.3859 80.1088 14.326 80.1327 14.2634 80.1346Z" fill="#222428"/>
<path d="M89.6969 55.318H72.1776C72.1072 55.318 72.0396 55.29 71.9898 55.2402C71.9401 55.1905 71.9121 55.123 71.9121 55.0526C71.9121 54.9822 71.9401 54.9146 71.9898 54.8649C72.0396 54.8151 72.1072 54.7871 72.1776 54.7871H89.6969C89.7673 54.7871 89.8348 54.8151 89.8846 54.8649C89.9344 54.9146 89.9623 54.9822 89.9623 55.0526C89.9623 55.123 89.9344 55.1905 89.8846 55.2402C89.8348 55.29 89.7673 55.318 89.6969 55.318Z" fill="#222428"/>
<path d="M67.7971 56.6033C67.8453 55.7082 67.5413 54.8298 66.9503 54.1559C65.4107 52.396 61.8724 49.4735 55.9795 50.53C47.7269 52.0085 43.1586 58.4588 41.327 64.6808C35.4209 84.7244 13.3625 76.8063 4.29226 88.8362C-3.14018 98.6921 1.79443 123.238 18.9607 121.595C36.127 119.952 58.8357 89.6378 58.8357 89.6378L67.0645 69.6101L67.7971 56.6033Z" fill="#222428"/>
<path d="M19.6083 112.745L17.668 109.485C17.668 109.485 32.7717 91.7349 46.2085 88.8389L62.7775 92.6586C62.7775 92.6586 70.3214 94.7556 73.8386 99.4646C77.3557 104.174 82.0381 114.791 82.0381 114.791L78.3883 116.426L82.5744 153.013C82.5744 153.013 73.4749 159.893 65.1055 160.798C56.736 161.703 40.3555 162.611 32.5302 167.862C32.5302 167.862 23.2396 160.429 22.7087 156.997C22.7034 156.997 31.256 126.63 19.6083 112.745Z" fill="white"/>
<path d="M32.5304 168.127C32.4696 168.127 32.4106 168.106 32.3632 168.068C31.9809 167.763 22.9957 160.54 22.4409 157.036C22.4317 157 22.4317 156.962 22.4409 156.925C23.88 151.394 24.8216 145.746 25.2546 140.048C25.8704 131.591 25.3581 120.018 19.3989 112.914L19.375 112.88L17.4346 109.62C17.4063 109.573 17.3937 109.517 17.3984 109.462C17.4032 109.407 17.4251 109.354 17.4611 109.312C17.6124 109.134 32.7772 91.4612 46.1477 88.5785C46.1853 88.5702 46.2242 88.5702 46.2618 88.5785L62.8335 92.4009C63.1547 92.4885 70.5154 94.5775 74.0485 99.3024C77.5444 103.98 82.2295 114.576 82.2773 114.682C82.2914 114.714 82.2991 114.749 82.2999 114.783C82.3008 114.818 82.2948 114.853 82.2822 114.885C82.2696 114.918 82.2508 114.948 82.2267 114.973C82.2026 114.998 82.1738 115.019 82.1419 115.033L78.6752 116.593L82.84 152.983C82.8452 153.029 82.8384 153.075 82.8202 153.118C82.802 153.16 82.7732 153.197 82.7365 153.225C82.6436 153.294 73.4804 160.163 65.1322 161.066C64.0465 161.183 62.8123 161.302 61.5036 161.427C52.7148 162.274 39.4319 163.55 32.6764 168.084C32.6333 168.113 32.5823 168.128 32.5304 168.127V168.127ZM22.9744 157.01C23.5451 160.1 31.3571 166.566 32.5463 167.532C39.4479 163.02 52.6802 161.74 61.4532 160.896C62.7591 160.771 63.9908 160.652 65.0765 160.535C72.7744 159.704 81.1889 153.697 82.2932 152.89L78.1257 116.458C78.1207 116.403 78.1329 116.348 78.1604 116.301C78.188 116.253 78.2297 116.215 78.2797 116.193L81.6906 114.666C80.9686 113.06 76.7932 103.868 73.6264 99.6289C70.2022 95.0473 62.783 92.9424 62.7087 92.9211L46.2061 89.1173C33.6638 91.862 19.4652 107.834 17.9947 109.522L19.8263 112.599C25.8863 119.84 26.4146 131.551 25.7881 140.104C25.3517 145.811 24.4101 151.469 22.9744 157.01V157.01Z" fill="#222428"/>
<path d="M26.6851 160.16C26.6851 160.16 20.9914 163.576 17.4424 174.991H66.1248L65.1055 160.795L26.6851 160.16Z" fill="#222428"/>
<path d="M67.5955 128.581H67.5716C67.5016 128.575 67.4368 128.541 67.3916 128.488C67.3463 128.434 67.3241 128.364 67.33 128.294L68.3016 116.702C68.3077 116.632 68.3412 116.568 68.395 116.522C68.4487 116.477 68.5182 116.455 68.5882 116.461C68.6583 116.467 68.723 116.501 68.7683 116.554C68.8136 116.608 68.8357 116.678 68.8298 116.748L67.8609 128.337C67.8556 128.404 67.8253 128.466 67.7761 128.511C67.7268 128.556 67.6624 128.581 67.5955 128.581V128.581Z" fill="#222428"/>
<path d="M67.3302 142.254C65.2411 142.785 57.0044 140.861 56.4815 140.343C56.4815 140.343 61.1798 139.335 62.2894 138.557C63.3989 137.779 63.7254 136.999 63.529 136.285C63.3326 135.571 55.3002 136.662 53.3997 137.312C51.4991 137.962 49.3038 139.563 47.6077 140.083C46.5565 140.302 45.4926 140.453 44.4223 140.537C44.4595 140.237 24.0017 140.994 18.4885 139.324C18.4885 139.324 27.8029 129.795 33.3931 124.531C33.909 124.046 34.2524 123.406 34.3713 122.707C34.4901 122.009 34.3778 121.292 34.0514 120.663C29.9132 112.729 23.37 111.439 20.2484 111.304C14.5387 119.134 8.90063 128.311 6.17982 132.361C0.921379 140.224 -2.04895 149.767 2.42379 151.245C13.2778 154.818 46.1796 148.957 47.7802 149.122C51.8919 149.512 56.8504 151.266 59.4597 150.746C62.0691 150.226 71.9993 147.295 73.2124 144.375C74.1919 142.111 69.4272 141.734 67.3302 142.254Z" fill="white"/>
<path d="M13.0204 152.656C8.71221 152.656 4.92964 152.338 2.37341 151.496C1.88244 151.336 1.43769 151.059 1.07746 150.69C0.717241 150.32 0.452341 149.868 0.305595 149.373C-1.04817 145.441 2.3044 137.717 5.99142 132.201C6.75324 131.065 7.75131 129.512 8.9113 127.718C11.8816 123.096 15.9535 116.771 20.06 111.135C20.0857 111.1 20.1197 111.072 20.1591 111.053C20.1985 111.034 20.2419 111.025 20.2856 111.027C23.7363 111.178 30.1787 112.619 34.309 120.529C34.6598 121.209 34.7799 121.985 34.651 122.739C34.5222 123.493 34.1515 124.185 33.5949 124.71C28.6524 129.369 20.6917 137.452 19.0141 139.174C23.2134 140.217 34.0621 140.194 39.9842 140.18C43.3872 140.18 44.2313 140.18 44.4967 140.252C45.5206 140.171 46.5384 140.025 47.544 139.817C48.5221 139.463 49.465 139.019 50.3604 138.489C51.3083 137.931 52.3009 137.453 53.328 137.059C55.072 136.459 62.4885 135.376 63.5715 135.949C63.6261 135.975 63.6746 136.012 63.7139 136.058C63.7532 136.103 63.7825 136.157 63.7998 136.215C63.9697 136.833 63.8741 137.781 62.4567 138.776C61.5887 139.387 58.7404 140.103 57.3309 140.427C59.4014 141.104 65.6102 142.415 67.2798 141.999C68.9919 141.571 72.2675 141.733 73.2974 142.928C73.4794 143.138 73.5952 143.397 73.6301 143.673C73.6651 143.949 73.6176 144.229 73.4938 144.478C72.2117 147.538 62.1408 150.479 59.55 150.994C57.9282 151.318 55.4834 150.803 52.8954 150.259C51.212 149.872 49.5089 149.577 47.7935 149.375C47.483 149.351 45.5452 149.612 43.0899 149.946C36.3317 150.864 23.2081 152.656 13.0204 152.656ZM20.4024 111.576C16.3304 117.169 12.301 123.433 9.35192 128.015C8.19458 129.812 7.19651 131.368 6.43203 132.506C2.00973 139.119 -0.304925 145.988 0.804631 149.208C0.927549 149.623 1.1495 150.003 1.45142 150.314C1.75335 150.624 2.12624 150.857 2.53799 150.992C11.0322 153.784 33.4383 150.726 43.0102 149.418C46.0177 149.006 47.4777 148.81 47.8334 148.844C49.5693 149.048 51.2928 149.345 52.9962 149.736C55.5312 150.267 57.9255 150.771 59.4386 150.472C62.3213 149.898 71.8773 146.941 72.9974 144.271C73.0818 144.112 73.1163 143.932 73.0964 143.753C73.0765 143.575 73.0032 143.406 72.886 143.27C72.0286 142.272 68.968 142.121 67.3992 142.511C65.2093 143.055 56.8929 141.12 56.301 140.531C56.2669 140.497 56.2426 140.455 56.2306 140.408C56.2187 140.362 56.2195 140.313 56.2332 140.267C56.2468 140.221 56.2726 140.179 56.3079 140.147C56.3433 140.114 56.3867 140.092 56.4337 140.082C56.4788 140.082 61.0896 139.079 62.1434 138.338C63.0539 137.698 63.4388 137.048 63.2928 136.406C62.4965 136.002 55.3454 136.937 53.49 137.56C52.4934 137.947 51.5295 138.413 50.6072 138.954C49.6798 139.505 48.7021 139.968 47.6874 140.334C46.6229 140.56 45.5446 140.716 44.4595 140.799C44.4044 140.805 44.3487 140.794 44.3003 140.767C43.9658 140.711 42.1104 140.716 39.9735 140.722C33.3773 140.738 22.3348 140.762 18.4222 139.578C18.3784 139.565 18.3388 139.54 18.3072 139.507C18.2755 139.474 18.2529 139.434 18.2416 139.389C18.2276 139.343 18.2263 139.294 18.238 139.247C18.2497 139.201 18.2739 139.158 18.308 139.124C18.4036 139.028 27.6915 129.531 33.2207 124.323C33.6931 123.877 34.0077 123.29 34.1169 122.649C34.2261 122.009 34.1239 121.351 33.8259 120.774C29.884 113.214 23.7974 111.754 20.4024 111.576Z" fill="#222428"/>
<path d="M79.6117 113.827C79.6117 113.827 83.1819 120.652 87.0839 126.431C87.8067 127.495 88.9087 128.242 90.1645 128.52C91.4202 128.799 92.7349 128.587 93.8395 127.928C96.5682 126.298 99.8677 124.212 101.683 122.584C105.134 119.505 111.879 112.328 113.695 109.726C116.981 105.012 114.648 104.948 116.11 100.035C116.811 97.6725 117.384 91.2753 118.438 90.9886C120.164 90.5241 122.34 93.0697 121.889 98.0706C121.52 102.174 123.556 103.334 124.095 105.362C124.992 108.744 124.955 110.475 124.955 110.475C124.955 110.475 103.656 136.661 93.6484 144.606C92.137 145.795 90.3287 146.547 88.4199 146.781C86.5111 147.015 84.5747 146.722 82.8209 145.933L80.1426 144.738L76.6201 113.469L79.6117 113.827Z" fill="white"/>
<path d="M87.1693 147.12C85.635 147.118 84.1183 146.794 82.7178 146.167L80.0395 144.973C79.9976 144.953 79.9614 144.924 79.9344 144.887C79.9074 144.849 79.8906 144.806 79.8855 144.76L76.3551 113.499C76.3507 113.459 76.3554 113.419 76.3687 113.381C76.382 113.343 76.4037 113.309 76.4321 113.281C76.4608 113.253 76.4955 113.231 76.5337 113.219C76.5719 113.206 76.6125 113.202 76.6524 113.207L79.6333 113.563C79.6763 113.568 79.7174 113.583 79.753 113.608C79.7886 113.632 79.8177 113.665 79.8377 113.703C79.8723 113.772 83.4451 120.581 87.2941 126.283C87.9789 127.29 89.023 127.998 90.2126 128.262C91.4022 128.525 92.6475 128.324 93.6939 127.7C96.2369 126.182 99.6558 124.026 101.495 122.391C105.015 119.259 111.726 112.076 113.467 109.581C115.367 106.852 115.338 105.769 115.298 104.272C115.221 102.815 115.406 101.355 115.845 99.9638C116.087 99.1516 116.312 97.8403 116.554 96.4653C117.149 93.0437 117.568 90.952 118.359 90.737C118.703 90.658 119.061 90.6652 119.401 90.7578C119.741 90.8504 120.054 91.0256 120.31 91.2679C121.735 92.4651 122.434 95.0186 122.147 98.0978C121.908 100.779 122.726 102.167 123.448 103.407C123.834 103.998 124.136 104.64 124.345 105.315C125.242 108.692 125.218 110.428 125.215 110.499C125.214 110.558 125.194 110.615 125.157 110.661C124.942 110.927 103.725 136.961 93.8107 144.832C91.9189 146.323 89.578 147.129 87.1693 147.12V147.12ZM80.3952 144.55L82.9355 145.684C84.6442 146.457 86.5327 146.745 88.3942 146.517C90.2558 146.288 92.0186 145.552 93.4895 144.389C103.099 136.757 123.429 111.922 124.695 110.372C124.695 109.982 124.608 108.299 123.843 105.421C123.643 104.794 123.359 104.197 122.999 103.646C122.237 102.353 121.374 100.885 121.629 98.0367C121.935 94.6125 120.979 92.4969 119.978 91.6661C119.786 91.4807 119.552 91.345 119.296 91.271C119.039 91.197 118.769 91.1868 118.508 91.2413C117.977 91.382 117.422 94.6151 117.087 96.5502C116.843 97.9491 116.615 99.2684 116.365 100.11C115.94 101.448 115.76 102.851 115.835 104.253C115.877 105.793 115.909 107.006 113.907 109.878C112.116 112.45 105.469 119.564 101.854 122.784C99.9956 124.451 96.5448 126.625 93.97 128.154C92.8074 128.848 91.4237 129.071 90.1019 128.779C88.78 128.486 87.6199 127.7 86.8587 126.58C83.2805 121.271 79.9413 115.028 79.4263 114.075L76.9152 113.772L80.3952 144.55Z" fill="#222428"/>
<path d="M130.447 113.915C128.358 114.629 125.983 113.219 125.139 110.772L112.254 73.0286L119.785 70.4512L132.688 108.25C133.527 110.677 132.518 113.206 130.447 113.915Z" fill="#222428"/>
<path d="M118.465 37.8681L94.105 55.2494L84.6154 65.0974L80.8992 71.6857L80.8726 71.7388C80.14 72.8775 80.5594 75.5054 81.9344 78.1784C83.3094 80.8515 85.2126 82.6538 86.569 82.76L86.5266 82.7812L93.6935 83.551L107.091 81.4089L135.528 71.2397L170.869 77.2945H171.118C162.213 75.6673 150.231 63.802 141.529 47.01C132.828 30.218 130.065 13.6623 133.876 5.48926L118.667 37.4567L118.465 37.8681Z" fill="white"/>
<path d="M176.975 76.6303C185.708 72.0959 184.018 51.5318 173.201 30.699C162.384 9.86626 146.535 -3.34619 137.802 1.1882C129.07 5.72259 130.759 26.2867 141.576 47.1195C152.394 67.9523 168.242 81.1647 176.975 76.6303Z" fill="white"/>
<path d="M173.126 77.7592C169.33 77.7592 164.753 75.6356 159.829 71.5186C153.116 65.9071 146.533 57.2483 141.294 47.1376C133.357 31.8267 130.086 16.1204 132.959 7.12718C133.919 4.12236 135.515 2.03066 137.702 0.910487C142.037 -1.31659 148.155 0.578682 154.929 6.2406C161.642 11.8547 168.225 20.5135 173.465 30.6216C181.399 45.9351 184.672 61.6414 181.798 70.6347C180.839 73.6368 179.244 75.7285 177.057 76.8514C175.838 77.4653 174.49 77.7767 173.126 77.7592ZM141.639 0.5309C140.354 0.516856 139.085 0.811824 137.938 1.39094C135.881 2.45272 134.373 4.43558 133.46 7.29707C130.628 16.1656 133.885 31.7179 141.758 46.904C152.477 67.5821 168.202 80.8118 176.797 76.3895C178.854 75.3277 180.359 73.3475 181.275 70.4834C184.107 61.6175 180.85 46.0625 172.974 30.8765C163.67 12.8794 150.56 0.5309 141.639 0.5309Z" fill="#222428"/>
<path d="M173.126 77.7587C169.33 77.7587 164.753 75.6351 159.829 71.5181C153.116 65.9066 146.533 57.2478 141.294 47.137C133.357 31.8262 130.086 16.1199 132.959 7.12666C133.919 4.12183 135.515 2.03013 137.702 0.909961C140.622 -0.587143 144.41 -0.212868 148.678 1.98766C152.777 4.09794 157.22 7.82743 161.531 12.7912C161.575 12.8447 161.596 12.9131 161.59 12.9818C161.584 13.0505 161.551 13.1142 161.499 13.1594C161.447 13.2046 161.379 13.2278 161.311 13.224C161.242 13.2201 161.177 13.1897 161.13 13.139C152.355 3.05209 143.47 -1.46045 137.944 1.3798C135.886 2.44157 134.379 4.42444 133.466 7.28593C130.633 16.1544 133.89 31.7068 141.763 46.8928C152.482 67.5709 168.207 80.8007 176.802 76.3784C178.859 75.3166 180.364 73.3364 181.28 70.4722C184.112 61.6064 180.855 46.0514 172.98 30.8653C170.704 26.4514 168.09 22.22 165.162 18.2089C165.139 18.1811 165.122 18.1488 165.112 18.114C165.101 18.0792 165.098 18.0427 165.103 18.0068C165.107 17.9708 165.119 17.9361 165.137 17.9048C165.155 17.8735 165.18 17.8463 165.209 17.8249C165.239 17.8035 165.272 17.7883 165.307 17.7802C165.343 17.7722 165.379 17.7714 165.415 17.778C165.45 17.7847 165.484 17.7985 165.514 17.8188C165.544 17.839 165.57 17.8652 165.59 17.8957C168.534 21.9287 171.163 26.1832 173.452 30.6211C181.386 45.9346 184.659 61.6409 181.784 70.6341C180.826 73.6363 179.231 75.728 177.044 76.8508C175.829 77.4627 174.485 77.7741 173.126 77.7587V77.7587Z" fill="#222428"/>
<path d="M157.16 50.1158C159.181 49.066 158.79 44.305 156.286 39.482C153.782 34.6589 150.112 31.6001 148.091 32.6499C146.069 33.6997 146.46 38.4606 148.964 43.2837C151.468 48.1068 155.138 51.1656 157.16 50.1158Z" fill="white"/>
<path d="M156.254 50.5587C154.038 50.5587 150.945 47.6892 148.7 43.3598C146.841 39.7684 146.074 36.0707 146.756 33.9392C146.841 33.6118 146.99 33.3049 147.197 33.0371C147.403 32.7693 147.661 32.5461 147.956 32.3811C150.146 31.2556 153.902 34.3162 156.512 39.349C158.37 42.9378 159.134 46.6381 158.452 48.7696C158.368 49.0965 158.218 49.403 158.012 49.6708C157.807 49.9385 157.549 50.162 157.255 50.3277C156.945 50.4837 156.601 50.5629 156.254 50.5587ZM148.957 32.6784C148.693 32.6739 148.433 32.734 148.198 32.8536C147.966 32.9879 147.763 33.1677 147.602 33.382C147.441 33.5964 147.325 33.8409 147.261 34.1012C146.621 36.1053 147.372 39.6436 149.169 43.1262C151.558 47.7344 155.15 50.8241 157.011 49.8659C157.242 49.7312 157.445 49.5514 157.606 49.3371C157.767 49.1228 157.883 48.8784 157.948 48.6183C158.587 46.6142 157.839 43.0758 156.039 39.5932C153.955 35.5505 150.945 32.6784 148.968 32.6784H148.957Z" fill="#222428"/>
<path d="M171.156 72.9281C167.824 72.9281 163.814 71.0699 159.5 67.4599C153.623 62.5465 147.863 54.9681 143.276 46.1209C136.329 32.7159 133.468 18.9659 135.984 11.0823C136.826 8.44639 138.227 6.60952 140.149 5.62472C144.564 3.35783 151.07 5.9698 158.003 12.7917C158.053 12.841 158.082 12.9083 158.083 12.9787C158.083 13.0491 158.056 13.117 158.007 13.1673C157.958 13.2177 157.89 13.2464 157.82 13.2471C157.75 13.2478 157.682 13.2206 157.631 13.1713C150.873 6.51927 144.587 3.94181 140.377 6.09721C138.586 7.01565 137.274 8.75165 136.475 11.2442C134.002 18.9925 136.85 32.5832 143.735 45.8687C151.884 61.5909 163.341 72.3892 171.132 72.3892C172.249 72.4058 173.354 72.1517 174.352 71.6486C176.143 70.7275 177.457 68.9942 178.254 66.5017C180.73 58.7507 177.882 45.1626 170.996 31.8771C168.984 27.9731 166.669 24.233 164.071 20.6913C164.05 20.6633 164.035 20.6314 164.027 20.5975C164.018 20.5637 164.017 20.5285 164.022 20.494C164.027 20.4595 164.039 20.4263 164.057 20.3964C164.075 20.3665 164.099 20.3404 164.127 20.3197C164.155 20.299 164.187 20.284 164.221 20.2755C164.254 20.2671 164.29 20.2654 164.324 20.2706C164.359 20.2758 164.392 20.2877 164.422 20.3057C164.452 20.3237 164.478 20.3474 164.498 20.3754C167.117 23.9453 169.452 27.7157 171.48 31.6515C178.426 45.0538 181.301 58.8038 178.774 66.6901C177.932 69.326 176.531 71.1629 174.609 72.1503C173.537 72.6823 172.353 72.9491 171.156 72.9281V72.9281Z" fill="#222428"/>
<path d="M93.6944 83.8138H93.6652L86.4982 83.044C86.4585 83.0393 86.4204 83.0257 86.3868 83.0042C84.9135 82.7706 83.0528 80.9125 81.699 78.3005C80.2709 75.5452 79.8409 72.8616 80.6372 71.6087L80.6531 71.5715L84.3853 64.9673C84.3963 64.948 84.4097 64.9301 84.4251 64.9142L93.9147 55.0689C93.9252 55.0562 93.9378 55.0454 93.9519 55.037L118.256 37.6929L133.63 5.37244C133.661 5.30767 133.716 5.25772 133.784 5.23357C133.851 5.20943 133.925 5.21307 133.99 5.2437C134.055 5.27432 134.105 5.32942 134.129 5.39687C134.153 5.46432 134.15 5.5386 134.119 5.60337C130.222 13.9569 133.296 30.5551 141.764 46.8905C150.231 63.226 162.062 75.3727 171.167 77.0344C171.233 77.0467 171.291 77.0833 171.331 77.1369C171.371 77.1906 171.389 77.2573 171.382 77.3237C171.375 77.3894 171.344 77.4503 171.295 77.4945C171.246 77.5386 171.183 77.5629 171.116 77.5626H170.867H170.83L135.55 71.5105L107.179 81.6557C107.164 81.6626 107.148 81.6671 107.131 81.669L93.7342 83.8085L93.6944 83.8138ZM86.7132 82.5291L93.6891 83.2803L107.025 81.1567L135.428 70.9955C135.47 70.9799 135.516 70.9753 135.56 70.9822L167.467 76.4504C158.861 72.7474 148.766 61.5855 141.283 47.1454C133.851 32.8114 130.559 18.2544 132.433 9.1152L118.694 37.9902C118.675 38.0304 118.645 38.0651 118.609 38.0911L94.2678 55.4591L84.8206 65.2646L81.1044 71.8582C81.1012 71.8689 81.0958 71.8789 81.0885 71.8874C80.4089 72.9492 80.8655 75.5399 82.1715 78.0616C83.4536 80.5356 85.3117 82.4016 86.5911 82.4999C86.6318 82.5005 86.6717 82.5105 86.7079 82.5291H86.7132Z" fill="#222428"/>
<path d="M118.511 37.7699L133.869 5.48926C130.057 13.6623 132.829 30.2393 141.522 47.01C150.215 63.7808 162.213 75.6727 171.119 77.3078H170.869L135.587 71.2636L134.769 71.1256C130.668 70.4009 125.186 65.0655 121.268 57.4632C117.247 49.6591 116.536 41.8763 118.317 38.1787L118.511 37.7699Z" fill="#222428"/>
<path d="M93.3091 83.7717H93.2799L86.5031 83.0444C86.4634 83.0396 86.4253 83.026 86.3916 83.0045C84.9184 82.7709 83.0576 80.9128 81.7039 78.3009C80.2758 75.5456 79.8458 72.8619 80.6421 71.609L80.658 71.5719L84.3902 64.9676C84.4076 64.9373 84.4308 64.9107 84.4585 64.8893C84.4863 64.868 84.5179 64.8523 84.5517 64.8432C84.5854 64.8341 84.6207 64.8317 84.6554 64.8362C84.6901 64.8407 84.7235 64.852 84.7538 64.8694C84.7842 64.8868 84.8107 64.9101 84.8321 64.9378C84.8534 64.9655 84.8691 64.9971 84.8783 65.0309C84.8874 65.0647 84.8898 65.0999 84.8853 65.1346C84.8808 65.1693 84.8695 65.2027 84.852 65.2331L81.1119 71.8559C81.1088 71.8666 81.1033 71.8766 81.096 71.8851C80.4165 72.9469 80.873 75.5376 82.179 78.0593C83.4611 80.5333 85.3192 82.3993 86.5987 82.4975C86.6409 82.5002 86.6818 82.513 86.7181 82.5347L93.3542 83.2487C93.3891 83.2505 93.4232 83.2591 93.4548 83.274C93.4863 83.289 93.5146 83.31 93.538 83.3359C93.5614 83.3618 93.5795 83.392 93.5913 83.4249C93.603 83.4577 93.6081 83.4926 93.6064 83.5275C93.6046 83.5623 93.5961 83.5965 93.5811 83.628C93.5662 83.6596 93.5451 83.6879 93.5193 83.7113C93.4934 83.7347 93.4632 83.7528 93.4303 83.7645C93.3974 83.7762 93.3625 83.7814 93.3277 83.7796L93.3091 83.7717Z" fill="#222428"/>
<path d="M93.7577 83.5091C91.5545 83.3525 88.4754 80.2335 86.243 75.9227C83.8752 71.357 83.3231 66.6321 84.7671 64.9492L80.8943 71.6835L80.8677 71.7366C80.1351 72.8754 80.5545 75.5033 81.9295 78.1763C83.3045 80.8493 85.2077 82.6517 86.5642 82.7579L86.5217 82.7791L93.7577 83.5091Z" fill="white"/>
<path d="M93.7577 83.7742H93.7391L93.5692 83.7556L86.5058 83.0416C86.4649 83.0384 86.4256 83.0247 86.3916 83.0018C84.9184 82.7682 83.0577 80.9101 81.7039 78.2981C80.2758 75.5428 79.8458 72.8591 80.6421 71.6062L80.658 71.5691L84.0637 65.6497C84.1826 65.3317 84.3549 65.0363 84.5733 64.7764C84.6169 64.728 84.6767 64.6973 84.7414 64.6901C84.8061 64.6829 84.8712 64.6998 84.9243 64.7375C84.9774 64.7752 85.0148 64.831 85.0294 64.8945C85.0439 64.9579 85.0347 65.0245 85.0033 65.0816L84.5309 65.9018C83.7637 67.9643 84.5309 72.0071 86.4845 75.8003C88.6267 79.9359 91.528 82.9513 93.6329 83.2327L93.7896 83.2486C93.8591 83.256 93.9229 83.2905 93.9672 83.3447C94.0114 83.3989 94.0325 83.4683 94.0258 83.538C94.0185 83.6036 93.987 83.6643 93.9375 83.708C93.8879 83.7516 93.8238 83.7753 93.7577 83.7742V83.7742ZM86.7075 82.5293L91.735 83.0363C89.8132 81.8471 87.6949 79.3068 86.0041 76.0445C84.3689 72.891 83.5646 69.6234 83.7213 67.2848L81.104 71.8398C81.1008 71.8506 81.0953 71.8605 81.088 71.869C80.4085 72.9308 80.8651 75.5215 82.1711 78.0433C83.4532 80.5172 85.3113 82.3833 86.5907 82.4815C86.6329 82.4878 86.673 82.5042 86.7075 82.5293Z" fill="#222428"/>
<path d="M106.616 81.4865L107.182 81.3724C104.1 82.0147 99.2369 77.3668 95.8047 70.7413C92.3035 63.9884 91.6346 57.2408 94.1191 55.25L93.8006 55.5792L84.8073 64.9201C83.3288 66.5765 83.8756 71.3306 86.2567 75.9228C88.5528 80.3557 91.7991 83.5039 94.0076 83.4933L106.616 81.4865Z" fill="#222428"/>
<path d="M148.086 32.6172C146.061 33.6577 146.358 38.457 148.946 43.2349C153.284 51.2487 156.732 50.3011 157.138 50.1551L149.69 56.1488C145.197 49.7825 141.576 42.8432 138.926 35.5158L148.086 32.6172Z" fill="#222428"/>
<path d="M149.694 56.4307H149.657C149.622 56.4255 149.587 56.4131 149.557 56.3944C149.526 56.3757 149.5 56.351 149.479 56.3218C144.97 49.9335 141.338 42.97 138.678 35.6172C138.664 35.5844 138.657 35.5492 138.657 35.5137C138.657 35.4781 138.664 35.4429 138.678 35.4101C138.694 35.3782 138.716 35.3498 138.743 35.3266C138.77 35.3033 138.801 35.2857 138.835 35.2748L147.993 32.3549C148.025 32.3416 148.059 32.3349 148.094 32.335C148.129 32.3351 148.164 32.342 148.196 32.3555C148.228 32.3689 148.257 32.3885 148.282 32.4133C148.306 32.438 148.326 32.4673 148.339 32.4995C148.352 32.5318 148.359 32.5663 148.359 32.6012C148.359 32.636 148.352 32.6705 148.338 32.7027C148.325 32.7349 148.305 32.7641 148.281 32.7887C148.256 32.8132 148.227 32.8327 148.194 32.8459C147.951 32.9896 147.74 33.1815 147.574 33.4097C147.408 33.6379 147.29 33.8978 147.228 34.1732C146.596 36.2144 147.374 39.8085 149.166 43.116C153.413 50.9519 156.675 50.0441 157.034 49.914C157.096 49.8788 157.17 49.8698 157.239 49.889C157.308 49.9081 157.366 49.9539 157.401 50.0162C157.436 50.0785 157.445 50.1522 157.426 50.2212C157.407 50.2901 157.361 50.3486 157.299 50.3838L149.867 56.3776C149.817 56.4149 149.756 56.4337 149.694 56.4307ZM139.265 35.7021C141.869 42.8217 145.39 49.5714 149.739 55.7803L156.253 50.5404C154.793 50.4927 152.006 49.4415 148.707 43.3735C146.822 39.8961 146.052 36.2224 146.729 34.0192C146.812 33.7398 146.931 33.4722 147.082 33.2229L139.265 35.7021Z" fill="#222428"/>
<path d="M128.159 88.3127C127.138 88.5145 124.273 90.2823 124.43 94.9833C124.526 97.9245 126.678 99.2119 128.279 99.7613C128.83 99.9463 129.33 100.257 129.739 100.669C130.149 101.081 130.457 101.583 130.639 102.134L131.493 104.789C131.493 104.789 137.142 86.5396 128.159 88.3127Z" fill="white"/>
<path d="M131.493 105.06C131.435 105.063 131.377 105.046 131.329 105.012C131.281 104.979 131.245 104.93 131.228 104.874L130.376 102.22C130.208 101.706 129.923 101.239 129.542 100.856C129.161 100.473 128.696 100.184 128.183 100.014C126.723 99.5094 124.257 98.1848 124.154 94.9916C124 90.3649 126.744 88.3183 128.098 88.0502C129.813 87.7104 131.148 88.0502 132.064 89.0748C135.422 92.791 131.889 104.378 131.735 104.869C131.718 104.925 131.682 104.974 131.634 105.008C131.586 105.043 131.528 105.06 131.469 105.057L131.493 105.06ZM129.306 88.4563C128.939 88.4585 128.572 88.4967 128.212 88.5705C127.429 88.7244 124.539 90.264 124.695 94.973C124.783 97.707 126.742 98.9546 128.366 99.5121C128.955 99.713 129.489 100.047 129.927 100.489C130.365 100.93 130.695 101.467 130.891 102.058L131.477 103.879C132.228 101.131 134.341 92.3849 131.679 89.4278C131.378 89.103 131.01 88.8479 130.6 88.6801C130.19 88.5123 129.748 88.4359 129.306 88.4563V88.4563Z" fill="#222428"/>
<path d="M46.6914 89.2106C46.6914 89.2106 50.6332 91.1244 53.0143 94.7849C55.3953 98.4454 62.5464 103.903 64.285 103.356C66.0237 102.809 64.5505 99.0691 63.8285 96.6085C63.1065 94.1478 61.0891 92.3932 61.0891 92.3932C61.0891 92.3932 62.8198 87.6152 63.9187 84.7511C64.4176 83.424 64.8473 82.072 65.2061 80.7004C65.3286 80.2497 65.6129 79.86 66.0047 79.6059C66.3965 79.3517 66.8682 79.2509 67.3297 79.3228C69.0498 79.5882 71.6007 79.8536 72.7049 79.2803C73.9578 78.622 73.6897 74.7545 73.4429 72.6442C73.3425 71.8084 73.5615 70.9656 74.056 70.2844C74.3201 69.8774 74.5315 69.4386 74.6851 68.9784C74.6851 68.9784 74.5949 68.6413 72.9438 67.3433C71.2928 66.0452 71.0857 63.7598 70.9158 63.067C69.8859 58.9632 67.7544 56.192 66.4484 55.4062C66.4484 55.4062 64.938 65.3232 61.4315 67.2397C61.4315 67.2397 59.9902 68.2644 57.4499 66.6929C57.4499 66.6929 55.1803 65.8727 54.3548 67.6512C53.5292 69.4297 56.1439 72.7106 55.0423 77.0214C54.5034 79.1662 51.1827 87.9258 46.6914 89.2106Z" fill="white"/>
<path d="M64.0313 103.645C61.6768 103.645 54.977 98.2616 52.7924 94.917C50.4778 91.3733 46.6156 89.4674 46.5758 89.4489C46.5268 89.4252 46.4862 89.387 46.4596 89.3395C46.433 89.2921 46.4217 89.2376 46.4271 89.1834C46.4322 89.1298 46.4534 89.079 46.488 89.0378C46.5226 88.9965 46.569 88.9668 46.6209 88.9525C50.7751 87.7713 54.1144 79.6195 54.7966 76.9438C55.4044 74.5548 54.8417 72.4843 54.3878 70.812C54.0215 69.4556 53.7295 68.3832 54.1223 67.5258C54.8549 65.9332 56.6812 66.119 57.5466 66.4322C57.5635 66.438 57.5795 66.446 57.5943 66.4561C59.9382 67.9054 61.2362 67.048 61.2893 67.0109L61.3132 66.9949C64.6631 65.166 66.1814 55.4534 66.1947 55.3552C66.2016 55.3122 66.2191 55.2715 66.2455 55.2367C66.2718 55.202 66.3064 55.1743 66.346 55.1561C66.3844 55.1357 66.4273 55.125 66.4708 55.125C66.5143 55.125 66.5571 55.1357 66.5955 55.1561C67.8378 55.9047 70.0835 58.6069 71.1824 62.9814C71.209 63.085 71.2355 63.223 71.2673 63.3902C71.4478 64.3219 71.7982 66.0606 73.1255 67.1064C74.2164 67.9665 74.8854 68.6142 74.9597 68.8823C74.9733 68.93 74.9733 68.9805 74.9597 69.0282C74.7976 69.5176 74.5718 69.9835 74.2881 70.4139C73.8335 71.0408 73.6325 71.8164 73.7254 72.5852C74.0519 75.3538 74.1634 78.7966 72.8468 79.4867C71.7053 80.084 69.2022 79.8531 67.3069 79.5531C66.9061 79.4901 66.4962 79.5787 66.1571 79.8014C65.818 80.0242 65.574 80.3653 65.4727 80.7582C65.1099 82.1382 64.6775 83.4991 64.1773 84.8354C63.2058 87.3731 61.7246 91.437 61.4088 92.305C61.8812 92.7536 63.4474 94.3596 64.0924 96.5203C64.188 96.8415 64.2941 97.1839 64.4056 97.5369C64.7772 98.7182 65.202 100.056 65.3347 101.158C65.5019 102.525 65.1781 103.345 64.3738 103.6C64.2625 103.632 64.1471 103.647 64.0313 103.645ZM47.3482 89.2524C48.5214 89.9187 51.3299 91.7184 53.2384 94.6224C55.707 98.3996 62.7307 103.552 64.2065 103.087C64.403 103.026 65.0029 102.838 64.8011 101.229C64.6711 100.167 64.2703 98.8642 63.8907 97.7042C63.7792 97.3485 63.6703 97.0034 63.5748 96.6796C62.874 94.3251 60.9336 92.6076 60.9203 92.5891C60.8803 92.5539 60.8519 92.5074 60.8386 92.4558C60.8254 92.4042 60.8279 92.3498 60.846 92.2997C60.8619 92.2519 62.59 87.4952 63.6783 84.6549C64.1719 83.3349 64.5989 81.991 64.9578 80.6282C65.0968 80.1118 65.4223 79.6653 65.8714 79.375C66.3205 79.0847 66.8613 78.9713 67.3892 79.0567C69.9587 79.4602 71.8089 79.4575 72.5999 79.0408C73.3909 78.6241 73.6192 76.2457 73.1971 72.6701C73.0895 71.7683 73.3265 70.8591 73.8607 70.1245C74.0876 69.7744 74.2738 69.3994 74.4155 69.007C74.304 68.8584 73.9351 68.4416 72.799 67.5471C71.3125 66.3738 70.9409 64.4387 70.7577 63.507C70.7285 63.3557 70.7046 63.2256 70.6781 63.1301C69.7225 59.321 67.8405 56.7992 66.6619 55.8622C66.3274 57.8053 64.7852 65.7022 61.5893 67.4621C61.4141 67.5816 59.8904 68.4894 57.3422 66.9312C57.1006 66.849 55.2823 66.2968 54.6054 67.7594C54.2896 68.439 54.5577 69.4291 54.8974 70.6793C55.3673 72.41 55.9592 74.5628 55.3088 77.0792C54.8788 78.7701 51.8289 87.3545 47.3482 89.2524Z" fill="#222428"/>
<path d="M61.0497 96.1537C60.9948 96.1535 60.9414 96.1363 60.8967 96.1044C60.852 96.0726 60.8183 96.0277 60.8002 95.9759C60.4048 94.6333 60.4702 93.197 60.986 91.896C60.9989 91.8636 61.018 91.834 61.0424 91.809C61.0667 91.784 61.0957 91.764 61.1277 91.7502C61.1598 91.7364 61.1942 91.729 61.2291 91.7285C61.264 91.7281 61.2987 91.7344 61.3311 91.7473C61.3635 91.7602 61.3931 91.7794 61.4181 91.8037C61.4431 91.828 61.463 91.857 61.4769 91.8891C61.4907 91.9211 61.498 91.9556 61.4985 91.9905C61.499 92.0253 61.4926 92.06 61.4797 92.0924C61.0169 93.2786 60.9544 94.5836 61.3019 95.8086C61.3247 95.8752 61.3202 95.948 61.2893 96.0112C61.2585 96.0744 61.2038 96.1228 61.1373 96.1457C61.1087 96.1532 61.0791 96.1559 61.0497 96.1537Z" fill="#222428"/>
<path d="M58.6341 74.2796C56.776 74.2796 55.1833 72.3737 54.5224 71.1367C54.4872 71.0748 54.478 71.0014 54.4969 70.9327C54.5159 70.864 54.5613 70.8056 54.6233 70.7704C54.6852 70.7352 54.7586 70.7261 54.8273 70.745C54.896 70.7639 54.9544 70.8093 54.9896 70.8713C55.0135 70.9138 57.1742 74.8317 59.7676 73.4355C59.8295 73.4003 59.9029 73.3911 59.9716 73.41C60.0403 73.429 60.0987 73.4744 60.1339 73.5364C60.1691 73.5983 60.1782 73.6717 60.1593 73.7404C60.1404 73.8091 60.095 73.8675 60.033 73.9027C59.6058 74.1438 59.1247 74.2735 58.6341 74.2796V74.2796Z" fill="#222428"/>
<path d="M188.726 142.777H188.686C188.29 142.771 187.912 142.61 187.635 142.327C187.358 142.044 187.203 141.663 187.206 141.267C187.209 140.871 187.368 140.492 187.649 140.213C187.93 139.934 188.31 139.777 188.706 139.777C189.102 139.777 189.482 139.934 189.763 140.213C190.044 140.492 190.203 140.871 190.206 141.267C190.208 141.663 190.054 142.044 189.777 142.327C189.5 142.61 189.122 142.771 188.726 142.777V142.777ZM188.699 142.246H188.726C188.972 142.247 189.209 142.151 189.386 141.979C189.564 141.808 189.666 141.574 189.673 141.327C189.677 141.203 189.655 141.079 189.609 140.963C189.564 140.847 189.495 140.742 189.408 140.653C189.301 140.539 189.168 140.452 189.02 140.402C188.872 140.351 188.714 140.338 188.559 140.363C188.405 140.389 188.259 140.452 188.135 140.548C188.012 140.643 187.913 140.768 187.849 140.911C187.785 141.053 187.758 141.21 187.769 141.366C187.78 141.522 187.829 141.673 187.913 141.805C187.997 141.937 188.112 142.047 188.248 142.124C188.384 142.201 188.537 142.243 188.694 142.246H188.699Z" fill="#222428"/>
<path d="M177.489 151.978H177.434C177.149 151.971 176.869 151.909 176.609 151.793C176.348 151.678 176.114 151.512 175.918 151.306C175.721 151.102 175.567 150.861 175.465 150.596C175.363 150.332 175.315 150.05 175.323 149.766C175.332 149.34 175.467 148.926 175.71 148.576C175.953 148.225 176.295 147.955 176.691 147.798C177.088 147.641 177.522 147.604 177.939 147.693C178.356 147.781 178.738 147.991 179.036 148.296C179.335 148.6 179.536 148.986 179.616 149.405C179.696 149.824 179.651 150.257 179.486 150.651C179.321 151.044 179.043 151.379 178.688 151.615C178.333 151.851 177.916 151.977 177.489 151.978V151.978ZM177.489 148.195C177.063 148.195 176.654 148.361 176.349 148.659C176.044 148.957 175.867 149.362 175.857 149.788C175.85 150.001 175.886 150.214 175.963 150.413C176.04 150.613 176.157 150.794 176.305 150.948C176.527 151.181 176.812 151.343 177.125 151.415C177.439 151.487 177.766 151.465 178.067 151.351C178.368 151.238 178.628 151.039 178.817 150.778C179.005 150.517 179.112 150.207 179.124 149.886C179.132 149.672 179.096 149.459 179.019 149.259C178.942 149.059 178.825 148.877 178.676 148.723C178.528 148.568 178.351 148.443 178.154 148.356C177.958 148.269 177.746 148.221 177.532 148.216L177.489 148.195Z" fill="#222428"/>
<path d="M160.206 160.158C160.17 160.158 160.134 160.151 160.1 160.137C160.067 160.122 160.037 160.102 160.012 160.075C159.987 160.051 159.967 160.021 159.954 159.989C159.941 159.957 159.934 159.922 159.934 159.887C159.934 159.852 159.941 159.817 159.954 159.785C159.967 159.753 159.987 159.723 160.012 159.699L161.074 158.693C161.099 158.666 161.128 158.644 161.162 158.629C161.195 158.615 161.231 158.607 161.268 158.606C161.304 158.606 161.34 158.613 161.374 158.628C161.407 158.642 161.437 158.663 161.462 158.69C161.488 158.716 161.507 158.747 161.519 158.782C161.532 158.816 161.537 158.853 161.534 158.889C161.532 158.925 161.522 158.961 161.506 158.993C161.489 159.026 161.466 159.054 161.438 159.077L160.376 160.086C160.33 160.13 160.269 160.155 160.206 160.158Z" fill="#222428"/>
<path d="M163.951 156.63C163.916 156.63 163.88 156.623 163.847 156.609C163.814 156.595 163.785 156.574 163.76 156.548C163.735 156.524 163.716 156.494 163.702 156.462C163.689 156.429 163.682 156.395 163.682 156.36C163.682 156.325 163.689 156.29 163.702 156.258C163.716 156.225 163.735 156.196 163.76 156.171L164.822 155.165C164.847 155.138 164.876 155.117 164.91 155.102C164.943 155.087 164.979 155.079 165.016 155.079C165.052 155.079 165.088 155.086 165.122 155.1C165.155 155.115 165.186 155.136 165.211 155.162C165.236 155.189 165.255 155.22 165.267 155.254C165.28 155.289 165.285 155.325 165.283 155.362C165.28 155.398 165.27 155.434 165.254 155.466C165.237 155.498 165.214 155.527 165.186 155.55L164.124 156.559C164.077 156.603 164.016 156.628 163.951 156.63Z" fill="#222428"/>
<path d="M164.913 160.28C164.877 160.28 164.842 160.272 164.809 160.258C164.776 160.244 164.746 160.223 164.722 160.197L163.702 159.136C163.654 159.085 163.627 159.017 163.628 158.946C163.629 158.876 163.658 158.809 163.709 158.76C163.76 158.711 163.828 158.684 163.898 158.686C163.969 158.687 164.036 158.716 164.085 158.767L165.104 159.828C165.141 159.866 165.165 159.913 165.175 159.965C165.185 160.016 165.179 160.07 165.159 160.118C165.138 160.166 165.104 160.207 165.06 160.236C165.017 160.265 164.965 160.28 164.913 160.28Z" fill="#222428"/>
<path d="M161.347 156.564C161.311 156.564 161.275 156.557 161.242 156.543C161.208 156.529 161.178 156.508 161.153 156.482L160.137 155.42C160.11 155.395 160.088 155.366 160.073 155.332C160.058 155.299 160.049 155.263 160.049 155.227C160.048 155.19 160.055 155.154 160.069 155.12C160.083 155.087 160.104 155.056 160.131 155.031C160.157 155.006 160.188 154.986 160.223 154.973C160.257 154.961 160.293 154.955 160.33 154.957C160.366 154.96 160.402 154.969 160.434 154.986C160.467 155.002 160.496 155.025 160.519 155.054L161.538 156.115C161.574 156.153 161.598 156.2 161.607 156.251C161.617 156.302 161.611 156.355 161.59 156.402C161.57 156.45 161.536 156.491 161.493 156.52C161.45 156.548 161.399 156.564 161.347 156.564V156.564Z" fill="#222428"/>
<path d="M15.8338 30.5888C15.7634 30.5888 15.6959 30.5609 15.6461 30.5111C15.5963 30.4613 15.5684 30.3938 15.5684 30.3234L15.6267 28.4839C15.628 28.449 15.6361 28.4147 15.6505 28.383C15.665 28.3512 15.6855 28.3227 15.7111 28.2989C15.7366 28.2751 15.7665 28.2566 15.7992 28.2443C15.8319 28.2321 15.8666 28.2265 15.9015 28.2277C15.9364 28.2289 15.9706 28.237 16.0024 28.2515C16.0341 28.2659 16.0627 28.2865 16.0865 28.312C16.1103 28.3375 16.1288 28.3675 16.141 28.4001C16.1532 28.4328 16.1589 28.4676 16.1576 28.5024L16.0992 30.3393C16.0952 30.4069 16.0654 30.4704 16.0161 30.5168C15.9668 30.5632 15.9015 30.5889 15.8338 30.5888V30.5888Z" fill="#222428"/>
<path d="M16.0467 24.1633C15.9763 24.1633 15.9088 24.1354 15.859 24.0856C15.8092 24.0358 15.7812 23.9683 15.7812 23.8979L15.837 22.0584C15.8391 21.988 15.8691 21.9213 15.9204 21.873C15.9716 21.8247 16.04 21.7988 16.1104 21.8009C16.1808 21.803 16.2475 21.833 16.2957 21.8843C16.344 21.9355 16.37 22.0039 16.3679 22.0743L16.3121 23.9138C16.3081 23.9814 16.2783 24.0449 16.229 24.0913C16.1796 24.1377 16.1144 24.1635 16.0467 24.1633Z" fill="#222428"/>
<path d="M20.1101 26.5463L18.2733 26.5065C18.2029 26.5065 18.1354 26.4785 18.0856 26.4287C18.0358 26.379 18.0078 26.3114 18.0078 26.241C18.0078 26.1706 18.0358 26.1031 18.0856 26.0533C18.1354 26.0036 18.2029 25.9756 18.2733 25.9756L20.1101 26.0154C20.1805 26.0154 20.2481 26.0434 20.2978 26.0932C20.3476 26.1429 20.3756 26.2104 20.3756 26.2808C20.3756 26.3512 20.3476 26.4188 20.2978 26.4685C20.2481 26.5183 20.1805 26.5463 20.1101 26.5463Z" fill="#222428"/>
<path d="M13.6763 26.4137L11.8367 26.3766C11.7663 26.3766 11.6988 26.3486 11.6491 26.2988C11.5993 26.2491 11.5713 26.1815 11.5713 26.1111C11.5713 26.0407 11.5993 25.9732 11.6491 25.9234C11.6988 25.8737 11.7663 25.8457 11.8367 25.8457L13.6763 25.8829C13.7467 25.8829 13.8142 25.9108 13.864 25.9606C13.9138 26.0104 13.9417 26.0779 13.9417 26.1483C13.9417 26.2187 13.9138 26.2862 13.864 26.336C13.8142 26.3858 13.7467 26.4137 13.6763 26.4137Z" fill="#222428"/>
<path d="M34.5277 17.2374C35.6162 16.149 35.6162 14.3842 34.5277 13.2958C33.4392 12.2073 31.6745 12.2073 30.5861 13.2958C29.4976 14.3842 29.4976 16.149 30.5861 17.2374C31.6745 18.3259 33.4392 18.3259 34.5277 17.2374Z" fill="white"/>
<path d="M32.5565 18.321C31.9528 18.321 31.3626 18.142 30.8606 17.8066C30.3586 17.4712 29.9673 16.9944 29.7363 16.4366C29.5052 15.8788 29.4448 15.265 29.5626 14.6729C29.6803 14.0807 29.9711 13.5368 30.398 13.1099C30.8249 12.683 31.3688 12.3923 31.961 12.2745C32.5531 12.1567 33.1669 12.2171 33.7247 12.4482C34.2825 12.6792 34.7592 13.0705 35.0947 13.5725C35.4301 14.0745 35.6091 14.6647 35.6091 15.2684C35.6084 16.0778 35.2866 16.8538 34.7143 17.4262C34.1419 17.9985 33.3659 18.3203 32.5565 18.321V18.321ZM32.5565 12.7467C32.0578 12.7467 31.5702 12.8946 31.1555 13.1717C30.7408 13.4488 30.4176 13.8426 30.2268 14.3034C30.0359 14.7642 29.9859 15.2712 30.0832 15.7604C30.1805 16.2496 30.4207 16.6989 30.7734 17.0516C31.1261 17.4042 31.5754 17.6444 32.0645 17.7417C32.5537 17.839 33.0608 17.7891 33.5215 17.5982C33.9823 17.4073 34.3762 17.0841 34.6532 16.6694C34.9303 16.2547 35.0782 15.7672 35.0782 15.2684C35.0775 14.5998 34.8116 13.9588 34.3389 13.4861C33.8661 13.0133 33.2251 12.7474 32.5565 12.7467Z" fill="#222428"/>
<path d="M187.507 42.1636C187.449 42.164 187.393 42.1458 187.347 42.1116C187.301 42.0775 187.267 42.0293 187.25 41.9742C187.234 41.9191 187.236 41.8602 187.256 41.8063C187.276 41.7524 187.312 41.7064 187.361 41.6752L208.745 27.9358C208.774 27.9147 208.807 27.8999 208.843 27.892C208.878 27.8842 208.914 27.8837 208.95 27.8904C208.985 27.8971 209.019 27.911 209.048 27.9311C209.078 27.9513 209.104 27.9773 209.123 28.0076C209.143 28.038 209.156 28.0719 209.162 28.1075C209.168 28.143 209.166 28.1794 209.158 28.2144C209.149 28.2494 209.134 28.2823 209.112 28.3111C209.09 28.3399 209.063 28.3639 209.032 28.3818L187.65 42.1291C187.606 42.1539 187.557 42.1659 187.507 42.1636Z" fill="#222428"/>
<path d="M197.823 14.5939C197.765 14.5947 197.708 14.5764 197.661 14.5419C197.615 14.5074 197.581 14.4586 197.564 14.4029C197.548 14.3471 197.551 14.2876 197.571 14.2335C197.592 14.1793 197.63 14.1334 197.679 14.1028L213.274 4.077C213.304 4.058 213.336 4.04496 213.371 4.03861C213.405 4.03226 213.44 4.03274 213.474 4.04001C213.508 4.04728 213.541 4.06121 213.57 4.08099C213.598 4.10077 213.623 4.12602 213.642 4.1553C213.661 4.18459 213.674 4.21732 213.68 4.25165C213.687 4.28597 213.686 4.32121 213.679 4.35534C213.672 4.38948 213.658 4.42185 213.638 4.45061C213.618 4.47937 213.593 4.50395 213.564 4.52295L197.966 14.5514C197.923 14.5782 197.873 14.5929 197.823 14.5939V14.5939Z" fill="#222428"/>
<path d="M188.108 20.8447C188.05 20.8446 187.995 20.8259 187.949 20.7915C187.903 20.7572 187.87 20.7089 187.854 20.654C187.837 20.5991 187.839 20.5404 187.859 20.4868C187.879 20.4331 187.916 20.3873 187.964 20.3563L191.779 17.9036C191.808 17.8825 191.841 17.8676 191.876 17.8598C191.912 17.852 191.948 17.8514 191.983 17.8582C192.019 17.8649 192.052 17.8788 192.082 17.8989C192.112 17.9191 192.138 17.9451 192.157 17.9754C192.177 18.0057 192.19 18.0397 192.196 18.0753C192.202 18.1108 192.2 18.1472 192.192 18.1822C192.183 18.2172 192.167 18.2501 192.146 18.2789C192.124 18.3076 192.097 18.3317 192.065 18.3495L188.251 20.8022C188.208 20.8298 188.158 20.8446 188.108 20.8447V20.8447Z" fill="#222428"/>
<path d="M158.192 19.2026C158.134 19.2024 158.079 19.1838 158.033 19.1494C157.987 19.115 157.954 19.0668 157.937 19.0119C157.921 18.957 157.923 18.8983 157.943 18.8446C157.963 18.791 158 18.7452 158.048 18.7142L177.282 6.32058C177.311 6.29951 177.345 6.28462 177.38 6.27681C177.415 6.269 177.451 6.26844 177.487 6.27517C177.522 6.28189 177.556 6.29575 177.586 6.31591C177.616 6.33607 177.641 6.36209 177.661 6.39241C177.68 6.42273 177.693 6.4567 177.699 6.49225C177.705 6.5278 177.704 6.56418 177.695 6.59919C177.687 6.63419 177.671 6.66708 177.649 6.69585C177.628 6.72462 177.6 6.74866 177.569 6.76652L158.338 19.1601C158.294 19.1882 158.243 19.203 158.192 19.2026Z" fill="#222428"/>
<path d="M195.675 28.8295C195.618 28.8294 195.562 28.8107 195.516 28.7764C195.47 28.742 195.437 28.6938 195.421 28.6388C195.405 28.5839 195.407 28.5253 195.427 28.4716C195.447 28.4179 195.484 28.3722 195.532 28.3411L213.502 16.7863C213.532 16.7671 213.564 16.754 213.599 16.7476C213.633 16.7412 213.669 16.7417 213.703 16.7491C213.738 16.7565 213.77 16.7707 213.799 16.7907C213.828 16.8108 213.852 16.8364 213.871 16.866C213.909 16.9251 213.922 16.9969 213.907 17.0656C213.892 17.1343 213.851 17.1942 213.791 17.2323L195.818 28.7871C195.776 28.8147 195.726 28.8294 195.675 28.8295Z" fill="#222428"/>
<path d="M132.278 155.436C132.221 155.435 132.166 155.417 132.12 155.382C132.074 155.348 132.041 155.3 132.024 155.245C132.008 155.19 132.01 155.131 132.03 155.078C132.05 155.024 132.087 154.978 132.135 154.947L160.384 136.788C160.443 136.75 160.515 136.737 160.583 136.752C160.652 136.767 160.712 136.809 160.75 136.868C160.788 136.927 160.801 136.999 160.786 137.067C160.771 137.136 160.729 137.196 160.67 137.234L132.422 155.393C132.379 155.421 132.329 155.435 132.278 155.436Z" fill="#222428"/>
<path d="M138.843 141.426C138.799 141.426 138.756 141.415 138.717 141.394C138.678 141.374 138.645 141.343 138.62 141.306C138.601 141.277 138.588 141.244 138.582 141.21C138.575 141.175 138.576 141.14 138.583 141.105C138.591 141.071 138.605 141.038 138.625 141.01C138.645 140.981 138.67 140.956 138.7 140.937L197.629 103.061C197.688 103.028 197.757 103.018 197.823 103.034C197.889 103.05 197.947 103.091 197.983 103.148C198.02 103.205 198.033 103.275 198.021 103.341C198.008 103.408 197.97 103.467 197.915 103.507L139 141.386C138.953 141.415 138.898 141.429 138.843 141.426Z" fill="#222428"/>
<path d="M74.7151 44.3923C74.6707 44.3922 74.627 44.381 74.5881 44.3596C74.5491 44.3383 74.5161 44.3075 74.4922 44.2702C74.4542 44.211 74.4413 44.1392 74.4563 44.0705C74.4712 44.0019 74.5127 43.9419 74.5718 43.9039L123.605 12.385C123.634 12.364 123.667 12.3491 123.702 12.3413C123.737 12.3335 123.774 12.3329 123.809 12.3396C123.845 12.3463 123.878 12.3602 123.908 12.3804C123.938 12.4005 123.964 12.4265 123.983 12.4569C124.003 12.4872 124.016 12.5212 124.022 12.5567C124.028 12.5923 124.026 12.6286 124.018 12.6636C124.009 12.6986 123.993 12.7315 123.972 12.7603C123.95 12.7891 123.923 12.8131 123.891 12.831L74.8585 44.3551C74.8147 44.3797 74.7653 44.3925 74.7151 44.3923Z" fill="#222428"/>
<path d="M53.1528 44.9232C53.0966 44.9225 53.0421 44.904 52.9971 44.8703C52.9521 44.8366 52.9189 44.7896 52.9024 44.7358C52.8858 44.6821 52.8868 44.6245 52.9051 44.5714C52.9234 44.5182 52.9581 44.4722 53.0042 44.4401L81.2023 25.1635C81.231 25.1433 81.2635 25.129 81.2978 25.1215C81.3321 25.1139 81.3676 25.1132 81.4021 25.1195C81.4367 25.1257 81.4697 25.1388 81.4992 25.1579C81.5287 25.1769 81.5541 25.2017 81.5739 25.2307C81.5938 25.2597 81.6077 25.2923 81.6148 25.3267C81.622 25.3611 81.6222 25.3966 81.6156 25.4311C81.6089 25.4656 81.5954 25.4984 81.576 25.5277C81.5565 25.5569 81.5315 25.582 81.5022 25.6015L53.3041 44.8701C53.2598 44.9018 53.2073 44.9202 53.1528 44.9232Z" fill="#222428"/>
<path d="M87.3472 21.5404C87.291 21.5397 87.2364 21.5212 87.1914 21.4875C87.1464 21.4538 87.1132 21.4067 87.0967 21.353C87.0802 21.2993 87.0811 21.2417 87.0994 21.1886C87.1177 21.1354 87.1524 21.0894 87.1985 21.0573L92.4755 17.4499C92.5336 17.4111 92.6047 17.3968 92.6732 17.4101C92.7418 17.4234 92.8024 17.4631 92.8419 17.5207C92.8813 17.5784 92.8965 17.6492 92.884 17.7179C92.8716 17.7867 92.8326 17.8477 92.7755 17.8879L87.5038 21.4953C87.4576 21.5263 87.4028 21.5421 87.3472 21.5404V21.5404Z" fill="#222428"/>
<path d="M119.251 158.487C124.106 155.875 125.936 149.843 123.339 145.014C120.741 140.186 114.699 138.389 109.844 141.002C104.988 143.614 103.158 149.646 105.755 154.474C108.353 159.303 114.395 161.099 119.251 158.487Z" fill="white"/>
<path d="M114.497 159.973C113.541 159.973 112.589 159.839 111.67 159.575C110.382 159.206 109.18 158.585 108.133 157.749C107.085 156.913 106.214 155.878 105.569 154.704C104.923 153.53 104.516 152.239 104.372 150.907C104.227 149.575 104.348 148.228 104.726 146.942C105.497 144.34 107.264 142.147 109.642 140.84C112.02 139.533 114.818 139.217 117.428 139.961C118.716 140.33 119.918 140.951 120.966 141.787C122.013 142.622 122.884 143.657 123.53 144.832C124.175 146.006 124.582 147.296 124.726 148.628C124.871 149.961 124.751 151.308 124.372 152.594C123.741 154.723 122.439 156.592 120.659 157.922C118.88 159.252 116.719 159.971 114.497 159.973V159.973ZM114.601 140.094C112.494 140.095 110.445 140.778 108.757 142.038C107.07 143.299 105.835 145.071 105.236 147.091C104.877 148.309 104.762 149.586 104.898 150.849C105.035 152.112 105.42 153.335 106.032 154.449C106.644 155.562 107.47 156.543 108.463 157.335C109.455 158.127 110.595 158.715 111.816 159.065C114.294 159.77 116.949 159.468 119.205 158.225C121.46 156.982 123.134 154.899 123.862 152.429C124.222 151.211 124.336 149.933 124.199 148.671C124.063 147.408 123.677 146.185 123.065 145.072C122.453 143.959 121.627 142.978 120.634 142.186C119.641 141.394 118.501 140.806 117.279 140.457C116.408 140.212 115.506 140.09 114.601 140.094V140.094Z" fill="#222428"/>
<path d="M120.984 146.588L117.406 147.491C117.365 147.503 117.328 147.526 117.298 147.556C117.267 147.587 117.245 147.624 117.232 147.665C117.219 147.706 117.216 147.749 117.224 147.792C117.232 147.834 117.25 147.873 117.276 147.907L117.642 148.329C117.684 148.382 117.705 148.448 117.7 148.515C117.695 148.582 117.665 148.645 117.616 148.69L115.556 150.482C115.504 150.525 115.438 150.546 115.371 150.541C115.304 150.537 115.241 150.507 115.195 150.458L113.071 148.006C113.025 147.957 112.963 147.927 112.896 147.923C112.829 147.918 112.762 147.939 112.71 147.982L108.121 151.963C108.071 152.009 108.041 152.073 108.037 152.14C108.032 152.208 108.054 152.275 108.097 152.327L108.875 153.222C108.921 153.272 108.984 153.302 109.051 153.307C109.119 153.312 109.186 153.291 109.238 153.248L112.546 150.392C112.598 150.349 112.664 150.328 112.731 150.333C112.798 150.337 112.861 150.367 112.907 150.416L115.03 152.866C115.076 152.915 115.139 152.945 115.206 152.95C115.273 152.955 115.339 152.934 115.391 152.892L118.731 149.972C118.783 149.93 118.849 149.909 118.916 149.913C118.983 149.918 119.046 149.947 119.092 149.996L119.487 150.453C119.517 150.484 119.554 150.507 119.596 150.521C119.637 150.534 119.681 150.538 119.723 150.53C119.766 150.523 119.806 150.505 119.84 150.479C119.875 150.452 119.902 150.418 119.92 150.379L121.284 146.928C121.298 146.884 121.3 146.838 121.29 146.794C121.281 146.749 121.26 146.708 121.23 146.674C121.2 146.64 121.161 146.614 121.118 146.599C121.075 146.584 121.029 146.58 120.984 146.588Z" fill="#222428"/>
<path d="M155.876 115.237C164.03 115.237 170.64 108.659 170.64 100.545C170.64 92.4305 164.03 85.8525 155.876 85.8525C147.722 85.8525 141.112 92.4305 141.112 100.545C141.112 108.659 147.722 115.237 155.876 115.237Z" fill="#222428"/>
<path d="M152.662 95.0529C153.082 94.8723 153.535 94.7819 153.992 94.7873C154.45 94.7928 154.901 94.8941 155.316 95.0847C155.952 95.3681 156.473 95.8584 156.795 96.4757C156.969 96.8101 157.095 97.1676 157.169 97.5374C157.493 97.3488 157.843 97.2076 158.207 97.118C158.881 96.9462 159.594 97.0099 160.227 97.2985C160.646 97.4841 161.022 97.7555 161.33 98.0952C161.639 98.4348 161.872 98.8353 162.016 99.2708C162.306 100.186 162.241 101.178 161.833 102.047C161.411 102.99 160.673 103.693 159.51 104.264C158.472 104.776 157.121 105.166 155.584 105.618C155.053 105.772 154.454 105.947 153.827 106.148C153.661 106.199 153.482 106.188 153.324 106.117C153.166 106.046 153.039 105.919 152.967 105.761C152.702 105.164 152.436 104.598 152.189 104.099C151.497 102.637 150.899 101.376 150.597 100.258C150.252 99.0107 150.289 97.9913 150.711 97.049C151.087 96.1618 151.783 95.449 152.662 95.0529V95.0529Z" fill="white"/>
<path d="M196.265 97.2388C199.918 92.5714 199.216 85.9208 194.698 82.3842C190.179 78.8476 183.555 79.7643 179.902 84.4317C176.249 89.0991 176.95 95.7498 181.469 99.2864C185.987 102.823 192.611 101.906 196.265 97.2388Z" fill="white"/>
<path d="M187.714 102.034C185.128 102.043 182.627 101.113 180.675 99.4168C179.572 98.4627 178.674 97.295 178.036 95.9843C177.397 94.6735 177.03 93.2469 176.958 91.7906C176.621 85.6403 181.322 80.2013 187.438 79.6678C189.238 79.5012 191.051 79.7916 192.709 80.5122C194.367 81.2329 195.816 82.3603 196.923 83.7901C196.965 83.8461 196.984 83.9168 196.975 83.9868C196.966 84.0567 196.929 84.1201 196.873 84.1631C196.817 84.206 196.747 84.225 196.677 84.2158C196.607 84.2066 196.543 84.1699 196.501 84.114C195.448 82.7531 194.069 81.6803 192.491 80.9954C190.913 80.3104 189.188 80.0354 187.475 80.196C181.636 80.7057 177.158 85.8951 177.479 91.7614C177.542 93.1425 177.885 94.4964 178.487 95.741C179.089 96.9857 179.937 98.0952 180.981 99.0023C182.024 99.9094 183.241 100.595 184.557 101.018C185.873 101.441 187.262 101.593 188.638 101.463C191.472 101.19 194.091 99.8365 195.953 97.6829C197.814 95.5292 198.775 92.7412 198.635 89.898C198.633 89.8631 198.638 89.8283 198.65 89.7954C198.662 89.7625 198.68 89.7323 198.703 89.7064C198.726 89.6805 198.755 89.6595 198.786 89.6446C198.818 89.6296 198.852 89.621 198.887 89.6193C198.922 89.6175 198.957 89.6227 198.989 89.6344C199.022 89.6461 199.053 89.6642 199.078 89.6876C199.104 89.7111 199.125 89.7393 199.14 89.7709C199.155 89.8024 199.164 89.8366 199.166 89.8715C199.503 96.0191 194.802 101.458 188.686 101.992C188.373 102.018 188.041 102.034 187.714 102.034Z" fill="#222428"/>
<path d="M187.608 97.192L187.526 95.7268C186.62 95.7843 185.712 95.6355 184.871 95.2915L185.232 93.4334C186.041 93.8006 186.93 93.9576 187.815 93.8899C188.691 93.8129 189.27 93.4228 189.235 92.8043C189.201 92.1858 188.704 91.8911 187.536 91.6045C185.864 91.193 184.702 90.5188 184.617 89.0243C184.542 87.6653 185.437 86.5186 187.059 86.0514L186.979 84.5861L188.481 84.4561L188.556 85.8125C189.321 85.7567 190.089 85.8644 190.809 86.1284L190.459 87.9095C189.748 87.629 188.983 87.5154 188.221 87.5777C187.226 87.6653 186.926 88.1245 186.95 88.5572C186.979 89.0668 187.534 89.3535 188.864 89.7225C190.722 90.2109 191.518 90.9939 191.585 92.3769C191.651 93.7599 190.759 95.0074 189.01 95.4693L189.097 97.0434L187.608 97.192Z" fill="#222428"/>
</g>
<defs>
<clipPath id="clip0">
<rect width="220" height="221.359" fill="white"/>
</clipPath>
</defs>
</svg>
