<svg width="340" height="340" viewBox="0 0 340 340" fill="none" xmlns="http://www.w3.org/2000/svg">
    <g filter="url(#filter0_d)">
        <rect x="10" y="8" width="320" height="320" fill="white"/>
    </g>
    <mask id="mask0" style="mask-type:alpha" maskUnits="userSpaceOnUse" x="10" y="8" width="320" height="320">
        <rect x="10" y="8" width="320" height="320" fill="#C4C4C4"/>
    </mask>
    <g mask="url(#mask0)">
        <g clip-path="url(#clip0)">
            <rect width="320" height="1123" transform="translate(10 -162)" fill="white"/>
            <rect width="320" height="32" transform="translate(10 42)" fill="white"/>
            <rect x="26" y="73" width="304" height="1" fill="black" fill-opacity="0.1"/>
            <path d="M28.8203 58.5469V63H27.3203V51.625H31.5156C32.7604 51.625 33.7344 51.9427 34.4375 52.5781C35.1458 53.2135 35.5 54.0547 35.5 55.1016C35.5 56.2057 35.1536 57.0573 34.4609 57.6562C33.7734 58.25 32.7865 58.5469 31.5 58.5469H28.8203ZM28.8203 57.3203H31.5156C32.3177 57.3203 32.9323 57.1328 33.3594 56.7578C33.7865 56.3776 34 55.8307 34 55.1172C34 54.4401 33.7865 53.8984 33.3594 53.4922C32.9323 53.0859 32.3464 52.875 31.6016 52.8594H28.8203V57.3203ZM36.6953 58.6953C36.6953 57.8672 36.8568 57.1224 37.1797 56.4609C37.5078 55.7995 37.9609 55.2891 38.5391 54.9297C39.1224 54.5703 39.7865 54.3906 40.5312 54.3906C41.6823 54.3906 42.612 54.7891 43.3203 55.5859C44.0339 56.3828 44.3906 57.4427 44.3906 58.7656V58.8672C44.3906 59.6901 44.2318 60.4297 43.9141 61.0859C43.6016 61.737 43.151 62.2448 42.5625 62.6094C41.9792 62.974 41.3073 63.1562 40.5469 63.1562C39.401 63.1562 38.4714 62.7578 37.7578 61.9609C37.0495 61.1641 36.6953 60.1094 36.6953 58.7969V58.6953ZM38.1484 58.8672C38.1484 59.8047 38.3646 60.5573 38.7969 61.125C39.2344 61.6927 39.8177 61.9766 40.5469 61.9766C41.2812 61.9766 41.8646 61.6901 42.2969 61.1172C42.7292 60.5391 42.9453 59.7318 42.9453 58.6953C42.9453 57.7682 42.724 57.0182 42.2812 56.4453C41.8438 55.8672 41.2604 55.5781 40.5312 55.5781C39.8177 55.5781 39.2422 55.862 38.8047 56.4297C38.3672 56.9974 38.1484 57.8099 38.1484 58.8672ZM49.5938 61.9766C50.1094 61.9766 50.5599 61.8203 50.9453 61.5078C51.3307 61.1953 51.5443 60.8047 51.5859 60.3359H52.9531C52.9271 60.8203 52.7604 61.2812 52.4531 61.7188C52.1458 62.1562 51.7344 62.5052 51.2188 62.7656C50.7083 63.026 50.1667 63.1562 49.5938 63.1562C48.4427 63.1562 47.526 62.7734 46.8438 62.0078C46.1667 61.237 45.8281 60.1849 45.8281 58.8516V58.6094C45.8281 57.7865 45.9792 57.0547 46.2812 56.4141C46.5833 55.7734 47.0156 55.276 47.5781 54.9219C48.1458 54.5677 48.8151 54.3906 49.5859 54.3906C50.5339 54.3906 51.3203 54.6745 51.9453 55.2422C52.5755 55.8099 52.9115 56.5469 52.9531 57.4531H51.5859C51.5443 56.9062 51.3359 56.4583 50.9609 56.1094C50.5911 55.7552 50.1328 55.5781 49.5859 55.5781C48.8516 55.5781 48.2812 55.8438 47.875 56.375C47.474 56.901 47.2734 57.6641 47.2734 58.6641V58.9375C47.2734 59.9115 47.474 60.6615 47.875 61.1875C48.276 61.7135 48.849 61.9766 49.5938 61.9766ZM57.9688 61.9766C58.4844 61.9766 58.9349 61.8203 59.3203 61.5078C59.7057 61.1953 59.9193 60.8047 59.9609 60.3359H61.3281C61.3021 60.8203 61.1354 61.2812 60.8281 61.7188C60.5208 62.1562 60.1094 62.5052 59.5938 62.7656C59.0833 63.026 58.5417 63.1562 57.9688 63.1562C56.8177 63.1562 55.901 62.7734 55.2188 62.0078C54.5417 61.237 54.2031 60.1849 54.2031 58.8516V58.6094C54.2031 57.7865 54.3542 57.0547 54.6562 56.4141C54.9583 55.7734 55.3906 55.276 55.9531 54.9219C56.5208 54.5677 57.1901 54.3906 57.9609 54.3906C58.9089 54.3906 59.6953 54.6745 60.3203 55.2422C60.9505 55.8099 61.2865 56.5469 61.3281 57.4531H59.9609C59.9193 56.9062 59.7109 56.4583 59.3359 56.1094C58.9661 55.7552 58.5078 55.5781 57.9609 55.5781C57.2266 55.5781 56.6562 55.8438 56.25 56.375C55.849 56.901 55.6484 57.6641 55.6484 58.6641V58.9375C55.6484 59.9115 55.849 60.6615 56.25 61.1875C56.651 61.7135 57.224 61.9766 57.9688 61.9766ZM68.4219 54.5469H69.8672V63H68.4219V56.8359L64.5234 63H63.0781V54.5469H64.5234V60.7188L68.4219 54.5469ZM78.6484 54.5469V63H77.1953V59.7109H75.0156L73.0234 63H71.4609L73.5859 59.4922C73.0443 59.2943 72.6276 58.9896 72.3359 58.5781C72.0495 58.1615 71.9062 57.6771 71.9062 57.125C71.9062 56.3542 72.1953 55.7344 72.7734 55.2656C73.3516 54.7917 74.125 54.5521 75.0938 54.5469H78.6484ZM73.3594 57.1406C73.3594 57.5521 73.5 57.8854 73.7812 58.1406C74.0625 58.3906 74.4349 58.5182 74.8984 58.5234H77.1953V55.7188H75.1172C74.5807 55.7188 74.1536 55.8516 73.8359 56.1172C73.5182 56.3776 73.3594 56.7188 73.3594 57.1406ZM80.9219 65.2656L80.1016 64.7031C80.5911 64.0208 80.8464 63.3177 80.8672 62.5938V61.2891H82.2812V62.4219C82.2812 62.9479 82.151 63.474 81.8906 64C81.6354 64.526 81.3125 64.9479 80.9219 65.2656ZM90.2422 51.625L93.9609 60.9062L97.6797 51.625H99.625V63H98.125V58.5703L98.2656 53.7891L94.5312 63H93.3828L89.6562 53.8125L89.8047 58.5703V63H88.3047V51.625H90.2422ZM101.664 58.6953C101.664 57.8672 101.826 57.1224 102.148 56.4609C102.477 55.7995 102.93 55.2891 103.508 54.9297C104.091 54.5703 104.755 54.3906 105.5 54.3906C106.651 54.3906 107.581 54.7891 108.289 55.5859C109.003 56.3828 109.359 57.4427 109.359 58.7656V58.8672C109.359 59.6901 109.201 60.4297 108.883 61.0859C108.57 61.737 108.12 62.2448 107.531 62.6094C106.948 62.974 106.276 63.1562 105.516 63.1562C104.37 63.1562 103.44 62.7578 102.727 61.9609C102.018 61.1641 101.664 60.1094 101.664 58.7969V58.6953ZM103.117 58.8672C103.117 59.8047 103.333 60.5573 103.766 61.125C104.203 61.6927 104.786 61.9766 105.516 61.9766C106.25 61.9766 106.833 61.6901 107.266 61.1172C107.698 60.5391 107.914 59.7318 107.914 58.6953C107.914 57.7682 107.693 57.0182 107.25 56.4453C106.812 55.8672 106.229 55.5781 105.5 55.5781C104.786 55.5781 104.211 55.862 103.773 56.4297C103.336 56.9974 103.117 57.8099 103.117 58.8672ZM114.562 61.9766C115.078 61.9766 115.529 61.8203 115.914 61.5078C116.299 61.1953 116.513 60.8047 116.555 60.3359H117.922C117.896 60.8203 117.729 61.2812 117.422 61.7188C117.115 62.1562 116.703 62.5052 116.188 62.7656C115.677 63.026 115.135 63.1562 114.562 63.1562C113.411 63.1562 112.495 62.7734 111.812 62.0078C111.135 61.237 110.797 60.1849 110.797 58.8516V58.6094C110.797 57.7865 110.948 57.0547 111.25 56.4141C111.552 55.7734 111.984 55.276 112.547 54.9219C113.115 54.5677 113.784 54.3906 114.555 54.3906C115.503 54.3906 116.289 54.6745 116.914 55.2422C117.544 55.8099 117.88 56.5469 117.922 57.4531H116.555C116.513 56.9062 116.305 56.4583 115.93 56.1094C115.56 55.7552 115.102 55.5781 114.555 55.5781C113.82 55.5781 113.25 55.8438 112.844 56.375C112.443 56.901 112.242 57.6641 112.242 58.6641V58.9375C112.242 59.9115 112.443 60.6615 112.844 61.1875C113.245 61.7135 113.818 61.9766 114.562 61.9766ZM122.18 59.3984H121.125V63H119.672V54.5469H121.125V58.125H122.07L124.914 54.5469H126.664L123.32 58.6094L126.945 63H125.109L122.18 59.3984ZM128.32 63V54.5469H131.617C132.742 54.5469 133.604 54.7448 134.203 55.1406C134.807 55.5312 135.109 56.1068 135.109 56.8672C135.109 57.2578 134.992 57.612 134.758 57.9297C134.523 58.2422 134.177 58.4818 133.719 58.6484C134.229 58.7682 134.638 59.0026 134.945 59.3516C135.258 59.7005 135.414 60.1172 135.414 60.6016C135.414 61.3776 135.128 61.9714 134.555 62.3828C133.987 62.7943 133.182 63 132.141 63H128.32ZM129.766 59.2891V61.8359H132.156C132.76 61.8359 133.211 61.724 133.508 61.5C133.81 61.276 133.961 60.9609 133.961 60.5547C133.961 59.7109 133.341 59.2891 132.102 59.2891H129.766ZM129.766 58.1328H131.633C132.987 58.1328 133.664 57.737 133.664 56.9453C133.664 56.1536 133.023 55.7448 131.742 55.7188H129.766V58.1328ZM142.547 63C142.464 62.8333 142.396 62.5365 142.344 62.1094C141.672 62.8073 140.87 63.1562 139.938 63.1562C139.104 63.1562 138.419 62.9219 137.883 62.4531C137.352 61.9792 137.086 61.3802 137.086 60.6562C137.086 59.776 137.419 59.0938 138.086 58.6094C138.758 58.1198 139.701 57.875 140.914 57.875H142.32V57.2109C142.32 56.7057 142.169 56.3047 141.867 56.0078C141.565 55.7057 141.12 55.5547 140.531 55.5547C140.016 55.5547 139.583 55.6849 139.234 55.9453C138.885 56.2057 138.711 56.5208 138.711 56.8906H137.258C137.258 56.4688 137.406 56.0625 137.703 55.6719C138.005 55.276 138.411 54.9635 138.922 54.7344C139.438 54.5052 140.003 54.3906 140.617 54.3906C141.591 54.3906 142.354 54.6354 142.906 55.125C143.458 55.6094 143.745 56.2786 143.766 57.1328V61.0234C143.766 61.7995 143.865 62.4167 144.062 62.875V63H142.547ZM140.148 61.8984C140.602 61.8984 141.031 61.7812 141.438 61.5469C141.844 61.3125 142.138 61.0078 142.32 60.6328V58.8984H141.188C139.417 58.8984 138.531 59.4167 138.531 60.4531C138.531 60.9062 138.682 61.2604 138.984 61.5156C139.286 61.7708 139.674 61.8984 140.148 61.8984ZM145.984 65.2656L145.164 64.7031C145.654 64.0208 145.909 63.3177 145.93 62.5938V61.2891H147.344V62.4219C147.344 62.9479 147.214 63.474 146.953 64C146.698 64.526 146.375 64.9479 145.984 65.2656ZM161.375 51.625V59.3594C161.37 60.4323 161.031 61.3099 160.359 61.9922C159.693 62.6745 158.786 63.0573 157.641 63.1406L157.242 63.1562C155.997 63.1562 155.005 62.8203 154.266 62.1484C153.526 61.4766 153.151 60.5521 153.141 59.375V51.625H154.625V59.3281C154.625 60.151 154.852 60.7917 155.305 61.25C155.758 61.7031 156.404 61.9297 157.242 61.9297C158.091 61.9297 158.74 61.7031 159.188 61.25C159.641 60.7969 159.867 60.1589 159.867 59.3359V51.625H161.375ZM171.602 52.8594H167.945V63H166.453V52.8594H162.805V51.625H171.602V52.8594ZM181.438 59.3906C181.297 60.5938 180.852 61.5234 180.102 62.1797C179.357 62.8307 178.365 63.1562 177.125 63.1562C175.781 63.1562 174.703 62.6745 173.891 61.7109C173.083 60.7474 172.68 59.4583 172.68 57.8438V56.75C172.68 55.6927 172.867 54.763 173.242 53.9609C173.622 53.1589 174.159 52.5443 174.852 52.1172C175.544 51.6849 176.346 51.4688 177.258 51.4688C178.466 51.4688 179.435 51.8073 180.164 52.4844C180.893 53.1562 181.318 54.0885 181.438 55.2812H179.93C179.799 54.375 179.516 53.7188 179.078 53.3125C178.646 52.9062 178.039 52.7031 177.258 52.7031C176.299 52.7031 175.547 53.0573 175 53.7656C174.458 54.474 174.188 55.4818 174.188 56.7891V57.8906C174.188 59.125 174.445 60.1068 174.961 60.8359C175.477 61.5651 176.198 61.9297 177.125 61.9297C177.958 61.9297 178.596 61.7422 179.039 61.3672C179.487 60.987 179.784 60.3281 179.93 59.3906H181.438ZM191.375 56.8984H194.547V58.2656H191.375V61.8594H189.922V58.2656H186.75V56.8984H189.922V53.5781H191.375V56.8984ZM203.297 58.1484C203.297 59.8411 203.008 61.099 202.43 61.9219C201.852 62.7448 200.948 63.1562 199.719 63.1562C198.505 63.1562 197.607 62.7552 197.023 61.9531C196.44 61.1458 196.138 59.9427 196.117 58.3438V56.4141C196.117 54.7422 196.406 53.5 196.984 52.6875C197.562 51.875 198.469 51.4688 199.703 51.4688C200.927 51.4688 201.828 51.862 202.406 52.6484C202.984 53.4297 203.281 54.638 203.297 56.2734V58.1484ZM201.852 56.1719C201.852 54.9479 201.68 54.0573 201.336 53.5C200.992 52.9375 200.448 52.6562 199.703 52.6562C198.964 52.6562 198.424 52.9349 198.086 53.4922C197.747 54.0495 197.573 54.9062 197.562 56.0625V58.375C197.562 59.6042 197.74 60.513 198.094 61.1016C198.453 61.6849 198.995 61.9766 199.719 61.9766C200.432 61.9766 200.961 61.7005 201.305 61.1484C201.654 60.5964 201.836 59.7266 201.852 58.5391V56.1719ZM207.25 56.6094H208.336C209.018 56.599 209.555 56.4193 209.945 56.0703C210.336 55.7214 210.531 55.25 210.531 54.6562C210.531 53.3229 209.867 52.6562 208.539 52.6562C207.914 52.6562 207.414 52.8359 207.039 53.1953C206.669 53.5495 206.484 54.0208 206.484 54.6094H205.039C205.039 53.7083 205.367 52.9609 206.023 52.3672C206.685 51.7682 207.523 51.4688 208.539 51.4688C209.612 51.4688 210.453 51.7526 211.062 52.3203C211.672 52.888 211.977 53.6771 211.977 54.6875C211.977 55.1823 211.815 55.6615 211.492 56.125C211.174 56.5885 210.74 56.9349 210.188 57.1641C210.812 57.362 211.294 57.6901 211.633 58.1484C211.977 58.6068 212.148 59.1667 212.148 59.8281C212.148 60.849 211.815 61.6589 211.148 62.2578C210.482 62.8568 209.615 63.1562 208.547 63.1562C207.479 63.1562 206.609 62.8672 205.938 62.2891C205.271 61.7109 204.938 60.9479 204.938 60H206.391C206.391 60.599 206.586 61.0781 206.977 61.4375C207.367 61.7969 207.891 61.9766 208.547 61.9766C209.245 61.9766 209.779 61.7943 210.148 61.4297C210.518 61.0651 210.703 60.5417 210.703 59.8594C210.703 59.1979 210.5 58.6901 210.094 58.3359C209.688 57.9818 209.102 57.7995 208.336 57.7891H207.25V56.6094ZM214.234 62.2422C214.234 61.9922 214.307 61.7839 214.453 61.6172C214.604 61.4505 214.828 61.3672 215.125 61.3672C215.422 61.3672 215.646 61.4505 215.797 61.6172C215.953 61.7839 216.031 61.9922 216.031 62.2422C216.031 62.4818 215.953 62.6823 215.797 62.8438C215.646 63.0052 215.422 63.0859 215.125 63.0859C214.828 63.0859 214.604 63.0052 214.453 62.8438C214.307 62.6823 214.234 62.4818 214.234 62.2422ZM214.242 55.3438C214.242 55.0938 214.315 54.8854 214.461 54.7188C214.612 54.5521 214.836 54.4688 215.133 54.4688C215.43 54.4688 215.654 54.5521 215.805 54.7188C215.961 54.8854 216.039 55.0938 216.039 55.3438C216.039 55.5833 215.961 55.7839 215.805 55.9453C215.654 56.1068 215.43 56.1875 215.133 56.1875C214.836 56.1875 214.612 56.1068 214.461 55.9453C214.315 55.7839 214.242 55.5833 214.242 55.3438ZM225.141 58.1484C225.141 59.8411 224.852 61.099 224.273 61.9219C223.695 62.7448 222.792 63.1562 221.562 63.1562C220.349 63.1562 219.451 62.7552 218.867 61.9531C218.284 61.1458 217.982 59.9427 217.961 58.3438V56.4141C217.961 54.7422 218.25 53.5 218.828 52.6875C219.406 51.875 220.312 51.4688 221.547 51.4688C222.771 51.4688 223.672 51.862 224.25 52.6484C224.828 53.4297 225.125 54.638 225.141 56.2734V58.1484ZM223.695 56.1719C223.695 54.9479 223.523 54.0573 223.18 53.5C222.836 52.9375 222.292 52.6562 221.547 52.6562C220.807 52.6562 220.268 52.9349 219.93 53.4922C219.591 54.0495 219.417 54.9062 219.406 56.0625V58.375C219.406 59.6042 219.583 60.513 219.938 61.1016C220.297 61.6849 220.839 61.9766 221.562 61.9766C222.276 61.9766 222.805 61.7005 223.148 61.1484C223.497 60.5964 223.68 59.7266 223.695 58.5391V56.1719ZM234.125 58.1484C234.125 59.8411 233.836 61.099 233.258 61.9219C232.68 62.7448 231.776 63.1562 230.547 63.1562C229.333 63.1562 228.435 62.7552 227.852 61.9531C227.268 61.1458 226.966 59.9427 226.945 58.3438V56.4141C226.945 54.7422 227.234 53.5 227.812 52.6875C228.391 51.875 229.297 51.4688 230.531 51.4688C231.755 51.4688 232.656 51.862 233.234 52.6484C233.812 53.4297 234.109 54.638 234.125 56.2734V58.1484ZM232.68 56.1719C232.68 54.9479 232.508 54.0573 232.164 53.5C231.82 52.9375 231.276 52.6562 230.531 52.6562C229.792 52.6562 229.253 52.9349 228.914 53.4922C228.576 54.0495 228.401 54.9062 228.391 56.0625V58.375C228.391 59.6042 228.568 60.513 228.922 61.1016C229.281 61.6849 229.823 61.9766 230.547 61.9766C231.26 61.9766 231.789 61.7005 232.133 61.1484C232.482 60.5964 232.664 59.7266 232.68 58.5391V56.1719Z" fill="black"/>
            <path fill-rule="evenodd" clip-rule="evenodd" d="M301.75 54.9375L307 61.0625L312.25 54.9375H301.75Z" fill="#92949C"/>
            <rect width="320" height="24" transform="translate(10 18)" fill="white"/>
            <path d="M33.1719 30.4688V39H32.041V35.4668C31.6309 35.584 31.2578 35.666 30.9219 35.7129C30.5859 35.7559 30.2031 35.7773 29.7734 35.7773C28.8008 35.7773 28.0781 35.5664 27.6055 35.1445C27.1328 34.7227 26.8906 34.0762 26.8789 33.2051V30.4688H28.0098V33.1758C28.0137 33.7695 28.1484 34.1973 28.4141 34.459C28.6836 34.7207 29.1367 34.8516 29.7734 34.8516C30.5156 34.8516 31.2715 34.7461 32.041 34.5352V30.4688H33.1719ZM38.9492 39C38.8867 38.875 38.8359 38.6523 38.7969 38.332C38.293 38.8555 37.6914 39.1172 36.9922 39.1172C36.3672 39.1172 35.8535 38.9414 35.4512 38.5898C35.0527 38.2344 34.8535 37.7852 34.8535 37.2422C34.8535 36.582 35.1035 36.0703 35.6035 35.707C36.1074 35.3398 36.8145 35.1562 37.7246 35.1562H38.7793V34.6582C38.7793 34.2793 38.666 33.9785 38.4395 33.7559C38.2129 33.5293 37.8789 33.416 37.4375 33.416C37.0508 33.416 36.7266 33.5137 36.4648 33.709C36.2031 33.9043 36.0723 34.1406 36.0723 34.418H34.9824C34.9824 34.1016 35.0938 33.7969 35.3164 33.5039C35.543 33.207 35.8477 32.9727 36.2305 32.8008C36.6172 32.6289 37.041 32.543 37.502 32.543C38.2324 32.543 38.8047 32.7266 39.2188 33.0938C39.6328 33.457 39.8477 33.959 39.8633 34.5996V37.5176C39.8633 38.0996 39.9375 38.5625 40.0859 38.9062V39H38.9492ZM37.1504 38.1738C37.4902 38.1738 37.8125 38.0859 38.1172 37.9102C38.4219 37.7344 38.6426 37.5059 38.7793 37.2246V35.9238H37.9297C36.6016 35.9238 35.9375 36.3125 35.9375 37.0898C35.9375 37.4297 36.0508 37.6953 36.2773 37.8867C36.5039 38.0781 36.7949 38.1738 37.1504 38.1738ZM44.1055 38.2324C44.4922 38.2324 44.8301 38.1152 45.1191 37.8809C45.4082 37.6465 45.5684 37.3535 45.5996 37.002H46.625C46.6055 37.3652 46.4805 37.7109 46.25 38.0391C46.0195 38.3672 45.7109 38.6289 45.3242 38.8242C44.9414 39.0195 44.5352 39.1172 44.1055 39.1172C43.2422 39.1172 42.5547 38.8301 42.043 38.2559C41.5352 37.6777 41.2812 36.8887 41.2812 35.8887V35.707C41.2812 35.0898 41.3945 34.541 41.6211 34.0605C41.8477 33.5801 42.1719 33.207 42.5938 32.9414C43.0195 32.6758 43.5215 32.543 44.0996 32.543C44.8105 32.543 45.4004 32.7559 45.8691 33.1816C46.3418 33.6074 46.5938 34.1602 46.625 34.8398H45.5996C45.5684 34.4297 45.4121 34.0938 45.1309 33.832C44.8535 33.5664 44.5098 33.4336 44.0996 33.4336C43.5488 33.4336 43.1211 33.6328 42.8164 34.0312C42.5156 34.4258 42.3652 34.998 42.3652 35.748V35.9531C42.3652 36.6836 42.5156 37.2461 42.8164 37.6406C43.1172 38.0352 43.5469 38.2324 44.1055 38.2324ZM47.5566 35.7715C47.5566 35.1504 47.6777 34.5918 47.9199 34.0957C48.166 33.5996 48.5059 33.2168 48.9395 32.9473C49.377 32.6777 49.875 32.543 50.4336 32.543C51.2969 32.543 51.9941 32.8418 52.5254 33.4395C53.0605 34.0371 53.3281 34.832 53.3281 35.8242V35.9004C53.3281 36.5176 53.209 37.0723 52.9707 37.5645C52.7363 38.0527 52.3984 38.4336 51.957 38.707C51.5195 38.9805 51.0156 39.1172 50.4453 39.1172C49.5859 39.1172 48.8887 38.8184 48.3535 38.2207C47.8223 37.623 47.5566 36.832 47.5566 35.8477V35.7715ZM48.6465 35.9004C48.6465 36.6035 48.8086 37.168 49.1328 37.5938C49.4609 38.0195 49.8984 38.2324 50.4453 38.2324C50.9961 38.2324 51.4336 38.0176 51.7578 37.5879C52.082 37.1543 52.2441 36.5488 52.2441 35.7715C52.2441 35.0762 52.0781 34.5137 51.7461 34.084C51.418 33.6504 50.9805 33.4336 50.4336 33.4336C49.8984 33.4336 49.4668 33.6465 49.1387 34.0723C48.8105 34.498 48.6465 35.1074 48.6465 35.9004ZM54.7871 39V32.6602H57.2598C58.1035 32.6602 58.75 32.8086 59.1992 33.1055C59.6523 33.3984 59.8789 33.8301 59.8789 34.4004C59.8789 34.6934 59.791 34.959 59.6152 35.1973C59.4395 35.4316 59.1797 35.6113 58.8359 35.7363C59.2188 35.8262 59.5254 36.002 59.7559 36.2637C59.9902 36.5254 60.1074 36.8379 60.1074 37.2012C60.1074 37.7832 59.8926 38.2285 59.4629 38.5371C59.0371 38.8457 58.4336 39 57.6523 39H54.7871ZM55.8711 36.2168V38.127H57.6641C58.1172 38.127 58.4551 38.043 58.6777 37.875C58.9043 37.707 59.0176 37.4707 59.0176 37.166C59.0176 36.5332 58.5527 36.2168 57.623 36.2168H55.8711ZM55.8711 35.3496H57.2715C58.2871 35.3496 58.7949 35.0527 58.7949 34.459C58.7949 33.8652 58.3145 33.5586 57.3535 33.5391H55.8711V35.3496ZM61.2559 35.7715C61.2559 35.1504 61.377 34.5918 61.6191 34.0957C61.8652 33.5996 62.2051 33.2168 62.6387 32.9473C63.0762 32.6777 63.5742 32.543 64.1328 32.543C64.9961 32.543 65.6934 32.8418 66.2246 33.4395C66.7598 34.0371 67.0273 34.832 67.0273 35.8242V35.9004C67.0273 36.5176 66.9082 37.0723 66.6699 37.5645C66.4355 38.0527 66.0977 38.4336 65.6562 38.707C65.2188 38.9805 64.7148 39.1172 64.1445 39.1172C63.2852 39.1172 62.5879 38.8184 62.0527 38.2207C61.5215 37.623 61.2559 36.832 61.2559 35.8477V35.7715ZM62.3457 35.9004C62.3457 36.6035 62.5078 37.168 62.832 37.5938C63.1602 38.0195 63.5977 38.2324 64.1445 38.2324C64.6953 38.2324 65.1328 38.0176 65.457 37.5879C65.7812 37.1543 65.9434 36.5488 65.9434 35.7715C65.9434 35.0762 65.7773 34.5137 65.4453 34.084C65.1172 33.6504 64.6797 33.4336 64.1328 33.4336C63.5977 33.4336 63.166 33.6465 62.8379 34.0723C62.5098 34.498 62.3457 35.1074 62.3457 35.9004ZM72.4883 32.6602H73.5723V39H72.4883V34.377L69.5645 39H68.4805V32.6602H69.5645V37.2891L72.4883 32.6602ZM72.7812 30.3516C72.7812 30.8242 72.6191 31.2051 72.2949 31.4941C71.9746 31.7793 71.5527 31.9219 71.0293 31.9219C70.5059 31.9219 70.082 31.7773 69.7578 31.4883C69.4336 31.1992 69.2715 30.8203 69.2715 30.3516H70.1562C70.1562 30.625 70.2305 30.8398 70.3789 30.9961C70.5273 31.1484 70.7441 31.2246 71.0293 31.2246C71.3027 31.2246 71.5156 31.1484 71.668 30.9961C71.8242 30.8438 71.9023 30.6289 71.9023 30.3516H72.7812ZM83.4746 39H82.3906V33.5566H79.4727V39H78.3828V32.6602H83.4746V39ZM84.9277 35.7715C84.9277 35.1504 85.0488 34.5918 85.291 34.0957C85.5371 33.5996 85.877 33.2168 86.3105 32.9473C86.748 32.6777 87.2461 32.543 87.8047 32.543C88.668 32.543 89.3652 32.8418 89.8965 33.4395C90.4316 34.0371 90.6992 34.832 90.6992 35.8242V35.9004C90.6992 36.5176 90.5801 37.0723 90.3418 37.5645C90.1074 38.0527 89.7695 38.4336 89.3281 38.707C88.8906 38.9805 88.3867 39.1172 87.8164 39.1172C86.957 39.1172 86.2598 38.8184 85.7246 38.2207C85.1934 37.623 84.9277 36.832 84.9277 35.8477V35.7715ZM86.0176 35.9004C86.0176 36.6035 86.1797 37.168 86.5039 37.5938C86.832 38.0195 87.2695 38.2324 87.8164 38.2324C88.3672 38.2324 88.8047 38.0176 89.1289 37.5879C89.4531 37.1543 89.6152 36.5488 89.6152 35.7715C89.6152 35.0762 89.4492 34.5137 89.1172 34.084C88.7891 33.6504 88.3516 33.4336 87.8047 33.4336C87.2695 33.4336 86.8379 33.6465 86.5098 34.0723C86.1816 34.498 86.0176 35.1074 86.0176 35.9004ZM96.9043 32.6602V39H95.8145V36.5332H94.1797L92.6855 39H91.5137L93.1074 36.3691C92.7012 36.2207 92.3887 35.9922 92.1699 35.6836C91.9551 35.3711 91.8477 35.0078 91.8477 34.5938C91.8477 34.0156 92.0645 33.5508 92.498 33.1992C92.9316 32.8438 93.5117 32.6641 94.2383 32.6602H96.9043ZM92.9375 34.6055C92.9375 34.9141 93.043 35.1641 93.2539 35.3555C93.4648 35.543 93.7441 35.6387 94.0918 35.6426H95.8145V33.5391H94.2559C93.8535 33.5391 93.5332 33.6387 93.2949 33.8379C93.0566 34.0332 92.9375 34.2891 92.9375 34.6055ZM101.188 38.2324C101.574 38.2324 101.912 38.1152 102.201 37.8809C102.49 37.6465 102.65 37.3535 102.682 37.002H103.707C103.688 37.3652 103.562 37.7109 103.332 38.0391C103.102 38.3672 102.793 38.6289 102.406 38.8242C102.023 39.0195 101.617 39.1172 101.188 39.1172C100.324 39.1172 99.6367 38.8301 99.125 38.2559C98.6172 37.6777 98.3633 36.8887 98.3633 35.8887V35.707C98.3633 35.0898 98.4766 34.541 98.7031 34.0605C98.9297 33.5801 99.2539 33.207 99.6758 32.9414C100.102 32.6758 100.604 32.543 101.182 32.543C101.893 32.543 102.482 32.7559 102.951 33.1816C103.424 33.6074 103.676 34.1602 103.707 34.8398H102.682C102.65 34.4297 102.494 34.0938 102.213 33.832C101.936 33.5664 101.592 33.4336 101.182 33.4336C100.631 33.4336 100.203 33.6328 99.8984 34.0312C99.5977 34.4258 99.4473 34.998 99.4473 35.748V35.9531C99.4473 36.6836 99.5977 37.2461 99.8984 37.6406C100.199 38.0352 100.629 38.2324 101.188 38.2324Z" fill="#92949C"/>
            <rect x="22" y="136" width="68" height="40" rx="4" fill="#92949C" fill-opacity="0.1"/>
            <path d="M48.1738 156.625C47.9095 156.939 47.5928 157.192 47.2236 157.384C46.859 157.575 46.458 157.671 46.0205 157.671C45.4463 157.671 44.945 157.53 44.5166 157.247C44.0928 156.965 43.7646 156.568 43.5322 156.058C43.2998 155.543 43.1836 154.975 43.1836 154.355C43.1836 153.69 43.3089 153.091 43.5596 152.558C43.8148 152.024 44.1748 151.617 44.6396 151.334C45.1045 151.051 45.6468 150.91 46.2666 150.91C47.251 150.91 48.0257 151.279 48.5908 152.018C49.1605 152.751 49.4453 153.754 49.4453 155.025V155.395C49.4453 157.331 49.0625 158.746 48.2969 159.64C47.5312 160.528 46.376 160.984 44.8311 161.007H44.585V159.94H44.8516C45.8952 159.922 46.6973 159.651 47.2578 159.127C47.8184 158.598 48.1237 157.764 48.1738 156.625ZM46.2256 156.625C46.6494 156.625 47.0391 156.495 47.3945 156.235C47.7546 155.976 48.0166 155.654 48.1807 155.271V154.766C48.1807 153.936 48.0007 153.262 47.6406 152.742C47.2806 152.223 46.8249 151.963 46.2734 151.963C45.7174 151.963 45.2708 152.177 44.9336 152.605C44.5964 153.029 44.4277 153.59 44.4277 154.287C44.4277 154.966 44.5895 155.527 44.9131 155.969C45.2412 156.406 45.6787 156.625 46.2256 156.625ZM51.2773 160.337C51.2773 160.118 51.3411 159.936 51.4688 159.79C51.6009 159.644 51.7969 159.571 52.0566 159.571C52.3164 159.571 52.5124 159.644 52.6445 159.79C52.7812 159.936 52.8496 160.118 52.8496 160.337C52.8496 160.547 52.7812 160.722 52.6445 160.863C52.5124 161.005 52.3164 161.075 52.0566 161.075C51.7969 161.075 51.6009 161.005 51.4688 160.863C51.3411 160.722 51.2773 160.547 51.2773 160.337ZM51.2842 154.301C51.2842 154.082 51.348 153.9 51.4756 153.754C51.6077 153.608 51.8037 153.535 52.0635 153.535C52.3232 153.535 52.5192 153.608 52.6514 153.754C52.7881 153.9 52.8564 154.082 52.8564 154.301C52.8564 154.51 52.7881 154.686 52.6514 154.827C52.5192 154.968 52.3232 155.039 52.0635 155.039C51.8037 155.039 51.6077 154.968 51.4756 154.827C51.348 154.686 51.2842 154.51 51.2842 154.301ZM60.8203 156.755C60.8203 158.236 60.5674 159.337 60.0615 160.057C59.5557 160.777 58.765 161.137 57.6895 161.137C56.6276 161.137 55.8415 160.786 55.3311 160.084C54.8206 159.378 54.5563 158.325 54.5381 156.926V155.237C54.5381 153.774 54.791 152.688 55.2969 151.977C55.8027 151.266 56.5957 150.91 57.6758 150.91C58.7467 150.91 59.5352 151.254 60.041 151.942C60.5469 152.626 60.8066 153.683 60.8203 155.114V156.755ZM59.5557 155.025C59.5557 153.954 59.4053 153.175 59.1045 152.688C58.8037 152.195 58.3275 151.949 57.6758 151.949C57.0286 151.949 56.557 152.193 56.2607 152.681C55.9645 153.168 55.8118 153.918 55.8027 154.93V156.953C55.8027 158.029 55.9577 158.824 56.2676 159.339C56.582 159.849 57.056 160.104 57.6895 160.104C58.3138 160.104 58.7764 159.863 59.0771 159.38C59.3825 158.897 59.542 158.136 59.5557 157.097V155.025ZM68.6816 156.755C68.6816 158.236 68.4287 159.337 67.9229 160.057C67.417 160.777 66.6263 161.137 65.5508 161.137C64.4889 161.137 63.7028 160.786 63.1924 160.084C62.682 159.378 62.4176 158.325 62.3994 156.926V155.237C62.3994 153.774 62.6523 152.688 63.1582 151.977C63.6641 151.266 64.457 150.91 65.5371 150.91C66.6081 150.91 67.3965 151.254 67.9023 151.942C68.4082 152.626 68.668 153.683 68.6816 155.114V156.755ZM67.417 155.025C67.417 153.954 67.2666 153.175 66.9658 152.688C66.665 152.195 66.1888 151.949 65.5371 151.949C64.89 151.949 64.4183 152.193 64.1221 152.681C63.8258 153.168 63.6732 153.918 63.6641 154.93V156.953C63.6641 158.029 63.819 158.824 64.1289 159.339C64.4434 159.849 64.9173 160.104 65.5508 160.104C66.1751 160.104 66.6377 159.863 66.9385 159.38C67.2438 158.897 67.4033 158.136 67.417 157.097V155.025Z" fill="black" fill-opacity="0.25"/>
            <rect x="22.5" y="136.5" width="67" height="39" rx="3.5" stroke="#222428" stroke-opacity="0.1"/>
            <rect x="98" y="136" width="68" height="40" rx="4" fill="#92949C" fill-opacity="0.1"/>
            <path d="M124.174 156.625C123.91 156.939 123.593 157.192 123.224 157.384C122.859 157.575 122.458 157.671 122.021 157.671C121.446 157.671 120.945 157.53 120.517 157.247C120.093 156.965 119.765 156.568 119.532 156.058C119.3 155.543 119.184 154.975 119.184 154.355C119.184 153.69 119.309 153.091 119.56 152.558C119.815 152.024 120.175 151.617 120.64 151.334C121.104 151.051 121.647 150.91 122.267 150.91C123.251 150.91 124.026 151.279 124.591 152.018C125.16 152.751 125.445 153.754 125.445 155.025V155.395C125.445 157.331 125.062 158.746 124.297 159.64C123.531 160.528 122.376 160.984 120.831 161.007H120.585V159.94H120.852C121.895 159.922 122.697 159.651 123.258 159.127C123.818 158.598 124.124 157.764 124.174 156.625ZM122.226 156.625C122.649 156.625 123.039 156.495 123.395 156.235C123.755 155.976 124.017 155.654 124.181 155.271V154.766C124.181 153.936 124.001 153.262 123.641 152.742C123.281 152.223 122.825 151.963 122.273 151.963C121.717 151.963 121.271 152.177 120.934 152.605C120.596 153.029 120.428 153.59 120.428 154.287C120.428 154.966 120.59 155.527 120.913 155.969C121.241 156.406 121.679 156.625 122.226 156.625ZM127.277 160.337C127.277 160.118 127.341 159.936 127.469 159.79C127.601 159.644 127.797 159.571 128.057 159.571C128.316 159.571 128.512 159.644 128.645 159.79C128.781 159.936 128.85 160.118 128.85 160.337C128.85 160.547 128.781 160.722 128.645 160.863C128.512 161.005 128.316 161.075 128.057 161.075C127.797 161.075 127.601 161.005 127.469 160.863C127.341 160.722 127.277 160.547 127.277 160.337ZM127.284 154.301C127.284 154.082 127.348 153.9 127.476 153.754C127.608 153.608 127.804 153.535 128.063 153.535C128.323 153.535 128.519 153.608 128.651 153.754C128.788 153.9 128.856 154.082 128.856 154.301C128.856 154.51 128.788 154.686 128.651 154.827C128.519 154.968 128.323 155.039 128.063 155.039C127.804 155.039 127.608 154.968 127.476 154.827C127.348 154.686 127.284 154.51 127.284 154.301ZM134.735 161H133.464V152.571L130.914 153.508V152.359L134.537 150.999H134.735V161ZM139.021 156.01L139.527 151.047H144.627V152.216H140.601L140.3 154.93C140.787 154.643 141.341 154.499 141.961 154.499C142.868 154.499 143.588 154.8 144.121 155.401C144.654 155.998 144.921 156.807 144.921 157.828C144.921 158.854 144.643 159.662 144.087 160.255C143.535 160.843 142.763 161.137 141.77 161.137C140.89 161.137 140.172 160.893 139.616 160.405C139.06 159.918 138.743 159.243 138.666 158.382H139.862C139.94 158.951 140.143 159.382 140.471 159.674C140.799 159.961 141.232 160.104 141.77 160.104C142.357 160.104 142.818 159.904 143.15 159.503C143.488 159.102 143.656 158.548 143.656 157.842C143.656 157.176 143.474 156.643 143.109 156.242C142.749 155.837 142.269 155.634 141.667 155.634C141.116 155.634 140.683 155.755 140.368 155.996L140.033 156.27L139.021 156.01Z" fill="black" fill-opacity="0.25"/>
            <rect x="98.5" y="136.5" width="67" height="39" rx="3.5" stroke="#8D8D8D" stroke-opacity="0.2"/>
            <rect x="174.5" y="136.5" width="67" height="39" rx="3.5" fill="#3880FF"/>
            <path d="M200.174 156.625C199.91 156.939 199.593 157.192 199.224 157.384C198.859 157.575 198.458 157.671 198.021 157.671C197.446 157.671 196.945 157.53 196.517 157.247C196.093 156.965 195.765 156.568 195.532 156.058C195.3 155.543 195.184 154.975 195.184 154.355C195.184 153.69 195.309 153.091 195.56 152.558C195.815 152.024 196.175 151.617 196.64 151.334C197.104 151.051 197.647 150.91 198.267 150.91C199.251 150.91 200.026 151.279 200.591 152.018C201.16 152.751 201.445 153.754 201.445 155.025V155.395C201.445 157.331 201.062 158.746 200.297 159.64C199.531 160.528 198.376 160.984 196.831 161.007H196.585V159.94H196.852C197.895 159.922 198.697 159.651 199.258 159.127C199.818 158.598 200.124 157.764 200.174 156.625ZM198.226 156.625C198.649 156.625 199.039 156.495 199.395 156.235C199.755 155.976 200.017 155.654 200.181 155.271V154.766C200.181 153.936 200.001 153.262 199.641 152.742C199.281 152.223 198.825 151.963 198.273 151.963C197.717 151.963 197.271 152.177 196.934 152.605C196.596 153.029 196.428 153.59 196.428 154.287C196.428 154.966 196.59 155.527 196.913 155.969C197.241 156.406 197.679 156.625 198.226 156.625ZM203.277 160.337C203.277 160.118 203.341 159.936 203.469 159.79C203.601 159.644 203.797 159.571 204.057 159.571C204.316 159.571 204.512 159.644 204.645 159.79C204.781 159.936 204.85 160.118 204.85 160.337C204.85 160.547 204.781 160.722 204.645 160.863C204.512 161.005 204.316 161.075 204.057 161.075C203.797 161.075 203.601 161.005 203.469 160.863C203.341 160.722 203.277 160.547 203.277 160.337ZM203.284 154.301C203.284 154.082 203.348 153.9 203.476 153.754C203.608 153.608 203.804 153.535 204.063 153.535C204.323 153.535 204.519 153.608 204.651 153.754C204.788 153.9 204.856 154.082 204.856 154.301C204.856 154.51 204.788 154.686 204.651 154.827C204.519 154.968 204.323 155.039 204.063 155.039C203.804 155.039 203.608 154.968 203.476 154.827C203.348 154.686 203.284 154.51 203.284 154.301ZM208.418 155.408H209.368C209.965 155.399 210.435 155.242 210.776 154.937C211.118 154.631 211.289 154.219 211.289 153.699C211.289 152.533 210.708 151.949 209.546 151.949C208.999 151.949 208.562 152.106 208.233 152.421C207.91 152.731 207.748 153.143 207.748 153.658H206.483C206.483 152.87 206.771 152.216 207.345 151.696C207.924 151.172 208.657 150.91 209.546 150.91C210.485 150.91 211.221 151.159 211.754 151.655C212.287 152.152 212.554 152.842 212.554 153.727C212.554 154.16 212.412 154.579 212.13 154.984C211.852 155.39 211.471 155.693 210.988 155.894C211.535 156.067 211.957 156.354 212.253 156.755C212.554 157.156 212.704 157.646 212.704 158.225C212.704 159.118 212.412 159.826 211.829 160.351C211.246 160.875 210.487 161.137 209.553 161.137C208.618 161.137 207.857 160.884 207.27 160.378C206.686 159.872 206.395 159.204 206.395 158.375H207.666C207.666 158.899 207.837 159.318 208.179 159.633C208.521 159.947 208.979 160.104 209.553 160.104C210.163 160.104 210.631 159.945 210.954 159.626C211.278 159.307 211.439 158.849 211.439 158.252C211.439 157.673 211.262 157.229 210.906 156.919C210.551 156.609 210.038 156.45 209.368 156.44H208.418V155.408ZM220.682 156.755C220.682 158.236 220.429 159.337 219.923 160.057C219.417 160.777 218.626 161.137 217.551 161.137C216.489 161.137 215.703 160.786 215.192 160.084C214.682 159.378 214.418 158.325 214.399 156.926V155.237C214.399 153.774 214.652 152.688 215.158 151.977C215.664 151.266 216.457 150.91 217.537 150.91C218.608 150.91 219.396 151.254 219.902 151.942C220.408 152.626 220.668 153.683 220.682 155.114V156.755ZM219.417 155.025C219.417 153.954 219.267 153.175 218.966 152.688C218.665 152.195 218.189 151.949 217.537 151.949C216.89 151.949 216.418 152.193 216.122 152.681C215.826 153.168 215.673 153.918 215.664 154.93V156.953C215.664 158.029 215.819 158.824 216.129 159.339C216.443 159.849 216.917 160.104 217.551 160.104C218.175 160.104 218.638 159.863 218.938 159.38C219.244 158.897 219.403 158.136 219.417 157.097V155.025Z" fill="white"/>
            <rect x="174.5" y="136.5" width="67" height="39" rx="3.5" stroke="#3880FF"/>
            <path d="M276.174 156.625C275.91 156.939 275.593 157.192 275.224 157.384C274.859 157.575 274.458 157.671 274.021 157.671C273.446 157.671 272.945 157.53 272.517 157.247C272.093 156.965 271.765 156.568 271.532 156.058C271.3 155.543 271.184 154.975 271.184 154.355C271.184 153.69 271.309 153.091 271.56 152.558C271.815 152.024 272.175 151.617 272.64 151.334C273.104 151.051 273.647 150.91 274.267 150.91C275.251 150.91 276.026 151.279 276.591 152.018C277.16 152.751 277.445 153.754 277.445 155.025V155.395C277.445 157.331 277.062 158.746 276.297 159.64C275.531 160.528 274.376 160.984 272.831 161.007H272.585V159.94H272.852C273.895 159.922 274.697 159.651 275.258 159.127C275.818 158.598 276.124 157.764 276.174 156.625ZM274.226 156.625C274.649 156.625 275.039 156.495 275.395 156.235C275.755 155.976 276.017 155.654 276.181 155.271V154.766C276.181 153.936 276.001 153.262 275.641 152.742C275.281 152.223 274.825 151.963 274.273 151.963C273.717 151.963 273.271 152.177 272.934 152.605C272.596 153.029 272.428 153.59 272.428 154.287C272.428 154.966 272.59 155.527 272.913 155.969C273.241 156.406 273.679 156.625 274.226 156.625ZM279.277 160.337C279.277 160.118 279.341 159.936 279.469 159.79C279.601 159.644 279.797 159.571 280.057 159.571C280.316 159.571 280.512 159.644 280.645 159.79C280.781 159.936 280.85 160.118 280.85 160.337C280.85 160.547 280.781 160.722 280.645 160.863C280.512 161.005 280.316 161.075 280.057 161.075C279.797 161.075 279.601 161.005 279.469 160.863C279.341 160.722 279.277 160.547 279.277 160.337ZM279.284 154.301C279.284 154.082 279.348 153.9 279.476 153.754C279.608 153.608 279.804 153.535 280.063 153.535C280.323 153.535 280.519 153.608 280.651 153.754C280.788 153.9 280.856 154.082 280.856 154.301C280.856 154.51 280.788 154.686 280.651 154.827C280.519 154.968 280.323 155.039 280.063 155.039C279.804 155.039 279.608 154.968 279.476 154.827C279.348 154.686 279.284 154.51 279.284 154.301ZM287.918 157.657H289.299V158.689H287.918V161H286.646V158.689H282.114V157.944L286.571 151.047H287.918V157.657ZM283.55 157.657H286.646V152.776L286.496 153.05L283.55 157.657ZM291.021 156.01L291.527 151.047H296.627V152.216H292.601L292.3 154.93C292.787 154.643 293.341 154.499 293.961 154.499C294.868 154.499 295.588 154.8 296.121 155.401C296.654 155.998 296.921 156.807 296.921 157.828C296.921 158.854 296.643 159.662 296.087 160.255C295.535 160.843 294.763 161.137 293.77 161.137C292.89 161.137 292.172 160.893 291.616 160.405C291.06 159.918 290.743 159.243 290.666 158.382H291.862C291.94 158.951 292.143 159.382 292.471 159.674C292.799 159.961 293.232 160.104 293.77 160.104C294.357 160.104 294.818 159.904 295.15 159.503C295.488 159.102 295.656 158.548 295.656 157.842C295.656 157.176 295.474 156.643 295.109 156.242C294.749 155.837 294.269 155.634 293.667 155.634C293.116 155.634 292.683 155.755 292.368 155.996L292.033 156.27L291.021 156.01Z" fill="#222428"/>
            <rect x="250.5" y="136.5" width="67" height="39" rx="3.5" stroke="#8D8D8D" stroke-opacity="0.2"/>
            <rect x="22" y="184" width="68" height="40" rx="4" fill="#92949C" fill-opacity="0.1"/>
            <path d="M43.4834 209H42.2119V200.571L39.6621 201.508V200.359L43.2852 198.999H43.4834V209ZM53.4297 204.755C53.4297 206.236 53.1768 207.337 52.6709 208.057C52.165 208.777 51.3743 209.137 50.2988 209.137C49.237 209.137 48.4508 208.786 47.9404 208.084C47.43 207.378 47.1657 206.325 47.1475 204.926V203.237C47.1475 201.774 47.4004 200.688 47.9062 199.977C48.4121 199.266 49.2051 198.91 50.2852 198.91C51.3561 198.91 52.1445 199.254 52.6504 199.942C53.1562 200.626 53.416 201.683 53.4297 203.114V204.755ZM52.165 203.025C52.165 201.954 52.0146 201.175 51.7139 200.688C51.4131 200.195 50.9368 199.949 50.2852 199.949C49.638 199.949 49.1663 200.193 48.8701 200.681C48.5739 201.168 48.4212 201.918 48.4121 202.93V204.953C48.4121 206.029 48.5671 206.824 48.877 207.339C49.1914 207.849 49.6654 208.104 50.2988 208.104C50.9232 208.104 51.3857 207.863 51.6865 207.38C51.9919 206.897 52.1514 206.136 52.165 205.097V203.025ZM55.1387 208.337C55.1387 208.118 55.2025 207.936 55.3301 207.79C55.4622 207.644 55.6582 207.571 55.918 207.571C56.1777 207.571 56.3737 207.644 56.5059 207.79C56.6426 207.936 56.7109 208.118 56.7109 208.337C56.7109 208.547 56.6426 208.722 56.5059 208.863C56.3737 209.005 56.1777 209.075 55.918 209.075C55.6582 209.075 55.4622 209.005 55.3301 208.863C55.2025 208.722 55.1387 208.547 55.1387 208.337ZM55.1455 202.301C55.1455 202.082 55.2093 201.9 55.3369 201.754C55.4691 201.608 55.665 201.535 55.9248 201.535C56.1846 201.535 56.3805 201.608 56.5127 201.754C56.6494 201.9 56.7178 202.082 56.7178 202.301C56.7178 202.51 56.6494 202.686 56.5127 202.827C56.3805 202.968 56.1846 203.039 55.9248 203.039C55.665 203.039 55.4691 202.968 55.3369 202.827C55.2093 202.686 55.1455 202.51 55.1455 202.301ZM64.6816 204.755C64.6816 206.236 64.4287 207.337 63.9229 208.057C63.417 208.777 62.6263 209.137 61.5508 209.137C60.4889 209.137 59.7028 208.786 59.1924 208.084C58.682 207.378 58.4176 206.325 58.3994 204.926V203.237C58.3994 201.774 58.6523 200.688 59.1582 199.977C59.6641 199.266 60.457 198.91 61.5371 198.91C62.6081 198.91 63.3965 199.254 63.9023 199.942C64.4082 200.626 64.668 201.683 64.6816 203.114V204.755ZM63.417 203.025C63.417 201.954 63.2666 201.175 62.9658 200.688C62.665 200.195 62.1888 199.949 61.5371 199.949C60.89 199.949 60.4183 200.193 60.1221 200.681C59.8258 201.168 59.6732 201.918 59.6641 202.93V204.953C59.6641 206.029 59.819 206.824 60.1289 207.339C60.4434 207.849 60.9173 208.104 61.5508 208.104C62.1751 208.104 62.6377 207.863 62.9385 207.38C63.2438 206.897 63.4033 206.136 63.417 205.097V203.025ZM72.543 204.755C72.543 206.236 72.29 207.337 71.7842 208.057C71.2783 208.777 70.4876 209.137 69.4121 209.137C68.3503 209.137 67.5641 208.786 67.0537 208.084C66.5433 207.378 66.279 206.325 66.2607 204.926V203.237C66.2607 201.774 66.5137 200.688 67.0195 199.977C67.5254 199.266 68.3184 198.91 69.3984 198.91C70.4694 198.91 71.2578 199.254 71.7637 199.942C72.2695 200.626 72.5293 201.683 72.543 203.114V204.755ZM71.2783 203.025C71.2783 201.954 71.1279 201.175 70.8271 200.688C70.5264 200.195 70.0501 199.949 69.3984 199.949C68.7513 199.949 68.2796 200.193 67.9834 200.681C67.6872 201.168 67.5345 201.918 67.5254 202.93V204.953C67.5254 206.029 67.6803 206.824 67.9902 207.339C68.3047 207.849 68.7786 208.104 69.4121 208.104C70.0365 208.104 70.499 207.863 70.7998 207.38C71.1051 206.897 71.2646 206.136 71.2783 205.097V203.025Z" fill="black" fill-opacity="0.25"/>
            <rect x="22.5" y="184.5" width="67" height="39" rx="3.5" stroke="#222428" stroke-opacity="0.1"/>
            <rect x="98" y="184" width="68" height="40" rx="4" fill="#92949C" fill-opacity="0.1"/>
            <path d="M119.483 209H118.212V200.571L115.662 201.508V200.359L119.285 198.999H119.483V209ZM129.43 204.755C129.43 206.236 129.177 207.337 128.671 208.057C128.165 208.777 127.374 209.137 126.299 209.137C125.237 209.137 124.451 208.786 123.94 208.084C123.43 207.378 123.166 206.325 123.147 204.926V203.237C123.147 201.774 123.4 200.688 123.906 199.977C124.412 199.266 125.205 198.91 126.285 198.91C127.356 198.91 128.145 199.254 128.65 199.942C129.156 200.626 129.416 201.683 129.43 203.114V204.755ZM128.165 203.025C128.165 201.954 128.015 201.175 127.714 200.688C127.413 200.195 126.937 199.949 126.285 199.949C125.638 199.949 125.166 200.193 124.87 200.681C124.574 201.168 124.421 201.918 124.412 202.93V204.953C124.412 206.029 124.567 206.824 124.877 207.339C125.191 207.849 125.665 208.104 126.299 208.104C126.923 208.104 127.386 207.863 127.687 207.38C127.992 206.897 128.151 206.136 128.165 205.097V203.025ZM131.139 208.337C131.139 208.118 131.202 207.936 131.33 207.79C131.462 207.644 131.658 207.571 131.918 207.571C132.178 207.571 132.374 207.644 132.506 207.79C132.643 207.936 132.711 208.118 132.711 208.337C132.711 208.547 132.643 208.722 132.506 208.863C132.374 209.005 132.178 209.075 131.918 209.075C131.658 209.075 131.462 209.005 131.33 208.863C131.202 208.722 131.139 208.547 131.139 208.337ZM131.146 202.301C131.146 202.082 131.209 201.9 131.337 201.754C131.469 201.608 131.665 201.535 131.925 201.535C132.185 201.535 132.381 201.608 132.513 201.754C132.649 201.9 132.718 202.082 132.718 202.301C132.718 202.51 132.649 202.686 132.513 202.827C132.381 202.968 132.185 203.039 131.925 203.039C131.665 203.039 131.469 202.968 131.337 202.827C131.209 202.686 131.146 202.51 131.146 202.301ZM138.597 209H137.325V200.571L134.775 201.508V200.359L138.398 198.999H138.597V209ZM142.883 204.01L143.389 199.047H148.488V200.216H144.462L144.161 202.93C144.649 202.643 145.202 202.499 145.822 202.499C146.729 202.499 147.449 202.8 147.982 203.401C148.516 203.998 148.782 204.807 148.782 205.828C148.782 206.854 148.504 207.662 147.948 208.255C147.397 208.843 146.624 209.137 145.631 209.137C144.751 209.137 144.034 208.893 143.478 208.405C142.922 207.918 142.605 207.243 142.527 206.382H143.724C143.801 206.951 144.004 207.382 144.332 207.674C144.66 207.961 145.093 208.104 145.631 208.104C146.219 208.104 146.679 207.904 147.012 207.503C147.349 207.102 147.518 206.548 147.518 205.842C147.518 205.176 147.335 204.643 146.971 204.242C146.611 203.837 146.13 203.634 145.528 203.634C144.977 203.634 144.544 203.755 144.229 203.996L143.895 204.27L142.883 204.01Z" fill="black" fill-opacity="0.25"/>
            <rect x="98.5" y="184.5" width="67" height="39" rx="3.5" stroke="#8D8D8D" stroke-opacity="0.2"/>
            <rect x="174" y="184" width="68" height="40" rx="4" fill="#92949C" fill-opacity="0.1"/>
            <path d="M195.483 209H194.212V200.571L191.662 201.508V200.359L195.285 198.999H195.483V209ZM205.43 204.755C205.43 206.236 205.177 207.337 204.671 208.057C204.165 208.777 203.374 209.137 202.299 209.137C201.237 209.137 200.451 208.786 199.94 208.084C199.43 207.378 199.166 206.325 199.147 204.926V203.237C199.147 201.774 199.4 200.688 199.906 199.977C200.412 199.266 201.205 198.91 202.285 198.91C203.356 198.91 204.145 199.254 204.65 199.942C205.156 200.626 205.416 201.683 205.43 203.114V204.755ZM204.165 203.025C204.165 201.954 204.015 201.175 203.714 200.688C203.413 200.195 202.937 199.949 202.285 199.949C201.638 199.949 201.166 200.193 200.87 200.681C200.574 201.168 200.421 201.918 200.412 202.93V204.953C200.412 206.029 200.567 206.824 200.877 207.339C201.191 207.849 201.665 208.104 202.299 208.104C202.923 208.104 203.386 207.863 203.687 207.38C203.992 206.897 204.151 206.136 204.165 205.097V203.025ZM207.139 208.337C207.139 208.118 207.202 207.936 207.33 207.79C207.462 207.644 207.658 207.571 207.918 207.571C208.178 207.571 208.374 207.644 208.506 207.79C208.643 207.936 208.711 208.118 208.711 208.337C208.711 208.547 208.643 208.722 208.506 208.863C208.374 209.005 208.178 209.075 207.918 209.075C207.658 209.075 207.462 209.005 207.33 208.863C207.202 208.722 207.139 208.547 207.139 208.337ZM207.146 202.301C207.146 202.082 207.209 201.9 207.337 201.754C207.469 201.608 207.665 201.535 207.925 201.535C208.185 201.535 208.381 201.608 208.513 201.754C208.649 201.9 208.718 202.082 208.718 202.301C208.718 202.51 208.649 202.686 208.513 202.827C208.381 202.968 208.185 203.039 207.925 203.039C207.665 203.039 207.469 202.968 207.337 202.827C207.209 202.686 207.146 202.51 207.146 202.301ZM212.279 203.408H213.229C213.826 203.399 214.296 203.242 214.638 202.937C214.979 202.631 215.15 202.219 215.15 201.699C215.15 200.533 214.569 199.949 213.407 199.949C212.86 199.949 212.423 200.106 212.095 200.421C211.771 200.731 211.609 201.143 211.609 201.658H210.345C210.345 200.87 210.632 200.216 211.206 199.696C211.785 199.172 212.519 198.91 213.407 198.91C214.346 198.91 215.082 199.159 215.615 199.655C216.148 200.152 216.415 200.842 216.415 201.727C216.415 202.16 216.274 202.579 215.991 202.984C215.713 203.39 215.333 203.693 214.85 203.894C215.396 204.067 215.818 204.354 216.114 204.755C216.415 205.156 216.565 205.646 216.565 206.225C216.565 207.118 216.274 207.826 215.69 208.351C215.107 208.875 214.348 209.137 213.414 209.137C212.48 209.137 211.719 208.884 211.131 208.378C210.548 207.872 210.256 207.204 210.256 206.375H211.527C211.527 206.899 211.698 207.318 212.04 207.633C212.382 207.947 212.84 208.104 213.414 208.104C214.025 208.104 214.492 207.945 214.815 207.626C215.139 207.307 215.301 206.849 215.301 206.252C215.301 205.673 215.123 205.229 214.768 204.919C214.412 204.609 213.899 204.45 213.229 204.44H212.279V203.408ZM224.543 204.755C224.543 206.236 224.29 207.337 223.784 208.057C223.278 208.777 222.488 209.137 221.412 209.137C220.35 209.137 219.564 208.786 219.054 208.084C218.543 207.378 218.279 206.325 218.261 204.926V203.237C218.261 201.774 218.514 200.688 219.02 199.977C219.525 199.266 220.318 198.91 221.398 198.91C222.469 198.91 223.258 199.254 223.764 199.942C224.27 200.626 224.529 201.683 224.543 203.114V204.755ZM223.278 203.025C223.278 201.954 223.128 201.175 222.827 200.688C222.526 200.195 222.05 199.949 221.398 199.949C220.751 199.949 220.28 200.193 219.983 200.681C219.687 201.168 219.535 201.918 219.525 202.93V204.953C219.525 206.029 219.68 206.824 219.99 207.339C220.305 207.849 220.779 208.104 221.412 208.104C222.036 208.104 222.499 207.863 222.8 207.38C223.105 206.897 223.265 206.136 223.278 205.097V203.025Z" fill="black" fill-opacity="0.25"/>
            <rect x="174.5" y="184.5" width="67" height="39" rx="3.5" stroke="#8D8D8D" stroke-opacity="0.2"/>
            <rect x="250" y="184" width="68" height="40" rx="4" fill="#92949C" fill-opacity="0.1"/>
            <path d="M271.483 209H270.212V200.571L267.662 201.508V200.359L271.285 198.999H271.483V209ZM281.43 204.755C281.43 206.236 281.177 207.337 280.671 208.057C280.165 208.777 279.374 209.137 278.299 209.137C277.237 209.137 276.451 208.786 275.94 208.084C275.43 207.378 275.166 206.325 275.147 204.926V203.237C275.147 201.774 275.4 200.688 275.906 199.977C276.412 199.266 277.205 198.91 278.285 198.91C279.356 198.91 280.145 199.254 280.65 199.942C281.156 200.626 281.416 201.683 281.43 203.114V204.755ZM280.165 203.025C280.165 201.954 280.015 201.175 279.714 200.688C279.413 200.195 278.937 199.949 278.285 199.949C277.638 199.949 277.166 200.193 276.87 200.681C276.574 201.168 276.421 201.918 276.412 202.93V204.953C276.412 206.029 276.567 206.824 276.877 207.339C277.191 207.849 277.665 208.104 278.299 208.104C278.923 208.104 279.386 207.863 279.687 207.38C279.992 206.897 280.151 206.136 280.165 205.097V203.025ZM283.139 208.337C283.139 208.118 283.202 207.936 283.33 207.79C283.462 207.644 283.658 207.571 283.918 207.571C284.178 207.571 284.374 207.644 284.506 207.79C284.643 207.936 284.711 208.118 284.711 208.337C284.711 208.547 284.643 208.722 284.506 208.863C284.374 209.005 284.178 209.075 283.918 209.075C283.658 209.075 283.462 209.005 283.33 208.863C283.202 208.722 283.139 208.547 283.139 208.337ZM283.146 202.301C283.146 202.082 283.209 201.9 283.337 201.754C283.469 201.608 283.665 201.535 283.925 201.535C284.185 201.535 284.381 201.608 284.513 201.754C284.649 201.9 284.718 202.082 284.718 202.301C284.718 202.51 284.649 202.686 284.513 202.827C284.381 202.968 284.185 203.039 283.925 203.039C283.665 203.039 283.469 202.968 283.337 202.827C283.209 202.686 283.146 202.51 283.146 202.301ZM291.779 205.657H293.16V206.689H291.779V209H290.508V206.689H285.976V205.944L290.433 199.047H291.779V205.657ZM287.411 205.657H290.508V200.776L290.357 201.05L287.411 205.657ZM294.883 204.01L295.389 199.047H300.488V200.216H296.462L296.161 202.93C296.649 202.643 297.202 202.499 297.822 202.499C298.729 202.499 299.449 202.8 299.982 203.401C300.516 203.998 300.782 204.807 300.782 205.828C300.782 206.854 300.504 207.662 299.948 208.255C299.397 208.843 298.624 209.137 297.631 209.137C296.751 209.137 296.034 208.893 295.478 208.405C294.922 207.918 294.605 207.243 294.527 206.382H295.724C295.801 206.951 296.004 207.382 296.332 207.674C296.66 207.961 297.093 208.104 297.631 208.104C298.219 208.104 298.679 207.904 299.012 207.503C299.349 207.102 299.518 206.548 299.518 205.842C299.518 205.176 299.335 204.643 298.971 204.242C298.611 203.837 298.13 203.634 297.528 203.634C296.977 203.634 296.544 203.755 296.229 203.996L295.895 204.27L294.883 204.01Z" fill="black" fill-opacity="0.25"/>
            <rect x="250.5" y="184.5" width="67" height="39" rx="3.5" stroke="#8D8D8D" stroke-opacity="0.2"/>
            <rect x="22" y="232" width="68" height="40" rx="4" fill="white"/>
            <path d="M43.4834 257H42.2119V248.571L39.6621 249.508V248.359L43.2852 246.999H43.4834V257ZM51.3447 257H50.0732V248.571L47.5234 249.508V248.359L51.1465 246.999H51.3447V257ZM55.1387 256.337C55.1387 256.118 55.2025 255.936 55.3301 255.79C55.4622 255.644 55.6582 255.571 55.918 255.571C56.1777 255.571 56.3737 255.644 56.5059 255.79C56.6426 255.936 56.7109 256.118 56.7109 256.337C56.7109 256.547 56.6426 256.722 56.5059 256.863C56.3737 257.005 56.1777 257.075 55.918 257.075C55.6582 257.075 55.4622 257.005 55.3301 256.863C55.2025 256.722 55.1387 256.547 55.1387 256.337ZM55.1455 250.301C55.1455 250.082 55.2093 249.9 55.3369 249.754C55.4691 249.608 55.665 249.535 55.9248 249.535C56.1846 249.535 56.3805 249.608 56.5127 249.754C56.6494 249.9 56.7178 250.082 56.7178 250.301C56.7178 250.51 56.6494 250.686 56.5127 250.827C56.3805 250.968 56.1846 251.039 55.9248 251.039C55.665 251.039 55.4691 250.968 55.3369 250.827C55.2093 250.686 55.1455 250.51 55.1455 250.301ZM64.6816 252.755C64.6816 254.236 64.4287 255.337 63.9229 256.057C63.417 256.777 62.6263 257.137 61.5508 257.137C60.4889 257.137 59.7028 256.786 59.1924 256.084C58.682 255.378 58.4176 254.325 58.3994 252.926V251.237C58.3994 249.774 58.6523 248.688 59.1582 247.977C59.6641 247.266 60.457 246.91 61.5371 246.91C62.6081 246.91 63.3965 247.254 63.9023 247.942C64.4082 248.626 64.668 249.683 64.6816 251.114V252.755ZM63.417 251.025C63.417 249.954 63.2666 249.175 62.9658 248.688C62.665 248.195 62.1888 247.949 61.5371 247.949C60.89 247.949 60.4183 248.193 60.1221 248.681C59.8258 249.168 59.6732 249.918 59.6641 250.93V252.953C59.6641 254.029 59.819 254.824 60.1289 255.339C60.4434 255.849 60.9173 256.104 61.5508 256.104C62.1751 256.104 62.6377 255.863 62.9385 255.38C63.2438 254.897 63.4033 254.136 63.417 253.097V251.025ZM72.543 252.755C72.543 254.236 72.29 255.337 71.7842 256.057C71.2783 256.777 70.4876 257.137 69.4121 257.137C68.3503 257.137 67.5641 256.786 67.0537 256.084C66.5433 255.378 66.279 254.325 66.2607 252.926V251.237C66.2607 249.774 66.5137 248.688 67.0195 247.977C67.5254 247.266 68.3184 246.91 69.3984 246.91C70.4694 246.91 71.2578 247.254 71.7637 247.942C72.2695 248.626 72.5293 249.683 72.543 251.114V252.755ZM71.2783 251.025C71.2783 249.954 71.1279 249.175 70.8271 248.688C70.5264 248.195 70.0501 247.949 69.3984 247.949C68.7513 247.949 68.2796 248.193 67.9834 248.681C67.6872 249.168 67.5345 249.918 67.5254 250.93V252.953C67.5254 254.029 67.6803 254.824 67.9902 255.339C68.3047 255.849 68.7786 256.104 69.4121 256.104C70.0365 256.104 70.499 255.863 70.7998 255.38C71.1051 254.897 71.2646 254.136 71.2783 253.097V251.025Z" fill="#222428"/>
            <rect x="22.5" y="232.5" width="67" height="39" rx="3.5" stroke="#222428" stroke-opacity="0.1"/>
            <path d="M119.483 257H118.212V248.571L115.662 249.508V248.359L119.285 246.999H119.483V257ZM127.345 257H126.073V248.571L123.523 249.508V248.359L127.146 246.999H127.345V257ZM131.139 256.337C131.139 256.118 131.202 255.936 131.33 255.79C131.462 255.644 131.658 255.571 131.918 255.571C132.178 255.571 132.374 255.644 132.506 255.79C132.643 255.936 132.711 256.118 132.711 256.337C132.711 256.547 132.643 256.722 132.506 256.863C132.374 257.005 132.178 257.075 131.918 257.075C131.658 257.075 131.462 257.005 131.33 256.863C131.202 256.722 131.139 256.547 131.139 256.337ZM131.146 250.301C131.146 250.082 131.209 249.9 131.337 249.754C131.469 249.608 131.665 249.535 131.925 249.535C132.185 249.535 132.381 249.608 132.513 249.754C132.649 249.9 132.718 250.082 132.718 250.301C132.718 250.51 132.649 250.686 132.513 250.827C132.381 250.968 132.185 251.039 131.925 251.039C131.665 251.039 131.469 250.968 131.337 250.827C131.209 250.686 131.146 250.51 131.146 250.301ZM138.597 257H137.325V248.571L134.775 249.508V248.359L138.398 246.999H138.597V257ZM142.883 252.01L143.389 247.047H148.488V248.216H144.462L144.161 250.93C144.649 250.643 145.202 250.499 145.822 250.499C146.729 250.499 147.449 250.8 147.982 251.401C148.516 251.998 148.782 252.807 148.782 253.828C148.782 254.854 148.504 255.662 147.948 256.255C147.397 256.843 146.624 257.137 145.631 257.137C144.751 257.137 144.034 256.893 143.478 256.405C142.922 255.918 142.605 255.243 142.527 254.382H143.724C143.801 254.951 144.004 255.382 144.332 255.674C144.66 255.961 145.093 256.104 145.631 256.104C146.219 256.104 146.679 255.904 147.012 255.503C147.349 255.102 147.518 254.548 147.518 253.842C147.518 253.176 147.335 252.643 146.971 252.242C146.611 251.837 146.13 251.634 145.528 251.634C144.977 251.634 144.544 251.755 144.229 251.996L143.895 252.27L142.883 252.01Z" fill="#222428"/>
            <rect x="98.5" y="232.5" width="67" height="39" rx="3.5" stroke="#8D8D8D" stroke-opacity="0.2"/>
            <path d="M195.483 257H194.212V248.571L191.662 249.508V248.359L195.285 246.999H195.483V257ZM203.345 257H202.073V248.571L199.523 249.508V248.359L203.146 246.999H203.345V257ZM207.139 256.337C207.139 256.118 207.202 255.936 207.33 255.79C207.462 255.644 207.658 255.571 207.918 255.571C208.178 255.571 208.374 255.644 208.506 255.79C208.643 255.936 208.711 256.118 208.711 256.337C208.711 256.547 208.643 256.722 208.506 256.863C208.374 257.005 208.178 257.075 207.918 257.075C207.658 257.075 207.462 257.005 207.33 256.863C207.202 256.722 207.139 256.547 207.139 256.337ZM207.146 250.301C207.146 250.082 207.209 249.9 207.337 249.754C207.469 249.608 207.665 249.535 207.925 249.535C208.185 249.535 208.381 249.608 208.513 249.754C208.649 249.9 208.718 250.082 208.718 250.301C208.718 250.51 208.649 250.686 208.513 250.827C208.381 250.968 208.185 251.039 207.925 251.039C207.665 251.039 207.469 250.968 207.337 250.827C207.209 250.686 207.146 250.51 207.146 250.301ZM212.279 251.408H213.229C213.826 251.399 214.296 251.242 214.638 250.937C214.979 250.631 215.15 250.219 215.15 249.699C215.15 248.533 214.569 247.949 213.407 247.949C212.86 247.949 212.423 248.106 212.095 248.421C211.771 248.731 211.609 249.143 211.609 249.658H210.345C210.345 248.87 210.632 248.216 211.206 247.696C211.785 247.172 212.519 246.91 213.407 246.91C214.346 246.91 215.082 247.159 215.615 247.655C216.148 248.152 216.415 248.842 216.415 249.727C216.415 250.16 216.274 250.579 215.991 250.984C215.713 251.39 215.333 251.693 214.85 251.894C215.396 252.067 215.818 252.354 216.114 252.755C216.415 253.156 216.565 253.646 216.565 254.225C216.565 255.118 216.274 255.826 215.69 256.351C215.107 256.875 214.348 257.137 213.414 257.137C212.48 257.137 211.719 256.884 211.131 256.378C210.548 255.872 210.256 255.204 210.256 254.375H211.527C211.527 254.899 211.698 255.318 212.04 255.633C212.382 255.947 212.84 256.104 213.414 256.104C214.025 256.104 214.492 255.945 214.815 255.626C215.139 255.307 215.301 254.849 215.301 254.252C215.301 253.673 215.123 253.229 214.768 252.919C214.412 252.609 213.899 252.45 213.229 252.44H212.279V251.408ZM224.543 252.755C224.543 254.236 224.29 255.337 223.784 256.057C223.278 256.777 222.488 257.137 221.412 257.137C220.35 257.137 219.564 256.786 219.054 256.084C218.543 255.378 218.279 254.325 218.261 252.926V251.237C218.261 249.774 218.514 248.688 219.02 247.977C219.525 247.266 220.318 246.91 221.398 246.91C222.469 246.91 223.258 247.254 223.764 247.942C224.27 248.626 224.529 249.683 224.543 251.114V252.755ZM223.278 251.025C223.278 249.954 223.128 249.175 222.827 248.688C222.526 248.195 222.05 247.949 221.398 247.949C220.751 247.949 220.28 248.193 219.983 248.681C219.687 249.168 219.535 249.918 219.525 250.93V252.953C219.525 254.029 219.68 254.824 219.99 255.339C220.305 255.849 220.779 256.104 221.412 256.104C222.036 256.104 222.499 255.863 222.8 255.38C223.105 254.897 223.265 254.136 223.278 253.097V251.025Z" fill="#222428"/>
            <rect x="174.5" y="232.5" width="67" height="39" rx="3.5" stroke="#8D8D8D" stroke-opacity="0.2"/>
            <path d="M271.483 257H270.212V248.571L267.662 249.508V248.359L271.285 246.999H271.483V257ZM279.345 257H278.073V248.571L275.523 249.508V248.359L279.146 246.999H279.345V257ZM283.139 256.337C283.139 256.118 283.202 255.936 283.33 255.79C283.462 255.644 283.658 255.571 283.918 255.571C284.178 255.571 284.374 255.644 284.506 255.79C284.643 255.936 284.711 256.118 284.711 256.337C284.711 256.547 284.643 256.722 284.506 256.863C284.374 257.005 284.178 257.075 283.918 257.075C283.658 257.075 283.462 257.005 283.33 256.863C283.202 256.722 283.139 256.547 283.139 256.337ZM283.146 250.301C283.146 250.082 283.209 249.9 283.337 249.754C283.469 249.608 283.665 249.535 283.925 249.535C284.185 249.535 284.381 249.608 284.513 249.754C284.649 249.9 284.718 250.082 284.718 250.301C284.718 250.51 284.649 250.686 284.513 250.827C284.381 250.968 284.185 251.039 283.925 251.039C283.665 251.039 283.469 250.968 283.337 250.827C283.209 250.686 283.146 250.51 283.146 250.301ZM291.779 253.657H293.16V254.689H291.779V257H290.508V254.689H285.976V253.944L290.433 247.047H291.779V253.657ZM287.411 253.657H290.508V248.776L290.357 249.05L287.411 253.657ZM294.883 252.01L295.389 247.047H300.488V248.216H296.462L296.161 250.93C296.649 250.643 297.202 250.499 297.822 250.499C298.729 250.499 299.449 250.8 299.982 251.401C300.516 251.998 300.782 252.807 300.782 253.828C300.782 254.854 300.504 255.662 299.948 256.255C299.397 256.843 298.624 257.137 297.631 257.137C296.751 257.137 296.034 256.893 295.478 256.405C294.922 255.918 294.605 255.243 294.527 254.382H295.724C295.801 254.951 296.004 255.382 296.332 255.674C296.66 255.961 297.093 256.104 297.631 256.104C298.219 256.104 298.679 255.904 299.012 255.503C299.349 255.102 299.518 254.548 299.518 253.842C299.518 253.176 299.335 252.643 298.971 252.242C298.611 251.837 298.13 251.634 297.528 251.634C296.977 251.634 296.544 251.755 296.229 251.996L295.895 252.27L294.883 252.01Z" fill="#222428"/>
            <rect x="250.5" y="232.5" width="67" height="39" rx="3.5" stroke="#8D8D8D" stroke-opacity="0.2"/>
            <rect width="320" height="32" transform="translate(10 -14)" fill="white"/>
            <rect x="26" y="17" width="304" height="1" fill="black" fill-opacity="0.1"/>
            <path d="M126.92 113.42L128.883 108.469H130.189L127.172 115.576C126.969 116.029 126.779 116.352 126.604 116.543C126.428 116.73 126.221 116.875 125.982 116.977C125.748 117.074 125.453 117.123 125.098 117.123C124.789 117.123 124.592 117.105 124.506 117.07L124.541 116.18L125.074 116.203C125.484 116.203 125.789 116.006 125.988 115.611L126.135 115.307L126.357 114.785L123.451 108.469H124.711L126.92 113.42ZM136.078 111.539H133.951V117H132.867V111.539H130.781V110.66H136.078V111.539ZM142.488 113.9C142.488 114.865 142.268 115.643 141.826 116.232C141.385 116.822 140.787 117.117 140.033 117.117C139.264 117.117 138.658 116.873 138.217 116.385V119.438H137.133V110.66H138.123L138.176 111.363C138.617 110.816 139.23 110.543 140.016 110.543C140.777 110.543 141.379 110.83 141.82 111.404C142.266 111.979 142.488 112.777 142.488 113.801V113.9ZM141.404 113.777C141.404 113.062 141.252 112.498 140.947 112.084C140.643 111.67 140.225 111.463 139.693 111.463C139.037 111.463 138.545 111.754 138.217 112.336V115.365C138.541 115.943 139.037 116.232 139.705 116.232C140.225 116.232 140.637 116.027 140.941 115.617C141.25 115.203 141.404 114.59 141.404 113.777ZM143.584 113.771C143.584 113.15 143.705 112.592 143.947 112.096C144.193 111.6 144.533 111.217 144.967 110.947C145.404 110.678 145.902 110.543 146.461 110.543C147.324 110.543 148.021 110.842 148.553 111.439C149.088 112.037 149.355 112.832 149.355 113.824V113.9C149.355 114.518 149.236 115.072 148.998 115.564C148.764 116.053 148.426 116.434 147.984 116.707C147.547 116.98 147.043 117.117 146.473 117.117C145.613 117.117 144.916 116.818 144.381 116.221C143.85 115.623 143.584 114.832 143.584 113.848V113.771ZM144.674 113.9C144.674 114.604 144.836 115.168 145.16 115.594C145.488 116.02 145.926 116.232 146.473 116.232C147.023 116.232 147.461 116.018 147.785 115.588C148.109 115.154 148.271 114.549 148.271 113.771C148.271 113.076 148.105 112.514 147.773 112.084C147.445 111.65 147.008 111.434 146.461 111.434C145.926 111.434 145.494 111.646 145.166 112.072C144.838 112.498 144.674 113.107 144.674 113.9ZM157.834 108.463V109.383H157.635C156.791 109.398 156.119 109.648 155.619 110.133C155.119 110.617 154.83 111.299 154.752 112.178C155.201 111.662 155.814 111.404 156.592 111.404C157.334 111.404 157.926 111.666 158.367 112.189C158.812 112.713 159.035 113.389 159.035 114.217C159.035 115.096 158.795 115.799 158.314 116.326C157.838 116.854 157.197 117.117 156.393 117.117C155.576 117.117 154.914 116.805 154.406 116.18C153.898 115.551 153.645 114.742 153.645 113.754V113.338C153.645 111.768 153.979 110.568 154.646 109.74C155.318 108.908 156.316 108.482 157.641 108.463H157.834ZM156.41 112.307C156.039 112.307 155.697 112.418 155.385 112.641C155.072 112.863 154.855 113.143 154.734 113.479V113.877C154.734 114.58 154.893 115.146 155.209 115.576C155.525 116.006 155.92 116.221 156.393 116.221C156.881 116.221 157.264 116.041 157.541 115.682C157.822 115.322 157.963 114.852 157.963 114.27C157.963 113.684 157.82 113.211 157.535 112.852C157.254 112.488 156.879 112.307 156.41 112.307ZM160.395 116.432C160.395 116.244 160.449 116.088 160.559 115.963C160.672 115.838 160.84 115.775 161.062 115.775C161.285 115.775 161.453 115.838 161.566 115.963C161.684 116.088 161.742 116.244 161.742 116.432C161.742 116.611 161.684 116.762 161.566 116.883C161.453 117.004 161.285 117.064 161.062 117.064C160.84 117.064 160.672 117.004 160.559 116.883C160.449 116.762 160.395 116.611 160.395 116.432ZM160.4 111.258C160.4 111.07 160.455 110.914 160.564 110.789C160.678 110.664 160.846 110.602 161.068 110.602C161.291 110.602 161.459 110.664 161.572 110.789C161.689 110.914 161.748 111.07 161.748 111.258C161.748 111.438 161.689 111.588 161.572 111.709C161.459 111.83 161.291 111.891 161.068 111.891C160.846 111.891 160.678 111.83 160.564 111.709C160.455 111.588 160.4 111.438 160.4 111.258ZM168.574 113.361C168.574 114.631 168.357 115.574 167.924 116.191C167.49 116.809 166.812 117.117 165.891 117.117C164.98 117.117 164.307 116.816 163.869 116.215C163.432 115.609 163.205 114.707 163.189 113.508V112.061C163.189 110.807 163.406 109.875 163.84 109.266C164.273 108.656 164.953 108.352 165.879 108.352C166.797 108.352 167.473 108.646 167.906 109.236C168.34 109.822 168.562 110.729 168.574 111.955V113.361ZM167.49 111.879C167.49 110.961 167.361 110.293 167.104 109.875C166.846 109.453 166.438 109.242 165.879 109.242C165.324 109.242 164.92 109.451 164.666 109.869C164.412 110.287 164.281 110.93 164.273 111.797V113.531C164.273 114.453 164.406 115.135 164.672 115.576C164.941 116.014 165.348 116.232 165.891 116.232C166.426 116.232 166.822 116.025 167.08 115.611C167.342 115.197 167.479 114.545 167.49 113.654V111.879ZM175.312 113.361C175.312 114.631 175.096 115.574 174.662 116.191C174.229 116.809 173.551 117.117 172.629 117.117C171.719 117.117 171.045 116.816 170.607 116.215C170.17 115.609 169.943 114.707 169.928 113.508V112.061C169.928 110.807 170.145 109.875 170.578 109.266C171.012 108.656 171.691 108.352 172.617 108.352C173.535 108.352 174.211 108.646 174.645 109.236C175.078 109.822 175.301 110.729 175.312 111.955V113.361ZM174.229 111.879C174.229 110.961 174.1 110.293 173.842 109.875C173.584 109.453 173.176 109.242 172.617 109.242C172.062 109.242 171.658 109.451 171.404 109.869C171.15 110.287 171.02 110.93 171.012 111.797V113.531C171.012 114.453 171.145 115.135 171.41 115.576C171.68 116.014 172.086 116.232 172.629 116.232C173.164 116.232 173.561 116.025 173.818 115.611C174.08 115.197 174.217 114.545 174.229 113.654V111.879ZM182.045 113.818H179.186V112.934H182.045V113.818ZM189.533 117H188.443V109.775L186.258 110.578V109.594L189.363 108.428H189.533V117ZM198.299 117H192.709V116.221L195.662 112.939C196.1 112.443 196.4 112.041 196.564 111.732C196.732 111.42 196.816 111.098 196.816 110.766C196.816 110.32 196.682 109.955 196.412 109.67C196.143 109.385 195.783 109.242 195.334 109.242C194.795 109.242 194.375 109.396 194.074 109.705C193.777 110.01 193.629 110.436 193.629 110.982H192.545C192.545 110.197 192.797 109.562 193.301 109.078C193.809 108.594 194.486 108.352 195.334 108.352C196.127 108.352 196.754 108.561 197.215 108.979C197.676 109.393 197.906 109.945 197.906 110.637C197.906 111.477 197.371 112.477 196.301 113.637L194.016 116.115H198.299V117ZM199.523 116.432C199.523 116.244 199.578 116.088 199.688 115.963C199.801 115.838 199.969 115.775 200.191 115.775C200.414 115.775 200.582 115.838 200.695 115.963C200.812 116.088 200.871 116.244 200.871 116.432C200.871 116.611 200.812 116.762 200.695 116.883C200.582 117.004 200.414 117.064 200.191 117.064C199.969 117.064 199.801 117.004 199.688 116.883C199.578 116.762 199.523 116.611 199.523 116.432ZM199.529 111.258C199.529 111.07 199.584 110.914 199.693 110.789C199.807 110.664 199.975 110.602 200.197 110.602C200.42 110.602 200.588 110.664 200.701 110.789C200.818 110.914 200.877 111.07 200.877 111.258C200.877 111.438 200.818 111.588 200.701 111.709C200.588 111.83 200.42 111.891 200.197 111.891C199.975 111.891 199.807 111.83 199.693 111.709C199.584 111.588 199.529 111.438 199.529 111.258ZM207.703 113.361C207.703 114.631 207.486 115.574 207.053 116.191C206.619 116.809 205.941 117.117 205.02 117.117C204.109 117.117 203.436 116.816 202.998 116.215C202.561 115.609 202.334 114.707 202.318 113.508V112.061C202.318 110.807 202.535 109.875 202.969 109.266C203.402 108.656 204.082 108.352 205.008 108.352C205.926 108.352 206.602 108.646 207.035 109.236C207.469 109.822 207.691 110.729 207.703 111.955V113.361ZM206.619 111.879C206.619 110.961 206.49 110.293 206.232 109.875C205.975 109.453 205.566 109.242 205.008 109.242C204.453 109.242 204.049 109.451 203.795 109.869C203.541 110.287 203.41 110.93 203.402 111.797V113.531C203.402 114.453 203.535 115.135 203.801 115.576C204.07 116.014 204.477 116.232 205.02 116.232C205.555 116.232 205.951 116.025 206.209 115.611C206.471 115.197 206.607 114.545 206.619 113.654V111.879ZM214.441 113.361C214.441 114.631 214.225 115.574 213.791 116.191C213.357 116.809 212.68 117.117 211.758 117.117C210.848 117.117 210.174 116.816 209.736 116.215C209.299 115.609 209.072 114.707 209.057 113.508V112.061C209.057 110.807 209.273 109.875 209.707 109.266C210.141 108.656 210.82 108.352 211.746 108.352C212.664 108.352 213.34 108.646 213.773 109.236C214.207 109.822 214.43 110.729 214.441 111.955V113.361ZM213.357 111.879C213.357 110.961 213.229 110.293 212.971 109.875C212.713 109.453 212.305 109.242 211.746 109.242C211.191 109.242 210.787 109.451 210.533 109.869C210.279 110.287 210.148 110.93 210.141 111.797V113.531C210.141 114.453 210.273 115.135 210.539 115.576C210.809 116.014 211.215 116.232 211.758 116.232C212.293 116.232 212.689 116.025 212.947 115.611C213.209 115.197 213.346 114.545 213.357 113.654V111.879Z" fill="black"/>
            <path d="M131.666 317.092H130.547V315H124.424V317.098H123.299L123.293 314.08H123.99C124.357 313.666 124.648 313.111 124.863 312.416C125.082 311.717 125.219 310.951 125.273 310.119L125.461 306.469H130.564V314.08H131.678L131.666 317.092ZM125.273 314.08H129.434V307.395H126.545L126.422 309.902C126.371 310.883 126.24 311.719 126.029 312.41C125.822 313.102 125.57 313.658 125.273 314.08ZM135.475 315.117C134.615 315.117 133.916 314.836 133.377 314.273C132.838 313.707 132.568 312.951 132.568 312.006V311.807C132.568 311.178 132.688 310.617 132.926 310.125C133.168 309.629 133.504 309.242 133.934 308.965C134.367 308.684 134.836 308.543 135.34 308.543C136.164 308.543 136.805 308.814 137.262 309.357C137.719 309.9 137.947 310.678 137.947 311.689V312.141H133.652C133.668 312.766 133.85 313.271 134.197 313.658C134.549 314.041 134.994 314.232 135.533 314.232C135.916 314.232 136.24 314.154 136.506 313.998C136.771 313.842 137.004 313.635 137.203 313.377L137.865 313.893C137.334 314.709 136.537 315.117 135.475 315.117ZM135.34 309.434C134.902 309.434 134.535 309.594 134.238 309.914C133.941 310.23 133.758 310.676 133.688 311.25H136.863V311.168C136.832 310.617 136.684 310.191 136.418 309.891C136.152 309.586 135.793 309.434 135.34 309.434ZM144.387 315H143.303V312.293H140.391V315H139.301V308.66H140.391V311.408H143.303V308.66H144.387V315ZM147.316 310.846H148.963C149.682 310.854 150.25 311.041 150.668 311.408C151.086 311.775 151.295 312.273 151.295 312.902C151.295 313.535 151.08 314.043 150.65 314.426C150.221 314.809 149.643 315 148.916 315H146.232V308.66H147.316V310.846ZM147.316 311.73V314.115H148.928C149.334 314.115 149.648 314.012 149.871 313.805C150.094 313.594 150.205 313.307 150.205 312.943C150.205 312.592 150.096 312.305 149.877 312.082C149.662 311.855 149.359 311.738 148.969 311.73H147.316ZM159.076 315H157.986V307.775L155.801 308.578V307.594L158.906 306.428H159.076V315ZM167.842 315H162.252V314.221L165.205 310.939C165.643 310.443 165.943 310.041 166.107 309.732C166.275 309.42 166.359 309.098 166.359 308.766C166.359 308.32 166.225 307.955 165.955 307.67C165.686 307.385 165.326 307.242 164.877 307.242C164.338 307.242 163.918 307.396 163.617 307.705C163.32 308.01 163.172 308.436 163.172 308.982H162.088C162.088 308.197 162.34 307.562 162.844 307.078C163.352 306.594 164.029 306.352 164.877 306.352C165.67 306.352 166.297 306.561 166.758 306.979C167.219 307.393 167.449 307.945 167.449 308.637C167.449 309.477 166.914 310.477 165.844 311.637L163.559 314.115H167.842V315ZM169.066 314.432C169.066 314.244 169.121 314.088 169.23 313.963C169.344 313.838 169.512 313.775 169.734 313.775C169.957 313.775 170.125 313.838 170.238 313.963C170.355 314.088 170.414 314.244 170.414 314.432C170.414 314.611 170.355 314.762 170.238 314.883C170.125 315.004 169.957 315.064 169.734 315.064C169.512 315.064 169.344 315.004 169.23 314.883C169.121 314.762 169.066 314.611 169.066 314.432ZM169.072 309.258C169.072 309.07 169.127 308.914 169.236 308.789C169.35 308.664 169.518 308.602 169.74 308.602C169.963 308.602 170.131 308.664 170.244 308.789C170.361 308.914 170.42 309.07 170.42 309.258C170.42 309.438 170.361 309.588 170.244 309.709C170.131 309.83 169.963 309.891 169.74 309.891C169.518 309.891 169.35 309.83 169.236 309.709C169.127 309.588 169.072 309.438 169.072 309.258ZM177.246 311.361C177.246 312.631 177.029 313.574 176.596 314.191C176.162 314.809 175.484 315.117 174.562 315.117C173.652 315.117 172.979 314.816 172.541 314.215C172.104 313.609 171.877 312.707 171.861 311.508V310.061C171.861 308.807 172.078 307.875 172.512 307.266C172.945 306.656 173.625 306.352 174.551 306.352C175.469 306.352 176.145 306.646 176.578 307.236C177.012 307.822 177.234 308.729 177.246 309.955V311.361ZM176.162 309.879C176.162 308.961 176.033 308.293 175.775 307.875C175.518 307.453 175.109 307.242 174.551 307.242C173.996 307.242 173.592 307.451 173.338 307.869C173.084 308.287 172.953 308.93 172.945 309.797V311.531C172.945 312.453 173.078 313.135 173.344 313.576C173.613 314.014 174.02 314.232 174.562 314.232C175.098 314.232 175.494 314.025 175.752 313.611C176.014 313.197 176.15 312.545 176.162 311.654V309.879ZM183.984 311.361C183.984 312.631 183.768 313.574 183.334 314.191C182.9 314.809 182.223 315.117 181.301 315.117C180.391 315.117 179.717 314.816 179.279 314.215C178.842 313.609 178.615 312.707 178.6 311.508V310.061C178.6 308.807 178.816 307.875 179.25 307.266C179.684 306.656 180.363 306.352 181.289 306.352C182.207 306.352 182.883 306.646 183.316 307.236C183.75 307.822 183.973 308.729 183.984 309.955V311.361ZM182.9 309.879C182.9 308.961 182.771 308.293 182.514 307.875C182.256 307.453 181.848 307.242 181.289 307.242C180.734 307.242 180.33 307.451 180.076 307.869C179.822 308.287 179.691 308.93 179.684 309.797V311.531C179.684 312.453 179.816 313.135 180.082 313.576C180.352 314.014 180.758 314.232 181.301 314.232C181.836 314.232 182.232 314.025 182.49 313.611C182.752 313.197 182.889 312.545 182.9 311.654V309.879ZM190.717 311.818H187.857V310.934H190.717V311.818ZM198.205 315H197.115V307.775L194.93 308.578V307.594L198.035 306.428H198.205V315ZM206.555 308.695C206.555 309.121 206.441 309.5 206.215 309.832C205.992 310.164 205.689 310.424 205.307 310.611C205.752 310.803 206.104 311.082 206.361 311.449C206.623 311.816 206.754 312.232 206.754 312.697C206.754 313.436 206.504 314.023 206.004 314.461C205.508 314.898 204.854 315.117 204.041 315.117C203.221 315.117 202.562 314.898 202.066 314.461C201.574 314.02 201.328 313.432 201.328 312.697C201.328 312.236 201.453 311.82 201.703 311.449C201.957 311.078 202.307 310.797 202.752 310.605C202.373 310.418 202.074 310.158 201.855 309.826C201.637 309.494 201.527 309.117 201.527 308.695C201.527 307.977 201.758 307.406 202.219 306.984C202.68 306.562 203.287 306.352 204.041 306.352C204.791 306.352 205.396 306.562 205.857 306.984C206.322 307.406 206.555 307.977 206.555 308.695ZM205.67 312.674C205.67 312.197 205.518 311.809 205.213 311.508C204.912 311.207 204.518 311.057 204.029 311.057C203.541 311.057 203.148 311.205 202.852 311.502C202.559 311.799 202.412 312.189 202.412 312.674C202.412 313.158 202.555 313.539 202.84 313.816C203.129 314.094 203.529 314.232 204.041 314.232C204.549 314.232 204.947 314.094 205.236 313.816C205.525 313.535 205.67 313.154 205.67 312.674ZM204.041 307.242C203.615 307.242 203.27 307.375 203.004 307.641C202.742 307.902 202.611 308.26 202.611 308.713C202.611 309.146 202.74 309.498 202.998 309.768C203.26 310.033 203.607 310.166 204.041 310.166C204.475 310.166 204.82 310.033 205.078 309.768C205.34 309.498 205.471 309.146 205.471 308.713C205.471 308.279 205.336 307.926 205.066 307.652C204.797 307.379 204.455 307.242 204.041 307.242ZM208.195 314.432C208.195 314.244 208.25 314.088 208.359 313.963C208.473 313.838 208.641 313.775 208.863 313.775C209.086 313.775 209.254 313.838 209.367 313.963C209.484 314.088 209.543 314.244 209.543 314.432C209.543 314.611 209.484 314.762 209.367 314.883C209.254 315.004 209.086 315.064 208.863 315.064C208.641 315.064 208.473 315.004 208.359 314.883C208.25 314.762 208.195 314.611 208.195 314.432ZM208.201 309.258C208.201 309.07 208.256 308.914 208.365 308.789C208.479 308.664 208.646 308.602 208.869 308.602C209.092 308.602 209.26 308.664 209.373 308.789C209.49 308.914 209.549 309.07 209.549 309.258C209.549 309.438 209.49 309.588 209.373 309.709C209.26 309.83 209.092 309.891 208.869 309.891C208.646 309.891 208.479 309.83 208.365 309.709C208.256 309.588 208.201 309.438 208.201 309.258ZM216.375 311.361C216.375 312.631 216.158 313.574 215.725 314.191C215.291 314.809 214.613 315.117 213.691 315.117C212.781 315.117 212.107 314.816 211.67 314.215C211.232 313.609 211.006 312.707 210.99 311.508V310.061C210.99 308.807 211.207 307.875 211.641 307.266C212.074 306.656 212.754 306.352 213.68 306.352C214.598 306.352 215.273 306.646 215.707 307.236C216.141 307.822 216.363 308.729 216.375 309.955V311.361ZM215.291 309.879C215.291 308.961 215.162 308.293 214.904 307.875C214.646 307.453 214.238 307.242 213.68 307.242C213.125 307.242 212.721 307.451 212.467 307.869C212.213 308.287 212.082 308.93 212.074 309.797V311.531C212.074 312.453 212.207 313.135 212.473 313.576C212.742 314.014 213.148 314.232 213.691 314.232C214.227 314.232 214.623 314.025 214.881 313.611C215.143 313.197 215.279 312.545 215.291 311.654V309.879ZM223.113 311.361C223.113 312.631 222.896 313.574 222.463 314.191C222.029 314.809 221.352 315.117 220.43 315.117C219.52 315.117 218.846 314.816 218.408 314.215C217.971 313.609 217.744 312.707 217.729 311.508V310.061C217.729 308.807 217.945 307.875 218.379 307.266C218.812 306.656 219.492 306.352 220.418 306.352C221.336 306.352 222.012 306.646 222.445 307.236C222.879 307.822 223.102 308.729 223.113 309.955V311.361ZM222.029 309.879C222.029 308.961 221.9 308.293 221.643 307.875C221.385 307.453 220.977 307.242 220.418 307.242C219.863 307.242 219.459 307.451 219.205 307.869C218.951 308.287 218.82 308.93 218.812 309.797V311.531C218.812 312.453 218.945 313.135 219.211 313.576C219.48 314.014 219.887 314.232 220.43 314.232C220.965 314.232 221.361 314.025 221.619 313.611C221.881 313.197 222.018 312.545 222.029 311.654V309.879Z" fill="black"/>
        </g>
    </g>
    <defs>
        <filter id="filter0_d" x="0" y="0" width="340" height="340" filterUnits="userSpaceOnUse" color-interpolation-filters="sRGB">
            <feFlood flood-opacity="0" result="BackgroundImageFix"/>
            <feColorMatrix in="SourceAlpha" type="matrix" values="0 0 0 0 0 0 0 0 0 0 0 0 0 0 0 0 0 0 127 0" result="hardAlpha"/>
            <feOffset dy="2"/>
            <feGaussianBlur stdDeviation="5"/>
            <feColorMatrix type="matrix" values="0 0 0 0 0 0 0 0 0 0 0 0 0 0 0 0 0 0 0.2 0"/>
            <feBlend mode="multiply" in2="BackgroundImageFix" result="effect1_dropShadow"/>
            <feBlend mode="normal" in="SourceGraphic" in2="effect1_dropShadow" result="shape"/>
        </filter>
        <clipPath id="clip0">
            <rect width="320" height="1123" fill="white" transform="translate(10 -162)"/>
        </clipPath>
    </defs>
</svg>
