<svg width="149" height="60" viewBox="0 0 149 60" fill="none" xmlns="http://www.w3.org/2000/svg">
    <rect width="149" height="60" rx="4" fill="#0CD1E8"/>
    <path d="M23.7021 21.6846C23.6247 22.7555 23.2282 23.5986 22.5127 24.2139C21.8018 24.8291 20.863 25.1367 19.6963 25.1367C18.4202 25.1367 17.4154 24.7083 16.6816 23.8516C15.9525 22.9902 15.5879 21.8099 15.5879 20.3105V19.7021C15.5879 18.7451 15.7565 17.902 16.0938 17.1729C16.431 16.4437 16.9118 15.8854 17.5361 15.498C18.165 15.1061 18.8942 14.9102 19.7236 14.9102C20.8721 14.9102 21.7972 15.2178 22.499 15.833C23.2008 16.4482 23.6064 17.3118 23.7158 18.4238H21.665C21.6149 17.7812 21.4349 17.3164 21.125 17.0293C20.8197 16.7376 20.3525 16.5918 19.7236 16.5918C19.04 16.5918 18.5273 16.8379 18.1855 17.3301C17.8483 17.8177 17.6751 18.5765 17.666 19.6064V20.3584C17.666 21.4339 17.8278 22.2201 18.1514 22.7168C18.4795 23.2135 18.9945 23.4619 19.6963 23.4619C20.3298 23.4619 20.8014 23.3184 21.1113 23.0312C21.4258 22.7396 21.6058 22.2907 21.6514 21.6846H23.7021ZM27.6123 19.0664C27.2568 19.0664 26.9743 19.1667 26.7646 19.3672C26.555 19.5632 26.4502 19.8275 26.4502 20.1602H24.5908C24.5908 19.6589 24.723 19.2008 24.9873 18.7861C25.2562 18.3714 25.6208 18.0479 26.0811 17.8154C26.5459 17.583 27.0563 17.4668 27.6123 17.4668C28.6559 17.4668 29.4876 17.8086 30.1074 18.4922C30.7272 19.1712 31.0371 20.0986 31.0371 21.2744V21.4043C31.0371 22.1335 30.9004 22.7829 30.627 23.3525C30.3535 23.9176 29.957 24.3574 29.4375 24.6719C28.9225 24.9818 28.3187 25.1367 27.626 25.1367C26.7145 25.1367 25.9808 24.8747 25.4248 24.3506C24.8688 23.8265 24.5908 23.127 24.5908 22.252H26.4502C26.4502 22.6302 26.555 22.9424 26.7646 23.1885C26.9788 23.43 27.266 23.5508 27.626 23.5508C28.0225 23.5508 28.3415 23.4118 28.583 23.1338C28.8245 22.8512 28.9727 22.4342 29.0273 21.8828H27.0449V20.6729H29.0273C28.8952 19.6019 28.4235 19.0664 27.6123 19.0664ZM36.7109 22.6689L38.6455 17.6035H41.1201V25H39.1445V20.4609L37.374 25H36.0479L34.3115 20.5361V25H32.3359V17.6035H34.79L36.7109 22.6689ZM46.459 25V15.0469H49.9453C51.153 15.0469 52.069 15.2793 52.6934 15.7441C53.3177 16.2044 53.6299 16.8812 53.6299 17.7744C53.6299 18.262 53.5046 18.6927 53.2539 19.0664C53.0033 19.4355 52.6546 19.7067 52.208 19.8799C52.7184 20.0075 53.1195 20.265 53.4111 20.6523C53.7074 21.0397 53.8555 21.5137 53.8555 22.0742C53.8555 23.0312 53.5501 23.7559 52.9395 24.248C52.3288 24.7402 51.4583 24.9909 50.3281 25H46.459ZM48.5098 20.666V23.3525H50.2666C50.7497 23.3525 51.1257 23.2386 51.3945 23.0107C51.668 22.7783 51.8047 22.4593 51.8047 22.0537C51.8047 21.1423 51.333 20.6797 50.3896 20.666H48.5098ZM48.5098 19.2168H50.0273C51.0618 19.1986 51.5791 18.7861 51.5791 17.9795C51.5791 17.5283 51.4469 17.2048 51.1826 17.0088C50.9229 16.8083 50.5104 16.708 49.9453 16.708H48.5098V19.2168ZM58.6748 25.1367C57.5902 25.1367 56.7061 24.804 56.0225 24.1387C55.3434 23.4733 55.0039 22.5869 55.0039 21.4795V21.2881C55.0039 20.5452 55.1475 19.8822 55.4346 19.2988C55.7217 18.7109 56.1273 18.2598 56.6514 17.9453C57.18 17.6263 57.7816 17.4668 58.4561 17.4668C59.4678 17.4668 60.263 17.7858 60.8418 18.4238C61.4251 19.0618 61.7168 19.9665 61.7168 21.1377V21.9443H57.0068C57.0706 22.4274 57.262 22.8148 57.5811 23.1064C57.9046 23.3981 58.3125 23.5439 58.8047 23.5439C59.5658 23.5439 60.1605 23.2682 60.5889 22.7168L61.5596 23.8037C61.2633 24.223 60.8623 24.5511 60.3564 24.7881C59.8506 25.0205 59.29 25.1367 58.6748 25.1367ZM58.4492 19.0664C58.0573 19.0664 57.7383 19.1986 57.4922 19.4629C57.2507 19.7272 57.0957 20.1055 57.0273 20.5977H59.7754V20.4404C59.7663 20.0029 59.6478 19.6657 59.4199 19.4287C59.1921 19.1872 58.8685 19.0664 58.4492 19.0664ZM68.9014 19.1895H66.5293V25H64.5469V19.1895H62.2158V17.6035H68.9014V19.1895ZM76.5576 21.3701C76.5576 22.5094 76.2979 23.4232 75.7783 24.1113C75.2633 24.7949 74.5661 25.1367 73.6865 25.1367C72.9391 25.1367 72.3353 24.877 71.875 24.3574V27.8438H69.8994V17.6035H71.7314L71.7998 18.3281C72.2783 17.7539 72.9027 17.4668 73.6729 17.4668C74.5843 17.4668 75.293 17.804 75.7988 18.4785C76.3047 19.153 76.5576 20.0827 76.5576 21.2676V21.3701ZM74.582 21.2266C74.582 20.5384 74.459 20.0075 74.2129 19.6338C73.9714 19.2601 73.6182 19.0732 73.1533 19.0732C72.5335 19.0732 72.1074 19.3102 71.875 19.7842V22.8125C72.1165 23.3001 72.5472 23.5439 73.167 23.5439C74.1104 23.5439 74.582 22.7715 74.582 21.2266ZM77.4805 21.2334C77.4805 20.4997 77.6217 19.8457 77.9043 19.2715C78.1868 18.6973 78.5924 18.2529 79.1211 17.9385C79.6543 17.624 80.2718 17.4668 80.9736 17.4668C81.9717 17.4668 82.7852 17.7721 83.4141 18.3828C84.0475 18.9935 84.4007 19.8229 84.4736 20.8711L84.4873 21.377C84.4873 22.5117 84.1706 23.4232 83.5371 24.1113C82.9036 24.7949 82.0537 25.1367 80.9873 25.1367C79.9209 25.1367 79.0687 24.7949 78.4307 24.1113C77.7972 23.4277 77.4805 22.498 77.4805 21.3223V21.2334ZM79.4561 21.377C79.4561 22.0788 79.5882 22.6165 79.8525 22.9902C80.1169 23.3594 80.4951 23.5439 80.9873 23.5439C81.4658 23.5439 81.8395 23.3617 82.1084 22.9971C82.3773 22.6279 82.5117 22.04 82.5117 21.2334C82.5117 20.5452 82.3773 20.012 82.1084 19.6338C81.8395 19.2555 81.4613 19.0664 80.9736 19.0664C80.4906 19.0664 80.1169 19.2555 79.8525 19.6338C79.5882 20.0075 79.4561 20.5885 79.4561 21.377ZM85.834 25V17.6035H88.9238C89.931 17.6035 90.7035 17.7812 91.2412 18.1367C91.779 18.4922 92.0479 19.0026 92.0479 19.668C92.0479 20.0098 91.9339 20.3174 91.7061 20.5908C91.4827 20.8597 91.1546 21.0671 90.7217 21.2129C91.2503 21.3132 91.665 21.5114 91.9658 21.8076C92.2712 22.0993 92.4238 22.4593 92.4238 22.8877C92.4238 23.5758 92.1641 24.0999 91.6445 24.46C91.1296 24.82 90.3799 25 89.3955 25H85.834ZM87.8096 21.9307V23.4209H89.4023C90.0996 23.4209 90.4482 23.1771 90.4482 22.6895C90.4482 22.1927 90.1156 21.9398 89.4502 21.9307H87.8096ZM87.8096 20.6045H89.0332C89.7259 20.5954 90.0723 20.3721 90.0723 19.9346C90.0723 19.6657 89.9766 19.4743 89.7852 19.3604C89.5983 19.2464 89.3112 19.1895 88.9238 19.1895H87.8096V20.6045Z" fill="white"/>
    <path d="M22.377 40.2227C22.291 41.1328 21.9551 41.8438 21.3691 42.3555C20.7832 42.8633 20.0039 43.1172 19.0312 43.1172C18.3516 43.1172 17.752 42.957 17.2324 42.6367C16.7168 42.3125 16.3184 41.8535 16.0371 41.2598C15.7559 40.666 15.6094 39.9766 15.5977 39.1914V38.3945C15.5977 37.5898 15.7402 36.8809 16.0254 36.2676C16.3105 35.6543 16.7188 35.1816 17.25 34.8496C17.7852 34.5176 18.4023 34.3516 19.1016 34.3516C20.043 34.3516 20.8008 34.6074 21.375 35.1191C21.9492 35.6309 22.2832 36.3535 22.377 37.2871H20.9004C20.8301 36.6738 20.6504 36.2324 20.3613 35.9629C20.0762 35.6895 19.6562 35.5527 19.1016 35.5527C18.457 35.5527 17.9609 35.7891 17.6133 36.2617C17.2695 36.7305 17.0938 37.4199 17.0859 38.3301V39.0859C17.0859 40.0078 17.25 40.7109 17.5781 41.1953C17.9102 41.6797 18.3945 41.9219 19.0312 41.9219C19.6133 41.9219 20.0508 41.791 20.3438 41.5293C20.6367 41.2676 20.8223 40.832 20.9004 40.2227H22.377ZM28.5586 37.791H26.502V43H25.0781V37.791H23.0449V36.6602H28.5586V37.791ZM33.4688 36.6602H34.8867V43H33.4688V38.7695L30.9844 43H29.5664V36.6602H30.9844V40.8906L33.4688 36.6602ZM41.7891 36.6602V43H40.3652V37.8086H38.5723L38.4551 40.0176C38.3809 41.0801 38.1758 41.8438 37.8398 42.3086C37.5078 42.7695 36.998 43 36.3105 43H35.8711L35.8652 41.8164L36.1582 41.7871C36.4707 41.7441 36.6973 41.5547 36.8379 41.2188C36.9824 40.8789 37.0742 40.2617 37.1133 39.3672L37.2305 36.6602H41.7891ZM47.2617 36.6602H48.6797V43H47.2617V38.7695L44.7773 43H43.3594V36.6602H44.7773V40.8906L47.2617 36.6602ZM52.7988 41.9805C53.1543 41.9805 53.4492 41.877 53.6836 41.6699C53.918 41.4629 54.043 41.207 54.0586 40.9023H55.4004C55.3848 41.2969 55.2617 41.666 55.0312 42.0098C54.8008 42.3496 54.4883 42.6191 54.0938 42.8184C53.6992 43.0176 53.2734 43.1172 52.8164 43.1172C51.9297 43.1172 51.2266 42.8301 50.707 42.2559C50.1875 41.6816 49.9277 40.8887 49.9277 39.877V39.7305C49.9277 38.7656 50.1855 37.9941 50.7012 37.416C51.2168 36.834 51.9199 36.543 52.8105 36.543C53.5645 36.543 54.1777 36.7637 54.6504 37.2051C55.127 37.6426 55.377 38.2188 55.4004 38.9336H54.0586C54.043 38.5703 53.918 38.2715 53.6836 38.0371C53.4531 37.8027 53.1582 37.6855 52.7988 37.6855C52.3379 37.6855 51.9824 37.8535 51.7324 38.1895C51.4824 38.5215 51.3555 39.0273 51.3516 39.707V39.9355C51.3516 40.623 51.4746 41.1367 51.7207 41.4766C51.9707 41.8125 52.3301 41.9805 52.7988 41.9805ZM61.4648 37.791H59.4082V43H57.9844V37.791H55.9512V36.6602H61.4648V37.791ZM65.1797 39.9473H62.1035V38.7988H65.1797V39.9473ZM71.7305 43H70.3066V37.8086H67.834V43H66.4102V36.6602H71.7305V43ZM77.0332 43C76.9707 42.8789 76.916 42.6816 76.8691 42.4082C76.416 42.8809 75.8613 43.1172 75.2051 43.1172C74.5684 43.1172 74.0488 42.9355 73.6465 42.5723C73.2441 42.209 73.043 41.7598 73.043 41.2246C73.043 40.5488 73.293 40.0312 73.793 39.6719C74.2969 39.3086 75.0156 39.127 75.9492 39.127H76.8223V38.7109C76.8223 38.3828 76.7305 38.1211 76.5469 37.9258C76.3633 37.7266 76.084 37.627 75.709 37.627C75.3848 37.627 75.1191 37.709 74.9121 37.873C74.7051 38.0332 74.6016 38.2383 74.6016 38.4883H73.1777C73.1777 38.1406 73.293 37.8164 73.5234 37.5156C73.7539 37.2109 74.0664 36.9727 74.4609 36.8008C74.8594 36.6289 75.3027 36.543 75.791 36.543C76.5332 36.543 77.125 36.7305 77.5664 37.1055C78.0078 37.4766 78.2344 38 78.2461 38.6758V41.5352C78.2461 42.1055 78.3262 42.5605 78.4863 42.9004V43H77.0332ZM75.4688 41.9746C75.75 41.9746 76.0137 41.9062 76.2598 41.7695C76.5098 41.6328 76.6973 41.4492 76.8223 41.2188V40.0234H76.0547C75.5273 40.0234 75.1309 40.1152 74.8652 40.2988C74.5996 40.4824 74.4668 40.7422 74.4668 41.0781C74.4668 41.3516 74.5566 41.5703 74.7363 41.7344C74.9199 41.8945 75.1641 41.9746 75.4688 41.9746ZM85.2891 39.8945C85.2891 40.875 85.0664 41.6582 84.6211 42.2441C84.1758 42.8262 83.5781 43.1172 82.8281 43.1172C82.1328 43.1172 81.5762 42.8887 81.1582 42.4316V45.4375H79.7344V36.6602H81.0469L81.1055 37.3047C81.5234 36.7969 82.0918 36.543 82.8105 36.543C83.584 36.543 84.1895 36.832 84.627 37.4102C85.0684 37.9844 85.2891 38.7832 85.2891 39.8066V39.8945ZM83.8711 39.7715C83.8711 39.1387 83.7441 38.6367 83.4902 38.2656C83.2402 37.8945 82.8809 37.709 82.4121 37.709C81.8301 37.709 81.4121 37.9492 81.1582 38.4297V41.2422C81.416 41.7344 81.8379 41.9805 82.4238 41.9805C82.877 41.9805 83.2305 41.7988 83.4844 41.4355C83.7422 41.0684 83.8711 40.5137 83.8711 39.7715ZM90.457 36.6602H91.875V43H90.457V38.7695L87.9727 43H86.5547V36.6602H87.9727V40.8906L90.457 36.6602ZM95.6426 40.4922H94.9219V43H93.498V36.6602H94.9219V39.1914H95.5488L97.3008 36.6602H99.0586L96.7676 39.6953L99.252 43H97.4004L95.6426 40.4922ZM103.799 41.248L105.674 36.6602H107.455V43H106.031V38.8047L104.285 43H103.318L101.566 38.7812V43H100.143V36.6602H101.936L103.799 41.248ZM112.846 43C112.783 42.8789 112.729 42.6816 112.682 42.4082C112.229 42.8809 111.674 43.1172 111.018 43.1172C110.381 43.1172 109.861 42.9355 109.459 42.5723C109.057 42.209 108.855 41.7598 108.855 41.2246C108.855 40.5488 109.105 40.0312 109.605 39.6719C110.109 39.3086 110.828 39.127 111.762 39.127H112.635V38.7109C112.635 38.3828 112.543 38.1211 112.359 37.9258C112.176 37.7266 111.896 37.627 111.521 37.627C111.197 37.627 110.932 37.709 110.725 37.873C110.518 38.0332 110.414 38.2383 110.414 38.4883H108.99C108.99 38.1406 109.105 37.8164 109.336 37.5156C109.566 37.2109 109.879 36.9727 110.273 36.8008C110.672 36.6289 111.115 36.543 111.604 36.543C112.346 36.543 112.938 36.7305 113.379 37.1055C113.82 37.4766 114.047 38 114.059 38.6758V41.5352C114.059 42.1055 114.139 42.5605 114.299 42.9004V43H112.846ZM111.281 41.9746C111.562 41.9746 111.826 41.9062 112.072 41.7695C112.322 41.6328 112.51 41.4492 112.635 41.2188V40.0234H111.867C111.34 40.0234 110.943 40.1152 110.678 40.2988C110.412 40.4824 110.279 40.7422 110.279 41.0781C110.279 41.3516 110.369 41.5703 110.549 41.7344C110.732 41.8945 110.977 41.9746 111.281 41.9746ZM117.826 38.7461L119.033 36.6602H120.615L118.676 39.7832L120.68 43H119.109L117.844 40.832L116.584 43H115.002L117.006 39.7832L115.072 36.6602H116.643L117.826 38.7461ZM124.26 43.1172C123.357 43.1172 122.625 42.834 122.062 42.2676C121.504 41.6973 121.225 40.9395 121.225 39.9941V39.8184C121.225 39.1855 121.346 38.6211 121.588 38.125C121.834 37.625 122.178 37.2363 122.619 36.959C123.061 36.6816 123.553 36.543 124.096 36.543C124.959 36.543 125.625 36.8184 126.094 37.3691C126.566 37.9199 126.803 38.6992 126.803 39.707V40.2812H122.66C122.703 40.8047 122.877 41.2188 123.182 41.5234C123.49 41.8281 123.877 41.9805 124.342 41.9805C124.994 41.9805 125.525 41.7168 125.936 41.1895L126.703 41.9219C126.449 42.3008 126.109 42.5957 125.684 42.8066C125.262 43.0137 124.787 43.1172 124.26 43.1172ZM124.09 37.6855C123.699 37.6855 123.383 37.8223 123.141 38.0957C122.902 38.3691 122.75 38.75 122.684 39.2383H125.396V39.1328C125.365 38.6562 125.238 38.2969 125.016 38.0547C124.793 37.8086 124.484 37.6855 124.09 37.6855ZM133.465 39.8945C133.465 40.875 133.242 41.6582 132.797 42.2441C132.352 42.8262 131.754 43.1172 131.004 43.1172C130.309 43.1172 129.752 42.8887 129.334 42.4316V45.4375H127.91V36.6602H129.223L129.281 37.3047C129.699 36.7969 130.268 36.543 130.986 36.543C131.76 36.543 132.365 36.832 132.803 37.4102C133.244 37.9844 133.465 38.7832 133.465 39.8066V39.8945ZM132.047 39.7715C132.047 39.1387 131.92 38.6367 131.666 38.2656C131.416 37.8945 131.057 37.709 130.588 37.709C130.006 37.709 129.588 37.9492 129.334 38.4297V41.2422C129.592 41.7344 130.014 41.9805 130.6 41.9805C131.053 41.9805 131.406 41.7988 131.66 41.4355C131.918 41.0684 132.047 40.5137 132.047 39.7715Z" fill="white"/>
</svg>
