<svg width="182" height="60" viewBox="0 0 182 60" fill="none" xmlns="http://www.w3.org/2000/svg">
    <rect width="182" height="60" rx="4" fill="#0CD1E8"/>
    <path d="M15.8887 25V15.0469H19.375C20.5827 15.0469 21.4987 15.2793 22.123 15.7441C22.7474 16.2044 23.0596 16.8812 23.0596 17.7744C23.0596 18.262 22.9342 18.6927 22.6836 19.0664C22.4329 19.4355 22.0843 19.7067 21.6377 19.8799C22.1481 20.0075 22.5492 20.265 22.8408 20.6523C23.137 21.0397 23.2852 21.5137 23.2852 22.0742C23.2852 23.0312 22.9798 23.7559 22.3691 24.248C21.7585 24.7402 20.888 24.9909 19.7578 25H15.8887ZM17.9395 20.666V23.3525H19.6963C20.1794 23.3525 20.5553 23.2386 20.8242 23.0107C21.0977 22.7783 21.2344 22.4593 21.2344 22.0537C21.2344 21.1423 20.7627 20.6797 19.8193 20.666H17.9395ZM17.9395 19.2168H19.457C20.4915 19.1986 21.0088 18.7861 21.0088 17.9795C21.0088 17.5283 20.8766 17.2048 20.6123 17.0088C20.3525 16.8083 19.9401 16.708 19.375 16.708H17.9395V19.2168ZM28.9863 25C28.8952 24.8223 28.8291 24.6012 28.7881 24.3369C28.3096 24.8701 27.6875 25.1367 26.9219 25.1367C26.1973 25.1367 25.5957 24.9271 25.1172 24.5078C24.6432 24.0885 24.4062 23.5599 24.4062 22.9219C24.4062 22.138 24.6956 21.5365 25.2744 21.1172C25.8577 20.6979 26.6986 20.486 27.7969 20.4814H28.7061V20.0576C28.7061 19.7158 28.6172 19.4424 28.4395 19.2373C28.2663 19.0322 27.9906 18.9297 27.6123 18.9297C27.2796 18.9297 27.0176 19.0094 26.8262 19.1689C26.6393 19.3285 26.5459 19.5472 26.5459 19.8252H24.5703C24.5703 19.3968 24.7025 19.0003 24.9668 18.6357C25.2311 18.2712 25.6048 17.9863 26.0879 17.7812C26.571 17.5716 27.1133 17.4668 27.7148 17.4668C28.6263 17.4668 29.3486 17.6969 29.8818 18.1572C30.4196 18.613 30.6885 19.2555 30.6885 20.085V23.291C30.693 23.9928 30.791 24.5238 30.9824 24.8838V25H28.9863ZM27.3525 23.626C27.6442 23.626 27.9131 23.5622 28.1592 23.4346C28.4053 23.3024 28.5876 23.127 28.7061 22.9082V21.6367H27.9678C26.9788 21.6367 26.4525 21.9785 26.3887 22.6621L26.3818 22.7783C26.3818 23.0244 26.4684 23.2272 26.6416 23.3867C26.8148 23.5462 27.0518 23.626 27.3525 23.626ZM38.8643 21.3701C38.8643 22.5094 38.6045 23.4232 38.085 24.1113C37.57 24.7949 36.8727 25.1367 35.9932 25.1367C35.2458 25.1367 34.6419 24.877 34.1816 24.3574V27.8438H32.2061V17.6035H34.0381L34.1064 18.3281C34.585 17.7539 35.2093 17.4668 35.9795 17.4668C36.891 17.4668 37.5996 17.804 38.1055 18.4785C38.6113 19.153 38.8643 20.0827 38.8643 21.2676V21.3701ZM36.8887 21.2266C36.8887 20.5384 36.7656 20.0075 36.5195 19.6338C36.278 19.2601 35.9248 19.0732 35.46 19.0732C34.8402 19.0732 34.4141 19.3102 34.1816 19.7842V22.8125C34.4232 23.3001 34.8538 23.5439 35.4736 23.5439C36.417 23.5439 36.8887 22.7715 36.8887 21.2266ZM46.4316 17.6035V25H44.4561V19.2031H42.7129L42.5898 21.4863C42.5124 22.7031 42.2731 23.5895 41.8721 24.1455C41.471 24.7015 40.874 24.9863 40.0811 25H39.4111L39.3906 23.3936L39.6367 23.373C39.9922 23.3457 40.252 23.1361 40.416 22.7441C40.5801 22.3522 40.6826 21.6846 40.7236 20.7412L40.8604 17.6035H46.4316ZM52.2422 25C52.151 24.8223 52.085 24.6012 52.0439 24.3369C51.5654 24.8701 50.9434 25.1367 50.1777 25.1367C49.4531 25.1367 48.8516 24.9271 48.373 24.5078C47.8991 24.0885 47.6621 23.5599 47.6621 22.9219C47.6621 22.138 47.9515 21.5365 48.5303 21.1172C49.1136 20.6979 49.9544 20.486 51.0527 20.4814H51.9619V20.0576C51.9619 19.7158 51.873 19.4424 51.6953 19.2373C51.5221 19.0322 51.2464 18.9297 50.8682 18.9297C50.5355 18.9297 50.2734 19.0094 50.082 19.1689C49.8952 19.3285 49.8018 19.5472 49.8018 19.8252H47.8262C47.8262 19.3968 47.9583 19.0003 48.2227 18.6357C48.487 18.2712 48.8607 17.9863 49.3438 17.7812C49.8268 17.5716 50.3691 17.4668 50.9707 17.4668C51.8822 17.4668 52.6045 17.6969 53.1377 18.1572C53.6755 18.613 53.9443 19.2555 53.9443 20.085V23.291C53.9489 23.9928 54.0469 24.5238 54.2383 24.8838V25H52.2422ZM50.6084 23.626C50.9001 23.626 51.1689 23.5622 51.415 23.4346C51.6611 23.3024 51.8434 23.127 51.9619 22.9082V21.6367H51.2236C50.2347 21.6367 49.7083 21.9785 49.6445 22.6621L49.6377 22.7783C49.6377 23.0244 49.7243 23.2272 49.8975 23.3867C50.0706 23.5462 50.3076 23.626 50.6084 23.626ZM59.9668 22.6689L61.9014 17.6035H64.376V25H62.4004V20.4609L60.6299 25H59.3037L57.5674 20.5361V25H55.5918V17.6035H58.0459L59.9668 22.6689ZM65.791 21.2334C65.791 20.4997 65.9323 19.8457 66.2148 19.2715C66.4974 18.6973 66.903 18.2529 67.4316 17.9385C67.9648 17.624 68.5824 17.4668 69.2842 17.4668C70.2822 17.4668 71.0957 17.7721 71.7246 18.3828C72.3581 18.9935 72.7113 19.8229 72.7842 20.8711L72.7979 21.377C72.7979 22.5117 72.4811 23.4232 71.8477 24.1113C71.2142 24.7949 70.3643 25.1367 69.2979 25.1367C68.2314 25.1367 67.3792 24.7949 66.7412 24.1113C66.1077 23.4277 65.791 22.498 65.791 21.3223V21.2334ZM67.7666 21.377C67.7666 22.0788 67.8988 22.6165 68.1631 22.9902C68.4274 23.3594 68.8057 23.5439 69.2979 23.5439C69.7764 23.5439 70.1501 23.3617 70.4189 22.9971C70.6878 22.6279 70.8223 22.04 70.8223 21.2334C70.8223 20.5452 70.6878 20.012 70.4189 19.6338C70.1501 19.2555 69.7718 19.0664 69.2842 19.0664C68.8011 19.0664 68.4274 19.2555 68.1631 19.6338C67.8988 20.0075 67.7666 20.5885 67.7666 21.377ZM74.1445 25V17.6035H77.2344C78.2415 17.6035 79.014 17.7812 79.5518 18.1367C80.0895 18.4922 80.3584 19.0026 80.3584 19.668C80.3584 20.0098 80.2445 20.3174 80.0166 20.5908C79.7933 20.8597 79.4652 21.0671 79.0322 21.2129C79.5609 21.3132 79.9756 21.5114 80.2764 21.8076C80.5817 22.0993 80.7344 22.4593 80.7344 22.8877C80.7344 23.5758 80.4746 24.0999 79.9551 24.46C79.4401 24.82 78.6904 25 77.7061 25H74.1445ZM76.1201 21.9307V23.4209H77.7129C78.4102 23.4209 78.7588 23.1771 78.7588 22.6895C78.7588 22.1927 78.4261 21.9398 77.7607 21.9307H76.1201ZM76.1201 20.6045H77.3438C78.0365 20.5954 78.3828 20.3721 78.3828 19.9346C78.3828 19.6657 78.2871 19.4743 78.0957 19.3604C77.9089 19.2464 77.6217 19.1895 77.2344 19.1895H76.1201V20.6045ZM91.5283 15.0469H93.5859V25H91.5283V18.3896L87.543 25H85.4922V15.0469H87.543V21.6709L91.5283 15.0469ZM95.3633 25V17.6035H98.4531C99.4603 17.6035 100.233 17.7812 100.771 18.1367C101.308 18.4922 101.577 19.0026 101.577 19.668C101.577 20.0098 101.463 20.3174 101.235 20.5908C101.012 20.8597 100.684 21.0671 100.251 21.2129C100.78 21.3132 101.194 21.5114 101.495 21.8076C101.8 22.0993 101.953 22.4593 101.953 22.8877C101.953 23.5758 101.693 24.0999 101.174 24.46C100.659 24.82 99.9092 25 98.9248 25H95.3633ZM97.3389 21.9307V23.4209H98.9316C99.6289 23.4209 99.9775 23.1771 99.9775 22.6895C99.9775 22.1927 99.6449 21.9398 98.9795 21.9307H97.3389ZM97.3389 20.6045H98.5625C99.2552 20.5954 99.6016 20.3721 99.6016 19.9346C99.6016 19.6657 99.5059 19.4743 99.3145 19.3604C99.1276 19.2464 98.8405 19.1895 98.4531 19.1895H97.3389V20.6045ZM107.449 25C107.358 24.8223 107.292 24.6012 107.251 24.3369C106.772 24.8701 106.15 25.1367 105.385 25.1367C104.66 25.1367 104.059 24.9271 103.58 24.5078C103.106 24.0885 102.869 23.5599 102.869 22.9219C102.869 22.138 103.159 21.5365 103.737 21.1172C104.321 20.6979 105.161 20.486 106.26 20.4814H107.169V20.0576C107.169 19.7158 107.08 19.4424 106.902 19.2373C106.729 19.0322 106.453 18.9297 106.075 18.9297C105.743 18.9297 105.48 19.0094 105.289 19.1689C105.102 19.3285 105.009 19.5472 105.009 19.8252H103.033C103.033 19.3968 103.165 19.0003 103.43 18.6357C103.694 18.2712 104.068 17.9863 104.551 17.7812C105.034 17.5716 105.576 17.4668 106.178 17.4668C107.089 17.4668 107.812 17.6969 108.345 18.1572C108.882 18.613 109.151 19.2555 109.151 20.085V23.291C109.156 23.9928 109.254 24.5238 109.445 24.8838V25H107.449ZM105.815 23.626C106.107 23.626 106.376 23.5622 106.622 23.4346C106.868 23.3024 107.05 23.127 107.169 22.9082V21.6367H106.431C105.442 21.6367 104.915 21.9785 104.852 22.6621L104.845 22.7783C104.845 23.0244 104.931 23.2272 105.104 23.3867C105.278 23.5462 105.515 23.626 105.815 23.626ZM117.081 25H115.099V22.1562H112.645V25H110.669V17.6035H112.645V20.5703H115.099V17.6035H117.081V25Z" fill="white"/>
    <path d="M22.6172 43H21.1406V35.6641H17.3848V43H15.9082V34.4688H22.6172V43ZM29.8242 39.8945C29.8242 40.875 29.6016 41.6582 29.1562 42.2441C28.7109 42.8262 28.1133 43.1172 27.3633 43.1172C26.668 43.1172 26.1113 42.8887 25.6934 42.4316V45.4375H24.2695V36.6602H25.582L25.6406 37.3047C26.0586 36.7969 26.627 36.543 27.3457 36.543C28.1191 36.543 28.7246 36.832 29.1621 37.4102C29.6035 37.9844 29.8242 38.7832 29.8242 39.8066V39.8945ZM28.4062 39.7715C28.4062 39.1387 28.2793 38.6367 28.0254 38.2656C27.7754 37.8945 27.416 37.709 26.9473 37.709C26.3652 37.709 25.9473 37.9492 25.6934 38.4297V41.2422C25.9512 41.7344 26.373 41.9805 26.959 41.9805C27.4121 41.9805 27.7656 41.7988 28.0195 41.4355C28.2773 41.0684 28.4062 40.5137 28.4062 39.7715ZM33.8262 43.1172C32.9238 43.1172 32.1914 42.834 31.6289 42.2676C31.0703 41.6973 30.791 40.9395 30.791 39.9941V39.8184C30.791 39.1855 30.9121 38.6211 31.1543 38.125C31.4004 37.625 31.7441 37.2363 32.1855 36.959C32.627 36.6816 33.1191 36.543 33.6621 36.543C34.5254 36.543 35.1914 36.8184 35.6602 37.3691C36.1328 37.9199 36.3691 38.6992 36.3691 39.707V40.2812H32.2266C32.2695 40.8047 32.4434 41.2188 32.748 41.5234C33.0566 41.8281 33.4434 41.9805 33.9082 41.9805C34.5605 41.9805 35.0918 41.7168 35.502 41.1895L36.2695 41.9219C36.0156 42.3008 35.6758 42.5957 35.25 42.8066C34.8281 43.0137 34.3535 43.1172 33.8262 43.1172ZM33.6562 37.6855C33.2656 37.6855 32.9492 37.8223 32.707 38.0957C32.4688 38.3691 32.3164 38.75 32.25 39.2383H34.9629V39.1328C34.9316 38.6562 34.8047 38.2969 34.582 38.0547C34.3594 37.8086 34.0508 37.6855 33.6562 37.6855ZM42.8555 43H41.4316V37.8086H38.959V43H37.5352V36.6602H42.8555V43ZM44.1035 39.7715C44.1035 39.1504 44.2266 38.5918 44.4727 38.0957C44.7188 37.5957 45.0645 37.2129 45.5098 36.9473C45.9551 36.6777 46.4668 36.543 47.0449 36.543C47.9004 36.543 48.5938 36.8184 49.125 37.3691C49.6602 37.9199 49.9492 38.6504 49.9922 39.5605L49.998 39.8945C49.998 40.5195 49.877 41.0781 49.6348 41.5703C49.3965 42.0625 49.0527 42.4434 48.6035 42.7129C48.1582 42.9824 47.6426 43.1172 47.0566 43.1172C46.1621 43.1172 45.4453 42.8203 44.9062 42.2266C44.3711 41.6289 44.1035 40.834 44.1035 39.8418V39.7715ZM45.5273 39.8945C45.5273 40.5469 45.6621 41.0586 45.9316 41.4297C46.2012 41.7969 46.5762 41.9805 47.0566 41.9805C47.5371 41.9805 47.9102 41.793 48.1758 41.418C48.4453 41.043 48.5801 40.4941 48.5801 39.7715C48.5801 39.1309 48.4414 38.623 48.1641 38.248C47.8906 37.873 47.5176 37.6855 47.0449 37.6855C46.5801 37.6855 46.2109 37.8711 45.9375 38.2422C45.6641 38.6094 45.5273 39.1602 45.5273 39.8945ZM50.8066 41.8633C51.2012 41.4219 51.4648 41.0039 51.5977 40.6094C51.7344 40.2109 51.8164 39.7031 51.8438 39.0859L51.9258 36.6602H56.3262V41.8633H57.2051V44.8867H55.7871V43H51.7207V44.8867H50.2793L50.2852 41.8633H50.8066ZM52.4766 41.8633H54.9082V37.8848H53.3086L53.2676 39.0977C53.2129 40.2617 52.9492 41.1836 52.4766 41.8633ZM62.0098 43C61.9473 42.8789 61.8926 42.6816 61.8457 42.4082C61.3926 42.8809 60.8379 43.1172 60.1816 43.1172C59.5449 43.1172 59.0254 42.9355 58.623 42.5723C58.2207 42.209 58.0195 41.7598 58.0195 41.2246C58.0195 40.5488 58.2695 40.0312 58.7695 39.6719C59.2734 39.3086 59.9922 39.127 60.9258 39.127H61.7988V38.7109C61.7988 38.3828 61.707 38.1211 61.5234 37.9258C61.3398 37.7266 61.0605 37.627 60.6855 37.627C60.3613 37.627 60.0957 37.709 59.8887 37.873C59.6816 38.0332 59.5781 38.2383 59.5781 38.4883H58.1543C58.1543 38.1406 58.2695 37.8164 58.5 37.5156C58.7305 37.2109 59.043 36.9727 59.4375 36.8008C59.8359 36.6289 60.2793 36.543 60.7676 36.543C61.5098 36.543 62.1016 36.7305 62.543 37.1055C62.9844 37.4766 63.2109 38 63.2227 38.6758V41.5352C63.2227 42.1055 63.3027 42.5605 63.4629 42.9004V43H62.0098ZM60.4453 41.9746C60.7266 41.9746 60.9902 41.9062 61.2363 41.7695C61.4863 41.6328 61.6738 41.4492 61.7988 41.2188V40.0234H61.0312C60.5039 40.0234 60.1074 40.1152 59.8418 40.2988C59.5762 40.4824 59.4434 40.7422 59.4434 41.0781C59.4434 41.3516 59.5332 41.5703 59.7129 41.7344C59.8965 41.8945 60.1406 41.9746 60.4453 41.9746ZM64.8223 43V36.6602H67.3945C68.2617 36.6602 68.9219 36.8125 69.375 37.1172C69.8281 37.418 70.0547 37.8516 70.0547 38.418C70.0547 38.7109 69.9629 38.9746 69.7793 39.209C69.5996 39.4395 69.332 39.6172 68.9766 39.7422C69.3906 39.8281 69.7188 40.002 69.9609 40.2637C70.2031 40.5254 70.3242 40.834 70.3242 41.1895C70.3242 41.7793 70.1055 42.2285 69.668 42.5371C69.2344 42.8457 68.6094 43 67.793 43H64.8223ZM66.2461 40.2988V41.875H67.8047C68.5352 41.875 68.9004 41.6133 68.9004 41.0898C68.9004 40.5625 68.5293 40.2988 67.7871 40.2988H66.2461ZM66.2461 39.2793H67.418C68.2266 39.2793 68.6309 39.041 68.6309 38.5645C68.6309 38.0645 68.248 37.8066 67.4824 37.791H66.2461V39.2793ZM75.3457 43C75.2832 42.8789 75.2285 42.6816 75.1816 42.4082C74.7285 42.8809 74.1738 43.1172 73.5176 43.1172C72.8809 43.1172 72.3613 42.9355 71.959 42.5723C71.5566 42.209 71.3555 41.7598 71.3555 41.2246C71.3555 40.5488 71.6055 40.0312 72.1055 39.6719C72.6094 39.3086 73.3281 39.127 74.2617 39.127H75.1348V38.7109C75.1348 38.3828 75.043 38.1211 74.8594 37.9258C74.6758 37.7266 74.3965 37.627 74.0215 37.627C73.6973 37.627 73.4316 37.709 73.2246 37.873C73.0176 38.0332 72.9141 38.2383 72.9141 38.4883H71.4902C71.4902 38.1406 71.6055 37.8164 71.8359 37.5156C72.0664 37.2109 72.3789 36.9727 72.7734 36.8008C73.1719 36.6289 73.6152 36.543 74.1035 36.543C74.8457 36.543 75.4375 36.7305 75.8789 37.1055C76.3203 37.4766 76.5469 38 76.5586 38.6758V41.5352C76.5586 42.1055 76.6387 42.5605 76.7988 42.9004V43H75.3457ZM73.7812 41.9746C74.0625 41.9746 74.3262 41.9062 74.5723 41.7695C74.8223 41.6328 75.0098 41.4492 75.1348 41.2188V40.0234H74.3672C73.8398 40.0234 73.4434 40.1152 73.1777 40.2988C72.9121 40.4824 72.7793 40.7422 72.7793 41.0781C72.7793 41.3516 72.8691 41.5703 73.0488 41.7344C73.2324 41.8945 73.4766 41.9746 73.7812 41.9746ZM82.9453 37.791H80.8887V43H79.4648V37.791H77.4316V36.6602H82.9453V37.791ZM86.3145 43.1172C85.4121 43.1172 84.6797 42.834 84.1172 42.2676C83.5586 41.6973 83.2793 40.9395 83.2793 39.9941V39.8184C83.2793 39.1855 83.4004 38.6211 83.6426 38.125C83.8887 37.625 84.2324 37.2363 84.6738 36.959C85.1152 36.6816 85.6074 36.543 86.1504 36.543C87.0137 36.543 87.6797 36.8184 88.1484 37.3691C88.6211 37.9199 88.8574 38.6992 88.8574 39.707V40.2812H84.7148C84.7578 40.8047 84.9316 41.2188 85.2363 41.5234C85.5449 41.8281 85.9316 41.9805 86.3965 41.9805C87.0488 41.9805 87.5801 41.7168 87.9902 41.1895L88.7578 41.9219C88.5039 42.3008 88.1641 42.5957 87.7383 42.8066C87.3164 43.0137 86.8418 43.1172 86.3145 43.1172ZM86.1445 37.6855C85.7539 37.6855 85.4375 37.8223 85.1953 38.0957C84.957 38.3691 84.8047 38.75 84.7383 39.2383H87.4512V39.1328C87.4199 38.6562 87.293 38.2969 87.0703 38.0547C86.8477 37.8086 86.5391 37.6855 86.1445 37.6855ZM95.3555 36.6602V43H93.9316V37.8086H92.1387L92.0215 40.0176C91.9473 41.0801 91.7422 41.8438 91.4062 42.3086C91.0742 42.7695 90.5645 43 89.877 43H89.4375L89.4316 41.8164L89.7246 41.7871C90.0371 41.7441 90.2637 41.5547 90.4043 41.2188C90.5488 40.8789 90.6406 40.2617 90.6797 39.3672L90.7969 36.6602H95.3555ZM98.4023 38.6758H99.7969C100.316 38.6758 100.77 38.7656 101.156 38.9453C101.543 39.125 101.836 39.377 102.035 39.7012C102.238 40.0254 102.34 40.4023 102.34 40.832C102.34 41.4844 102.109 42.0078 101.648 42.4023C101.188 42.7969 100.574 42.9961 99.8086 43H96.9785V36.6602H98.4023V38.6758ZM98.4023 39.8184V41.8633H99.791C100.139 41.8633 100.412 41.7773 100.611 41.6055C100.814 41.4297 100.916 41.1816 100.916 40.8613C100.916 40.541 100.816 40.2891 100.617 40.1055C100.422 39.918 100.156 39.8223 99.8203 39.8184H98.4023ZM112.02 39.8945C112.02 40.875 111.797 41.6582 111.352 42.2441C110.906 42.8262 110.309 43.1172 109.559 43.1172C108.863 43.1172 108.307 42.8887 107.889 42.4316V45.4375H106.465V36.6602H107.777L107.836 37.3047C108.254 36.7969 108.822 36.543 109.541 36.543C110.314 36.543 110.92 36.832 111.357 37.4102C111.799 37.9844 112.02 38.7832 112.02 39.8066V39.8945ZM110.602 39.7715C110.602 39.1387 110.475 38.6367 110.221 38.2656C109.971 37.8945 109.611 37.709 109.143 37.709C108.561 37.709 108.143 37.9492 107.889 38.4297V41.2422C108.146 41.7344 108.568 41.9805 109.154 41.9805C109.607 41.9805 109.961 41.7988 110.215 41.4355C110.473 41.0684 110.602 40.5137 110.602 39.7715ZM117.188 36.6602H118.605V43H117.188V38.7695L114.703 43H113.285V36.6602H114.703V40.8906L117.188 36.6602ZM122.725 41.9805C123.08 41.9805 123.375 41.877 123.609 41.6699C123.844 41.4629 123.969 41.207 123.984 40.9023H125.326C125.311 41.2969 125.188 41.666 124.957 42.0098C124.727 42.3496 124.414 42.6191 124.02 42.8184C123.625 43.0176 123.199 43.1172 122.742 43.1172C121.855 43.1172 121.152 42.8301 120.633 42.2559C120.113 41.6816 119.854 40.8887 119.854 39.877V39.7305C119.854 38.7656 120.111 37.9941 120.627 37.416C121.143 36.834 121.846 36.543 122.736 36.543C123.49 36.543 124.104 36.7637 124.576 37.2051C125.053 37.6426 125.303 38.2188 125.326 38.9336H123.984C123.969 38.5703 123.844 38.2715 123.609 38.0371C123.379 37.8027 123.084 37.6855 122.725 37.6855C122.264 37.6855 121.908 37.8535 121.658 38.1895C121.408 38.5215 121.281 39.0273 121.277 39.707V39.9355C121.277 40.623 121.4 41.1367 121.646 41.4766C121.896 41.8125 122.256 41.9805 122.725 41.9805ZM126.135 39.7715C126.135 39.1504 126.258 38.5918 126.504 38.0957C126.75 37.5957 127.096 37.2129 127.541 36.9473C127.986 36.6777 128.498 36.543 129.076 36.543C129.932 36.543 130.625 36.8184 131.156 37.3691C131.691 37.9199 131.98 38.6504 132.023 39.5605L132.029 39.8945C132.029 40.5195 131.908 41.0781 131.666 41.5703C131.428 42.0625 131.084 42.4434 130.635 42.7129C130.189 42.9824 129.674 43.1172 129.088 43.1172C128.193 43.1172 127.477 42.8203 126.938 42.2266C126.402 41.6289 126.135 40.834 126.135 39.8418V39.7715ZM127.559 39.8945C127.559 40.5469 127.693 41.0586 127.963 41.4297C128.232 41.7969 128.607 41.9805 129.088 41.9805C129.568 41.9805 129.941 41.793 130.207 41.418C130.477 41.043 130.611 40.4941 130.611 39.7715C130.611 39.1309 130.473 38.623 130.195 38.248C129.922 37.873 129.549 37.6855 129.076 37.6855C128.611 37.6855 128.242 37.8711 127.969 38.2422C127.695 38.6094 127.559 39.1602 127.559 39.8945ZM133.342 43V36.6602H135.914C136.781 36.6602 137.441 36.8125 137.895 37.1172C138.348 37.418 138.574 37.8516 138.574 38.418C138.574 38.7109 138.482 38.9746 138.299 39.209C138.119 39.4395 137.852 39.6172 137.496 39.7422C137.91 39.8281 138.238 40.002 138.48 40.2637C138.723 40.5254 138.844 40.834 138.844 41.1895C138.844 41.7793 138.625 42.2285 138.188 42.5371C137.754 42.8457 137.129 43 136.312 43H133.342ZM134.766 40.2988V41.875H136.324C137.055 41.875 137.42 41.6133 137.42 41.0898C137.42 40.5625 137.049 40.2988 136.307 40.2988H134.766ZM134.766 39.2793H135.938C136.746 39.2793 137.15 39.041 137.15 38.5645C137.15 38.0645 136.768 37.8066 136.002 37.791H134.766V39.2793ZM143.865 43C143.803 42.8789 143.748 42.6816 143.701 42.4082C143.248 42.8809 142.693 43.1172 142.037 43.1172C141.4 43.1172 140.881 42.9355 140.479 42.5723C140.076 42.209 139.875 41.7598 139.875 41.2246C139.875 40.5488 140.125 40.0312 140.625 39.6719C141.129 39.3086 141.848 39.127 142.781 39.127H143.654V38.7109C143.654 38.3828 143.562 38.1211 143.379 37.9258C143.195 37.7266 142.916 37.627 142.541 37.627C142.217 37.627 141.951 37.709 141.744 37.873C141.537 38.0332 141.434 38.2383 141.434 38.4883H140.01C140.01 38.1406 140.125 37.8164 140.355 37.5156C140.586 37.2109 140.898 36.9727 141.293 36.8008C141.691 36.6289 142.135 36.543 142.623 36.543C143.365 36.543 143.957 36.7305 144.398 37.1055C144.84 37.4766 145.066 38 145.078 38.6758V41.5352C145.078 42.1055 145.158 42.5605 145.318 42.9004V43H143.865ZM142.301 41.9746C142.582 41.9746 142.846 41.9062 143.092 41.7695C143.342 41.6328 143.529 41.4492 143.654 41.2188V40.0234H142.887C142.359 40.0234 141.963 40.1152 141.697 40.2988C141.432 40.4824 141.299 40.7422 141.299 41.0781C141.299 41.3516 141.389 41.5703 141.568 41.7344C141.752 41.8945 141.996 41.9746 142.301 41.9746ZM151.939 43H150.516V40.4395H148.049V43H146.625V36.6602H148.049V39.3027H150.516V36.6602H151.939V43ZM157.418 36.6602H158.836V43H157.418V38.7695L154.934 43H153.516V36.6602H154.934V40.8906L157.418 36.6602ZM165.428 36.6602V43H164.01V40.6738H162.68L161.326 43H159.85L161.344 40.4395C160.953 40.2754 160.652 40.041 160.441 39.7363C160.234 39.4316 160.131 39.082 160.131 38.6875C160.131 38.0977 160.357 37.6152 160.811 37.2402C161.268 36.8613 161.883 36.668 162.656 36.6602H165.428ZM161.555 38.7227C161.555 38.9883 161.652 39.2051 161.848 39.373C162.047 39.5371 162.301 39.6191 162.609 39.6191H164.01V37.791H162.697C162.35 37.791 162.072 37.8789 161.865 38.0547C161.658 38.2305 161.555 38.4531 161.555 38.7227Z" fill="white"/>
</svg>
