<svg width="36" height="35" viewBox="0 0 36 35" fill="none" xmlns="http://www.w3.org/2000/svg">
    <path d="M27.8736 5.59453C25.1151 3.38742 21.6871 2.18576 18.1543 2.1875C13.9898 2.1875 10.1002 3.7919 7.19216 6.70537C4.38191 9.52451 2.84177 13.2467 2.85408 17.1835C2.85417 20.0698 3.70154 22.8927 5.29109 25.3019L5.30408 25.3203C5.32322 25.3483 5.34304 25.3764 5.36287 25.4037C5.38269 25.4311 5.4073 25.4666 5.41277 25.4755L5.42781 25.5028C5.50505 25.6396 5.56453 25.8064 5.51189 25.9745L4.25271 30.5314C4.20234 30.7008 4.17475 30.8762 4.17068 31.0529C4.16977 31.5179 4.35327 31.9642 4.68093 32.294C5.0086 32.6239 5.4537 32.8103 5.91863 32.8125C6.16431 32.8044 6.40642 32.7513 6.63298 32.656L11.2466 30.9907L11.3047 30.9682C11.4302 30.9155 11.565 30.8887 11.7011 30.8896C11.8266 30.8899 11.951 30.913 12.0682 30.9579C12.179 31.001 13.1845 31.3858 14.2455 31.6825C15.1273 31.9286 16.9621 32.2978 18.3997 32.2978C22.4773 32.2978 26.2849 30.7187 29.1205 27.8503C31.9314 25.0038 33.4791 21.2201 33.4791 17.1917C33.4794 16.1576 33.3699 15.1265 33.1523 14.1155C32.4455 10.7919 30.5711 7.76494 27.8736 5.59453ZM11.6041 19.6875C11.1714 19.6875 10.7485 19.5592 10.3888 19.3188C10.029 19.0785 9.74866 18.7368 9.58309 18.3371C9.41752 17.9374 9.3742 17.4976 9.45861 17.0732C9.54301 16.6489 9.75135 16.2591 10.0573 15.9532C10.3632 15.6473 10.753 15.4389 11.1773 15.3545C11.6017 15.2701 12.0415 15.3134 12.4412 15.479C12.8409 15.6446 13.1826 15.925 13.4229 16.2847C13.6633 16.6444 13.7916 17.0674 13.7916 17.5C13.7916 18.0802 13.5611 18.6366 13.1509 19.0468C12.7406 19.457 12.1842 19.6875 11.6041 19.6875ZM18.1666 19.6875C17.7339 19.6875 17.311 19.5592 16.9513 19.3188C16.5915 19.0785 16.3112 18.7368 16.1456 18.3371C15.98 17.9374 15.9367 17.4976 16.0211 17.0732C16.1055 16.6489 16.3139 16.2591 16.6198 15.9532C16.9257 15.6473 17.3155 15.4389 17.7398 15.3545C18.1642 15.2701 18.604 15.3134 19.0037 15.479C19.4034 15.6446 19.7451 15.925 19.9854 16.2847C20.2258 16.6444 20.3541 17.0674 20.3541 17.5C20.3541 18.0802 20.1236 18.6366 19.7134 19.0468C19.3031 19.457 18.7467 19.6875 18.1666 19.6875ZM24.7291 19.6875C24.2964 19.6875 23.8735 19.5592 23.5138 19.3188C23.154 19.0785 22.8737 18.7368 22.7081 18.3371C22.5425 17.9374 22.4992 17.4976 22.5836 17.0732C22.668 16.6489 22.8764 16.2591 23.1823 15.9532C23.4882 15.6473 23.878 15.4389 24.3023 15.3545C24.7267 15.2701 25.1665 15.3134 25.5662 15.479C25.9659 15.6446 26.3076 15.925 26.5479 16.2847C26.7883 16.6444 26.9166 17.0674 26.9166 17.5C26.9166 18.0802 26.6861 18.6366 26.2759 19.0468C25.8656 19.457 25.3092 19.6875 24.7291 19.6875Z" fill="#3880FF"/>
</svg>
