<svg width="36" height="35" viewBox="0 0 36 35" fill="none" xmlns="http://www.w3.org/2000/svg">
    <path d="M31.4136 11.5801C31.2107 11.3759 30.9693 11.214 30.7034 11.1037C30.4375 10.9934 30.1524 10.9369 29.8646 10.9375H25.4896V9.84375C25.4896 7.81319 24.6829 5.86579 23.2471 4.42996C21.8113 2.99414 19.8639 2.1875 17.8333 2.1875C15.8028 2.1875 13.8554 2.99414 12.4195 4.42996C10.9837 5.86579 10.1771 7.81319 10.1771 9.84375V10.9375H5.80206C5.2219 10.9375 4.6655 11.168 4.25527 11.5782C3.84503 11.9884 3.61456 12.5448 3.61456 13.125V27.8906C3.61456 30.5566 5.87042 32.8125 8.53644 32.8125H27.1302C28.4198 32.8129 29.6583 32.3087 30.581 31.4077C31.0453 30.9648 31.415 30.4323 31.6679 29.8425C31.9207 29.2527 32.0514 28.6178 32.0521 27.9761V13.125C32.0529 12.8381 31.997 12.5538 31.8874 12.2887C31.7778 12.0235 31.6168 11.7827 31.4136 11.5801ZM22.2083 22.9688H18.9271V26.25C18.9271 26.5401 18.8118 26.8183 18.6067 27.0234C18.4016 27.2285 18.1234 27.3438 17.8333 27.3438C17.5432 27.3438 17.265 27.2285 17.0599 27.0234C16.8548 26.8183 16.7396 26.5401 16.7396 26.25V22.9688H13.4583C13.1682 22.9688 12.89 22.8535 12.6849 22.6484C12.4798 22.4433 12.3646 22.1651 12.3646 21.875C12.3646 21.5849 12.4798 21.3067 12.6849 21.1016C12.89 20.8965 13.1682 20.7812 13.4583 20.7812H16.7396V17.5C16.7396 17.2099 16.8548 16.9317 17.0599 16.7266C17.265 16.5215 17.5432 16.4062 17.8333 16.4062C18.1234 16.4062 18.4016 16.5215 18.6067 16.7266C18.8118 16.9317 18.9271 17.2099 18.9271 17.5V20.7812H22.2083C22.4984 20.7812 22.7766 20.8965 22.9817 21.1016C23.1868 21.3067 23.3021 21.5849 23.3021 21.875C23.3021 22.1651 23.1868 22.4433 22.9817 22.6484C22.7766 22.8535 22.4984 22.9688 22.2083 22.9688ZM23.3021 10.9375H12.3646V9.84375C12.3646 8.39335 12.9407 7.00235 13.9663 5.97676C14.9919 4.95117 16.3829 4.375 17.8333 4.375C19.2837 4.375 20.6747 4.95117 21.7003 5.97676C22.7259 7.00235 23.3021 8.39335 23.3021 9.84375V10.9375Z" fill="#3880FF"/>
</svg>
