<svg width="53" height="35" viewBox="0 0 53 35" fill="none" xmlns="http://www.w3.org/2000/svg">
    <path d="M11.2138 30.6249C9.29767 30.6249 7.62667 30.126 6.20083 29.1269C4.77498 28.1277 3.67742 26.7013 2.90533 24.8477C2.13605 22.9926 1.75 20.8165 1.75 18.3206C1.75 14.516 2.59677 11.5141 4.29172 9.31499C5.98526 7.1159 8.2931 6.01636 11.2152 6.01636C14.1359 6.01636 16.4381 7.1159 18.1204 9.31499C19.8027 11.5141 20.6438 14.516 20.6438 18.3206C20.6438 22.101 19.7971 25.0971 18.1021 27.3077C16.4072 29.5182 14.112 30.6249 11.2138 30.6249ZM7.93663 23.9374C8.69605 25.2333 9.78798 25.8813 11.2138 25.8813C12.6383 25.8813 13.7259 25.2333 14.4741 23.9374C15.2222 22.6414 15.5956 20.7749 15.5956 18.3378C15.5956 15.9008 15.2152 14.0286 14.4558 12.7211C13.6964 11.4137 12.6157 10.76 11.2138 10.76C9.78798 10.76 8.69605 11.408 7.93663 12.7039C7.17722 13.9999 6.79681 15.8721 6.79681 18.3206C6.79821 20.7692 7.17722 22.6414 7.93663 23.9374Z" fill="#3880FF"/>
    <path d="M33.7343 14.7354C32.6001 15.865 31.1517 16.4298 29.3877 16.4298C27.6237 16.4298 26.1739 15.865 25.0412 14.7354C23.907 13.6057 23.3406 12.1621 23.3406 10.4017C23.3406 8.64272 23.907 7.19769 25.0412 6.06804C26.1754 4.93982 27.6294 4.375 29.406 4.375C30.2937 4.375 31.1109 4.52409 31.8604 4.82084C32.6086 5.11902 33.2454 5.53475 33.7709 6.06947C34.2965 6.60419 34.705 7.24643 34.9981 7.99475C35.2898 8.74307 35.4363 9.54587 35.4363 10.4017C35.4349 12.1621 34.8685 13.6072 33.7343 14.7354ZM26.9179 30.3397L41.8145 5.195H47.1431L32.245 30.3397H26.9179ZM29.406 12.4359C29.9893 12.4359 30.4684 12.2453 30.8432 11.8654C31.2165 11.4855 31.4039 10.9981 31.4039 10.4031C31.4039 9.80964 31.2165 9.32223 30.8432 8.9409C30.4684 8.56101 29.9893 8.37034 29.406 8.37034C28.8213 8.37034 28.3423 8.56101 27.9689 8.9409C27.5941 9.32223 27.4082 9.80964 27.4082 10.4031C27.4082 10.9981 27.6012 11.4855 27.9858 11.8654C28.3719 12.2453 28.8453 12.4359 29.406 12.4359ZM49.5792 28.6625C48.445 29.7806 46.9966 30.3383 45.2326 30.3383C43.4686 30.3383 42.0188 29.7792 40.886 28.6625C39.7518 27.5457 39.1855 26.1064 39.1855 24.3474C39.1855 22.5884 39.7518 21.1434 40.886 20.0138C42.0188 18.8841 43.4672 18.3193 45.2326 18.3193C46.9966 18.3193 48.445 18.8841 49.5792 20.0138C50.712 21.1434 51.2798 22.5884 51.2798 24.3474C51.2783 26.1078 50.712 27.5457 49.5792 28.6625ZM45.2143 26.3802C45.4947 26.3802 45.7638 26.3272 46.0202 26.2197C46.2766 26.1121 46.4936 25.9702 46.6683 25.791C46.843 25.6133 46.9783 25.3982 47.0713 25.1488C47.1643 24.8993 47.2122 24.6313 47.2122 24.346C47.2122 23.7281 47.0248 23.235 46.6514 22.8651C46.2766 22.4967 45.7976 22.3118 45.2143 22.3118C44.6296 22.3118 44.1505 22.5024 43.7772 22.8823C43.4038 23.2636 43.2164 23.7511 43.2164 24.3446C43.2164 24.9151 43.4094 25.3968 43.7941 25.7896C44.1801 26.1838 44.6535 26.3802 45.2143 26.3802Z" fill="#3880FF"/>
</svg>
