<svg width="53" height="85" viewBox="0 0 53 85" fill="none" xmlns="http://www.w3.org/2000/svg">
<path fill-rule="evenodd" clip-rule="evenodd" d="M51.4878 26.9777C51.4878 22.9965 50.5789 19.1887 48.7863 15.6647C48.5998 15.2981 48.7459 14.8494 49.1127 14.6628C49.4794 14.4764 49.9283 14.6225 50.1148 14.9891C52.0149 18.7247 52.9782 22.757 52.9782 26.9779C52.9782 33.2289 50.7582 39.2967 46.7277 44.0629C44.0783 47.1961 42.3714 51.02 41.7612 55.1583L41.7025 55.5569L42.0794 55.6991C43.3047 56.1614 44.1767 57.3455 44.1767 58.7272V63.4414C44.1767 65.1927 42.7761 66.6237 41.0363 66.6741L40.5508 66.6882V72.0463C40.5508 75.6607 37.6095 78.602 33.9951 78.602H32.7587L32.7031 79.0388C32.3115 82.1141 29.6789 84.5 26.5002 84.5C23.3214 84.5 20.6888 82.1141 20.2974 79.0388L20.2418 78.602H19.0054C15.3909 78.602 12.4497 75.6607 12.4497 72.0463V66.6882L11.9642 66.6741C10.2244 66.6238 8.82377 65.1928 8.82377 63.4414V58.7272C8.82377 57.3475 9.69315 56.165 10.9156 55.7012L11.2922 55.5584L11.2328 55.16C10.6149 51.0131 8.90358 47.1822 6.25111 44.0372C2.07723 39.0886 -0.132026 32.7887 0.0310926 26.297C0.203952 19.4142 3.02077 12.9524 7.96578 8.09917C12.9097 3.24683 19.4232 0.549516 26.3091 0.500836C34.3243 0.459655 42.0199 4.07982 47.0725 10.3068C47.3318 10.6265 47.283 11.0957 46.9633 11.355C46.644 11.6141 46.1746 11.5653 45.9152 11.2457C41.1003 5.3113 33.9623 1.93164 26.32 1.99076C19.8225 2.03655 13.6743 4.58454 9.00998 9.16234C4.34507 13.7407 1.6843 19.84 1.52114 26.334C1.36734 32.4598 3.45157 38.4058 7.39056 43.0761C10.2458 46.4612 12.0804 50.5903 12.724 55.0627L12.7857 55.4915H22.2554V39.8573H18.3586C15.6411 39.8573 13.4295 37.6457 13.4295 34.9282C13.4295 32.2108 15.6411 29.9992 18.3586 29.9992H18.8165C21.5339 29.9992 23.7455 32.2108 23.7455 34.9282V38.367H29.2555V34.9282C29.2555 32.2108 31.4671 29.9992 34.1845 29.9992H34.6424C37.3598 29.9992 39.5714 32.2108 39.5714 34.9282C39.5714 37.6457 37.3598 39.8573 34.6424 39.8573H30.7455V55.4915H40.21L40.2711 55.062C40.9068 50.5969 42.7371 46.4741 45.5898 43.1004C49.3934 38.6025 51.4878 32.8767 51.4878 26.9777ZM30.7455 34.9285L30.7454 38.3673H34.6422C36.5388 38.3673 38.081 36.8252 38.081 34.9285C38.081 33.0319 36.5388 31.4897 34.6422 31.4897H34.1844C32.2877 31.4897 30.7455 33.0319 30.7455 34.9285ZM18.3584 38.3673H22.2551V34.9285C22.2551 33.0319 20.7129 31.4897 18.8163 31.4897H18.3584C16.4618 31.4897 14.9196 33.0319 14.9196 34.9285C14.9196 36.8252 16.4618 38.3673 18.3584 38.3673ZM29.2553 39.8576H23.7453V55.4919H29.2553V39.8576ZM31.2914 78.6021H21.7093L21.8322 79.2025C22.2766 81.3723 24.1995 83.0099 26.5003 83.0099C28.8012 83.0099 30.724 81.3723 31.1684 79.2025L31.2914 78.6021ZM39.0607 70.6941V66.6768H34.409C33.9975 66.6768 33.6639 66.3431 33.6639 65.9316C33.6639 65.5201 33.9975 65.1865 34.409 65.1865H40.9415C41.9043 65.1865 42.6866 64.4042 42.6866 63.4414V58.7272C42.6866 57.7644 41.9043 56.9821 40.9415 56.9821H12.0593C11.0965 56.9821 10.3142 57.7644 10.3142 58.7272V63.4414C10.3142 64.4042 11.0965 65.1865 12.0593 65.1865H28.9821C29.3936 65.1865 29.7272 65.5201 29.7272 65.9316C29.7272 66.3431 29.3936 66.6768 28.9821 66.6768H13.9401V70.6941H19.5688C19.9803 70.6941 20.314 71.0277 20.314 71.4392C20.314 71.8507 19.9803 72.1843 19.5688 72.1843H13.9104L13.9905 72.7539C14.3361 75.2131 16.4515 77.1117 19.0056 77.1117H33.9953C36.5493 77.1117 38.6648 75.2131 39.0103 72.7539L39.0904 72.1843H24.9959C24.5844 72.1843 24.2508 71.8507 24.2508 71.4392C24.2508 71.0277 24.5844 70.6941 24.9959 70.6941H39.0607Z" fill="#3880FF"/>
</svg>
