<svg width="83" height="85" viewBox="0 0 83 85" fill="none" xmlns="http://www.w3.org/2000/svg">
<path d="M22.2026 54.0482C22.3792 53.6765 22.8235 53.5182 23.1954 53.6948C25.3391 54.7124 27.4485 54.7124 29.5922 53.6947C29.964 53.5182 30.4083 53.6765 30.5849 54.0483C30.7613 54.42 30.603 54.8643 30.2313 55.0409C28.9474 55.6505 27.6666 55.95 26.3938 55.95C25.1211 55.95 23.8401 55.6505 22.5563 55.0409C22.1845 54.8643 22.0263 54.42 22.2026 54.0482Z" fill="#3880FF"/>
<path d="M22.3842 39.1416C21.103 38.3879 19.6881 38.3879 18.4069 39.1416C18.052 39.3503 17.5954 39.2319 17.3868 38.8772C17.1782 38.5226 17.2966 38.0658 17.6513 37.8572C19.456 36.7956 21.3352 36.7956 23.1397 37.8572C23.4944 38.0658 23.6127 38.5226 23.404 38.8773C23.1967 39.2299 22.7426 39.3526 22.3842 39.1416Z" fill="#3880FF"/>
<path d="M20.3953 42.5566C20.8067 42.5566 21.1404 42.8902 21.1404 43.3017V45.0417C21.1404 45.4532 20.8067 45.7868 20.3953 45.7868C19.9838 45.7868 19.6501 45.4532 19.6501 45.0417V43.3017C19.6501 42.8902 19.9838 42.5566 20.3953 42.5566Z" fill="#3880FF"/>
<path fill-rule="evenodd" clip-rule="evenodd" d="M34.0113 70.2082C34.0113 70.4753 34.1853 70.7121 34.4431 70.79C36.5865 71.4388 38.7642 71.9722 40.8647 72.7574C41.2501 72.9014 41.4458 73.3307 41.3018 73.7162C41.1574 74.1025 40.7276 74.2968 40.343 74.1532C38.1867 73.3472 35.8898 72.7846 34.0115 72.2161C33.1188 71.9462 32.521 71.1413 32.521 70.208V63.5982C28.3138 65.9184 24.4336 65.8983 20.267 63.6062V70.208C20.267 71.1416 19.6687 71.9467 18.7741 72.2164C15.5144 73.2043 12.0549 73.9062 9.12799 75.7316C7.86707 76.518 6.92698 77.4725 6.30514 78.6142C5.56079 79.9809 5.39547 81.4812 5.39547 83.0096H47.4842C47.5196 80.6741 46.9282 78.4628 45.141 76.8389C44.8363 76.562 44.8138 76.0909 45.0905 75.7865C45.3674 75.4818 45.8386 75.4593 46.143 75.736C48.3132 77.7077 48.6009 79.9905 48.8822 82.715C48.8664 83.7015 48.0582 84.4999 47.0682 84.4999H5.71767C4.719 84.4999 3.90507 83.6858 3.90507 82.6856C3.90507 79.1484 5.29441 76.366 8.33917 74.4671C11.3819 72.5696 15.2324 71.7323 18.3422 70.7901C18.5925 70.7145 18.7764 70.4849 18.7764 70.208V62.5821C15.6938 60.2573 13.2562 57.2442 11.7099 53.7042C7.99665 53.4503 3.78205 51.1017 3.78205 46.8983C3.78205 46.2812 3.89701 45.687 4.06637 45.0968C1.39175 40.7479 0.569561 35.5892 1.05625 30.554C1.62585 24.6469 3.93318 19.4902 7.51778 16.013C8.44498 15.1128 9.49295 14.2929 10.632 13.5777C10.9808 13.3587 11.4405 13.464 11.6592 13.8124C11.8781 14.1609 11.7731 14.6208 11.4245 14.8397C10.376 15.4982 9.41094 16.2522 8.55604 17.0822C5.19374 20.3437 3.07114 25.1875 2.53982 30.6973C2.1089 35.1547 2.82903 39.4853 4.83151 43.4933C6.41522 41.6737 8.40176 40.5606 10.7742 40.169C11.2345 37.468 12 35 13.193 32.6927C14.7062 28.0439 18.7867 23.9662 23.6219 22.3102C27.2058 21.0828 32.8995 20.5591 39.5996 25.2011C39.9379 25.4355 40.0221 25.8997 39.7878 26.2379C39.5534 26.5762 39.0893 26.6605 38.751 26.4261C32.6133 22.1737 27.408 22.5886 24.1048 23.7199C23.0978 24.0648 22.0937 24.538 21.1653 25.0622C20.8574 25.236 20.4565 25.4922 20.585 25.9106C20.7424 26.4233 21.348 26.2814 21.7342 26.1855C23.0639 25.8549 24.8073 26.1797 26.1021 26.4723C28.4634 27.0041 30.6197 28.1975 32.3697 29.8629C35.054 31.3851 37.2543 33.7034 39.068 36.1704C40.9722 38.7606 42.4325 41.5897 43.1493 43.9554C43.2686 44.3492 43.0461 44.7651 42.6523 44.8844C42.2585 45.0037 41.8425 44.7812 41.7232 44.3874C40.9718 41.9078 39.5993 38.9086 37.8833 37.002C37.5856 36.6713 37.0366 36.4699 36.7586 36.9358C36.5749 37.2437 36.6549 37.6496 36.7212 37.9859L36.7331 38.0469C37.347 41.2143 36.8098 44.2642 36.2675 47.3141L36.2624 47.3427C35.8637 49.5852 35.4758 51.7667 35.5609 53.9898L35.5613 54.0005L35.5622 54.0112C36.1271 60.9558 41.0794 66.3874 47.3511 67.7705C54.046 69.3986 64.2967 67.4686 75.381 54.3889C76.1694 53.4586 75.9011 52.1654 75.6221 50.8207C75.3312 49.4189 75.0287 47.9611 75.8995 46.8C78.2742 43.6338 79.6904 40.8591 80.3508 37.8764C81.0817 34.5746 80.8123 31.1638 80.3049 27.8511C80.2684 27.6115 80.187 27.3729 79.9419 27.2724C79.7111 27.1777 79.4841 27.2825 79.2885 27.4061C74.097 30.6664 67.6047 29.4057 62.2006 27.4349L60.9901 30.761C59.7683 34.1184 58.5464 37.4758 57.324 40.833C57.087 41.4835 56.4783 41.9107 55.7843 41.9107C55.1418 41.9107 54.563 41.5399 54.2951 40.9493C53.4609 39.104 52.3897 36.2294 52.0012 32.9834C51.5965 29.6025 52.0691 26.3218 53.5596 23.26C52.323 22.5785 51.0838 21.8767 49.8386 21.1715C42.09 16.7835 34.1085 12.2635 25.0917 11.6836C22.1682 11.4942 19.2128 11.8019 16.542 12.5769C16.1472 12.6917 15.7334 12.4644 15.6188 12.0692C15.504 11.674 15.7314 11.2605 16.1265 11.1459C18.9545 10.3252 22.0889 9.99579 25.1879 10.1966C34.4791 10.7942 42.6708 15.4182 50.6473 19.9209C51.878 20.6155 53.1035 21.3073 54.3271 21.981C55.9578 19.7131 58.0499 17.9614 60.4842 16.5991C60.5287 15.1568 61.1076 13.9788 62.1651 13.0235L60.6716 8.92126L60.1147 9.56095C59.3046 10.4917 58.0994 11.0383 56.8664 11.0383C55.1007 11.0383 53.4412 9.94707 52.8042 8.19702L52.1128 6.29714C51.718 5.21248 51.7691 4.04164 52.2569 2.99557C52.7447 1.94933 53.6087 1.15763 54.6934 0.762879C55.778 0.368146 56.9487 0.419355 57.995 0.907052C59.0413 1.39488 59.833 2.25877 60.2277 3.34354L63.4938 12.3166C64.3927 12.1278 65.2262 12.1294 66.1178 12.3165L69.3837 3.3436C70.198 1.10672 72.6817 -0.0509771 74.918 0.762874C76.0026 1.15781 76.8667 1.94952 77.3545 2.99555C77.8423 4.04179 77.8934 5.21249 77.4987 6.29729L76.8072 8.19697C76.4123 9.28167 75.6206 10.1457 74.5745 10.6335C72.8519 11.4366 70.7427 10.9925 69.4967 9.56111L68.9398 8.92142L67.4463 13.0236C68.511 13.9856 69.083 15.1713 69.1273 16.5991C73.1407 18.8428 76.141 22.3022 77.3602 26.7847L78.9372 25.852C79.9858 25.1155 81.4577 25.7258 81.6775 27.0029C82.3316 30.8494 82.7093 34.2471 82.2307 37.568C81.7541 40.8749 80.4232 44.1361 77.6076 47.6895C77.1919 48.2142 77.1526 48.8766 77.2016 49.4923C77.2384 49.9546 77.3047 50.4168 77.3707 50.8763C77.6118 52.557 77.8476 54.2013 76.6154 55.6799C69.4935 64.2262 58.7201 72.073 46.9934 69.2172C42.2895 68.0716 38.4749 65.0428 35.9965 60.9388C35.3527 61.5076 34.698 62.059 34.0113 62.5763V70.2082ZM70.1871 7.91487C69.8743 7.24389 69.8345 6.48814 70.0806 5.78873L70.081 5.78728L70.7841 3.85316C71.3173 2.38745 72.9429 1.62962 74.4083 2.163C75.1171 2.421 75.6851 2.94129 76.0038 3.62506C76.3227 4.30871 76.3562 5.07841 76.0982 5.78718L75.4067 7.68706C75.1487 8.3958 74.6284 8.96386 73.9447 9.28257C73.2611 9.60118 72.4915 9.63497 71.7826 9.37692C71.0738 9.11892 70.5058 8.59864 70.1871 7.91487ZM54.205 7.6872C54.7384 9.15265 56.3634 9.91046 57.8291 9.3771C59.2938 8.84398 60.0519 7.22898 59.5224 5.76382C59.4473 5.556 59.3766 5.34398 59.3055 5.13116C59.1568 4.6856 59.007 4.23652 58.8136 3.81508L58.8128 3.81322C58.2639 2.37092 56.6582 1.63348 55.2034 2.16319C53.7347 2.69764 52.9792 4.31906 53.5135 5.78732L54.205 7.6872ZM55.2256 23.355C54.0202 25.3586 51.8117 30.6375 55.0339 38.868L55.035 38.8706C55.1537 39.1739 55.2997 39.5468 55.6676 39.5993C56.1246 39.6645 56.3288 39.211 56.4578 38.8567L63.1531 20.4616C62.1015 19.8969 61.3765 19.149 60.7959 18.1261C58.5814 19.4704 56.5774 21.1079 55.2256 23.355ZM67.4171 27.4531L64.806 20.2778L62.7103 26.0353C64.2536 26.5976 65.8222 27.0597 67.4171 27.4531ZM66.4587 20.4614L69.1047 27.7329C71.4048 28.016 73.7033 27.9317 75.9487 27.3241C74.9348 23.2928 72.3148 20.2486 68.8164 18.1247C68.2358 19.1482 67.5108 19.8965 66.4587 20.4614ZM35.2705 38.3308C34.2987 33.3313 30.8701 29.0737 25.7749 27.9262C20.9284 26.8316 17.0142 29.3817 14.5343 33.3641L13.8454 34.7302C12.4707 37.8121 11.7889 41.8624 11.7889 46.7437C11.7889 51.973 14.2817 56.3289 17.3192 59.366C19.6003 61.6468 22.9963 64 26.3938 64C29.7492 64 33.0059 61.7128 35.3111 59.526C34.5985 57.7695 34.1441 55.9476 34.0721 54.0467C33.9846 51.7633 34.389 49.499 34.7928 47.2376C35.3217 44.2756 35.8497 41.3188 35.2705 38.3308ZM64.8058 19.2774C66.3644 19.2774 67.6318 18.0099 67.6318 16.4513C67.6318 14.8925 66.3646 13.6253 64.8058 13.6253C63.2472 13.6253 61.9797 14.8927 61.9797 16.4513C61.9797 18.0099 63.2472 19.2774 64.8058 19.2774ZM5.27279 46.8983C5.27279 50.1383 8.41378 51.6399 11.1405 52.2047C10.1931 48.7203 10.2241 45.2598 10.5643 41.6833C8.04883 42.3698 5.27279 43.9192 5.27279 46.8983Z" fill="#3880FF"/>
</svg>
