<svg width="65" height="85" viewBox="0 0 65 85" fill="none" xmlns="http://www.w3.org/2000/svg">
<path fill-rule="evenodd" clip-rule="evenodd" d="M57.3418 54.6627L57.3437 54.6635C60.7289 56.0564 64.3998 60.0732 64.4001 65.581V69.88C64.4001 70.2915 64.0665 70.6251 63.655 70.6251C63.2435 70.6251 62.9099 70.2915 62.9099 69.88V65.581C62.9099 60.4404 59.272 57.0743 56.7893 56.0466L50.2693 53.5216L44.5435 59.2474V68.024H45.9713C47.5484 68.024 48.8323 69.3079 48.8323 70.885V78.2559L49.283 78.3006C49.659 78.3379 49.9529 78.6559 49.9529 79.0419C49.9529 79.4534 49.6193 79.787 49.2078 79.787H46.9666C46.5551 79.787 46.2215 79.4534 46.2215 79.0419C46.2215 78.6559 46.5154 78.3379 46.8915 78.3006L47.3421 78.2559V70.885C47.3421 70.1288 46.7276 69.5143 45.9713 69.5143H41.6254C40.8691 69.5143 40.2546 70.1288 40.2546 70.885V78.2596L40.71 78.3004C41.0897 78.3345 41.3872 78.6538 41.3872 79.0419C41.3872 79.4534 41.0536 79.787 40.6421 79.787H38.4009C37.9894 79.787 37.6558 79.4534 37.6558 79.0419C37.6558 78.6586 37.9458 78.3423 38.3187 78.3016L38.7644 78.2529V70.885C38.7644 69.3079 40.0483 68.024 41.6254 68.024H43.0533V60.7376L36.3789 67.412C34.2381 69.5528 30.7639 69.5526 28.623 67.412L22.0877 60.8768V67.5668L22.4747 67.6566C24.6919 68.1713 26.3488 70.1625 26.3488 72.5321C26.3488 75.2922 24.1027 77.5383 21.3426 77.5383C18.5825 77.5383 16.3364 75.292 16.3364 72.5321C16.3364 70.1627 17.9933 68.1713 20.2105 67.6566L20.5975 67.5668V59.3865L14.7306 53.5197L8.22355 56.0423L8.21313 56.0466C5.73044 57.0741 2.09196 60.4402 2.09196 65.581V81.5575C2.09196 82.3588 2.74298 83.0098 3.54423 83.0098H10.2738V64.2869C10.2738 63.8754 10.6074 63.5418 11.0189 63.5418C11.4304 63.5418 11.764 63.8754 11.764 64.2869V83.0098H53.2373V64.2869C53.2373 63.8754 53.5709 63.5418 53.9824 63.5418C54.3939 63.5418 54.7276 63.8754 54.7276 64.2869V83.0099H61.4571C62.2584 83.0099 62.9094 82.3589 62.9094 81.5577V75.6907C62.9094 75.2792 63.243 74.9456 63.6545 74.9456C64.066 74.9456 64.3996 75.2792 64.3996 75.6907V81.5577C64.3996 83.1797 63.0792 84.5002 61.4571 84.5002H3.54406C1.92198 84.5002 0.601562 83.1797 0.601562 81.5577V65.5812C0.601562 60.0746 4.27103 56.0583 7.65567 54.6646L7.65761 54.6638L7.67165 54.6582L7.6772 54.656L12.6958 52.7104C10.5249 50.6956 9.33686 48.1402 9.50226 45.1222C9.64091 42.5923 10.6967 40.4735 12.1631 39.7174C14.5702 38.4765 15.6368 36.4277 15.9757 33.8371C16.0079 33.6152 15.9902 33.5243 15.8121 33.3985C14.6694 32.3829 14.0213 30.9648 14.0213 29.4932C14.0213 28.2683 14.4808 27.1493 15.2231 26.1919V20.2733C15.2231 17.781 15.7638 15.3415 16.7667 13.0635C16.7343 12.8525 16.7072 12.6422 16.7072 12.4281V3.71692C16.7072 1.94345 18.1508 0.5 19.9242 0.5H29.5936C30.0051 0.5 30.3387 0.833623 30.3387 1.24512C30.3387 1.65661 30.0051 1.99023 29.5936 1.99023H19.9242C18.9715 1.99023 18.1975 2.76448 18.1975 3.71692V12.4281C18.1975 13.3909 18.9911 14.1548 19.9242 14.1548H45.0734C46.01 14.1548 46.8001 13.3724 46.8001 12.4281V3.71692C46.8001 2.76422 46.0258 1.99023 45.0734 1.99023H35.404C34.9925 1.99023 34.6588 1.65661 34.6588 1.24512C34.6588 0.833623 34.9925 0.5 35.404 0.5H45.0734C46.8469 0.5 48.2903 1.94344 48.2905 3.71696V12.4279C48.2905 12.6042 48.2706 12.7785 48.2495 12.9531C49.2449 15.1985 49.7788 17.6068 49.7788 20.066V26.192C50.5208 27.1494 50.9799 28.2682 50.9799 29.4928C50.9799 30.9647 50.3318 32.3825 49.1891 33.3982C49.0396 33.5469 48.9929 33.6418 49.0255 33.8368C49.3644 36.4274 50.431 38.476 52.8379 39.7171C54.2851 40.4632 55.2826 42.5488 55.3652 45.0575C55.4643 48.0671 54.2274 50.6084 52.0716 52.6215L57.3293 54.6578L57.3343 54.6596C57.3343 54.6596 57.3362 54.6604 57.3418 54.6627ZM22.7948 69.3334L22.0874 69.0109V72.5319C22.0874 72.9434 21.7538 73.277 21.3423 73.277C20.9308 73.277 20.5971 72.9434 20.5971 72.5319V69.011L19.8898 69.3333C18.6766 69.8863 17.8263 71.1089 17.8263 72.5321C17.8263 74.4714 19.403 76.0481 21.3423 76.0481C23.2816 76.0481 24.8583 74.4712 24.8583 72.5321C24.8583 71.1088 24.0078 69.8863 22.7948 69.3334ZM19.7651 33.3934V25.802C17.6751 26.0184 15.5115 27.0726 15.5115 29.493C15.5115 31.9195 17.6195 33.1664 19.7651 33.3934ZM32.5013 21.4363C30.9718 23.8643 28.8764 25.5053 25.9094 25.7373C24.3536 25.86 22.8147 25.887 21.2551 25.887V33.7566C21.2551 40.0198 26.5585 44.831 32.663 44.831C38.7726 44.831 43.7459 39.7238 43.7459 33.6404V25.8872C42.0533 25.8872 40.3736 25.8422 38.6876 25.6984C35.9154 25.4635 33.9191 23.6828 32.5013 21.4363ZM45.2361 25.7994V33.3934C47.3815 33.1677 49.4897 31.9186 49.4897 29.493C49.4897 27.0487 47.3632 25.9821 45.2361 25.7994ZM24.8168 49.6093L22.0874 50.6676V51.3225L32.0605 61.2957C32.3024 61.5377 32.6975 61.5397 32.9412 61.2951L43.3819 50.8544L39.7527 49.4489C38.0339 48.7845 38 46.5 38.4953 44.8852C34.5368 46.6911 30.4366 46.6246 26.4961 44.8866C27 46.5 26.8597 48.8483 24.8397 49.6003L24.8182 49.6088L24.8168 49.6093ZM50.3277 51.9362C52.512 50.6568 53.6995 48.4125 53.8514 45.9121C53.9444 44.3804 53.7301 41.854 52.155 41.0418C49.4842 39.6644 48.1775 37.2748 47.5935 34.4281C46.7973 34.6743 46.0181 34.8265 45.1808 34.866C44.7147 38.4675 42.9212 41.6912 40.0257 43.893C39.7871 45.315 39.1985 47.6 40.832 48.3849C43.8662 49.8428 47.1466 50.8403 50.3277 51.9362ZM47.3884 14.7573C46.6694 15.2285 45.9691 15.645 45.0734 15.645L19.9238 15.6452C19.0515 15.6452 18.3641 15.2462 17.6562 14.7962C17.0892 16.5837 16.7131 18.3878 16.7131 20.2735V25.0493C17.9197 24.5799 19.1157 24.238 20.4318 24.3849C22.3257 24.5971 24.3244 24.3639 26.1292 24.225C28.6823 24.0292 30.9589 22.083 31.5804 19.5145C31.6846 19.0855 32.0627 18.7886 32.5007 18.7886C32.9275 18.7886 33.3016 19.0832 33.4281 19.5322C34.1167 21.9766 36.1303 23.9861 38.8131 24.2135C40.686 24.3732 42.5666 24.3971 44.4452 24.3971C45.803 24.2222 47.0353 24.5282 48.2884 25.0033V20.0663C48.2884 18.2396 47.9273 16.4919 47.3884 14.7573ZM12.8461 41.0417C11.244 41.8678 10.9362 44.4023 10.9879 45.9808C11.0707 48.5069 12.2327 50.7766 14.4693 52.0231C17.6905 50.7694 21.0219 49.8675 24.153 48.3736C25.7915 47.5918 25.2105 45.3494 24.9637 43.9231C22.0279 41.7478 20.2461 38.4812 19.8099 34.8663C18.9817 34.8257 18.2024 34.6734 17.4078 34.4288C16.8235 37.2752 15.5169 39.6649 12.8461 41.0417ZM20.0965 51.4394L16.249 52.931L20.5973 57.279V51.9395L20.0965 51.4394ZM22.0874 58.7695L29.6763 66.3584C31.2344 67.9162 33.7664 67.9164 35.3247 66.3584L43.0529 58.6302V53.2908L33.9942 62.3496C33.1685 63.1753 31.8325 63.1753 31.0068 62.3496L22.0874 53.4301V58.7695ZM44.5432 51.3041V57.1398L48.7497 52.9332L44.5432 51.3041Z" fill="#3880FF"/>
<path d="M30.3633 7.32739H31.7556V5.93506C31.7556 5.52356 32.0892 5.18994 32.5007 5.18994C32.9122 5.18994 33.2458 5.52356 33.2458 5.93506V7.32739H34.6382C35.0497 7.32739 35.3833 7.66102 35.3833 8.07251C35.3833 8.484 35.0497 8.81763 34.6382 8.81763H33.2458V10.21C33.2458 10.6215 32.9122 10.9551 32.5007 10.9551C32.0892 10.9551 31.7556 10.6215 31.7556 10.21V8.81763H30.3633C29.9518 8.81763 29.6182 8.484 29.6182 8.07251C29.6182 7.66102 29.9518 7.32739 30.3633 7.32739Z" fill="#3880FF"/>
</svg>
