<svg width="85" height="85" viewBox="0 0 85 85" fill="none" xmlns="http://www.w3.org/2000/svg">
<path d="M47.0842 57.6662C47.0842 57.2546 47.4177 56.9211 47.8293 56.9211C48.2408 56.9211 48.5744 57.2547 48.5744 57.6662V62.2658C48.5744 62.6774 48.2408 63.0109 47.8293 63.0109C47.4177 63.0109 47.0842 62.6774 47.0842 62.2658V57.6662Z" fill="#3880FF"/>
<path fill-rule="evenodd" clip-rule="evenodd" d="M36.5254 27.8906C36.5254 24.5966 39.206 21.916 42.5 21.916C45.794 21.916 48.4746 24.5966 48.4746 27.8906C48.4746 31.1846 45.794 33.8652 42.5 33.8652C39.206 33.8652 36.5254 31.1846 36.5254 27.8906ZM38.0156 27.8906C38.0156 30.3636 40.0268 32.375 42.5 32.375C44.9732 32.375 46.9844 30.3636 46.9844 27.8906C46.9844 25.4176 44.9732 23.4062 42.5 23.4062C40.0268 23.4062 38.0156 25.4176 38.0156 27.8906Z" fill="#3880FF"/>
<path fill-rule="evenodd" clip-rule="evenodd" d="M77.6524 15.9898L81.3621 30.2085H83.0908C83.8674 30.2085 84.5 30.8411 84.5 31.6177V35.27C84.5 36.0466 83.8674 36.6792 83.0908 36.6792H79.5195V77.1569H80.8285C82.8525 77.1569 84.5 78.8042 84.5 80.8284C84.5 82.8525 82.8525 84.5 80.8284 84.5H4.17147C2.1475 84.5 0.5 82.8524 0.5 80.8284C0.5 78.8044 2.14747 77.1569 4.17147 77.1569H5.48047V36.6792H1.90918C1.13262 36.6792 0.5 36.0466 0.5 35.27V31.6177C0.5 30.8411 1.13262 30.2085 1.90918 30.2085H3.63787L7.34739 15.9902C7.8144 14.2008 9.43214 12.9512 11.2808 12.9512H16.1522C16.5637 12.9512 16.8973 13.2847 16.8973 13.6963C16.8973 14.1079 16.5637 14.4414 16.1522 14.4414H11.2808C10.1095 14.4414 9.08515 15.2332 8.78933 16.3666L5.17797 30.2085H15.5909L28.8684 14.4414H21.9627C21.5512 14.4414 21.2176 14.1079 21.2176 13.6963C21.2176 13.2847 21.5512 12.9512 21.9627 12.9512H30.1234L39.3903 1.9467C40.1647 1.02707 41.2976 0.5 42.5 0.5C43.7024 0.5 44.8353 1.02707 45.6097 1.94669L54.8766 12.9512H59.5456V2.40723C59.5456 1.35607 60.4017 0.5 61.4528 0.5H69.963C71.0141 0.5 71.8702 1.35607 71.8702 2.40723V12.9512H73.7192C75.5679 12.9512 77.1856 14.2009 77.6524 15.9898ZM70.38 1.99023H61.0359V12.9512H70.38V1.99023ZM79.822 30.2085L76.2107 16.3664C75.9148 15.2332 74.8905 14.4414 73.7192 14.4414H56.1314L69.4089 30.2085H79.822ZM32.9354 77.1569H52.0646V70.157C52.0646 69.7454 52.3982 69.4119 52.8097 69.4119C53.2213 69.4119 53.5549 69.7454 53.5549 70.157V77.1569H78.0293V36.6792H68.29C67.0876 36.6792 65.9547 36.1522 65.1804 35.2325L42.5 8.29951L19.8195 35.2325C19.0451 36.1523 17.9122 36.6792 16.7098 36.6792H6.9707V77.1569H31.4451V45.2774C31.4451 43.9517 32.5247 42.8722 33.8504 42.8722H51.1496C52.4753 42.8722 53.5549 43.9517 53.5549 45.2774V64.3463C53.5549 64.7579 53.2213 65.0914 52.8097 65.0914C52.3982 65.0914 52.0646 64.7579 52.0646 64.3463V45.2774C52.0646 44.7722 51.6544 44.3624 51.1496 44.3624H33.8504C33.3456 44.3624 32.9354 44.7722 32.9354 45.2774V77.1569ZM43.578 7.26617L66.3203 34.2726C66.8106 34.8547 67.5291 35.189 68.2902 35.189H83.0098V31.6987H69.3715C68.9546 31.6987 68.5623 31.5163 68.2938 31.1974L44.4699 2.90657C43.9796 2.32444 43.2611 1.99023 42.5 1.99023C41.7389 1.99023 41.0204 2.32447 40.5301 2.9066L16.7064 31.1973C16.4377 31.5163 16.0454 31.6987 15.6285 31.6987H1.99023V35.189H16.7098C17.4709 35.189 18.1894 34.8547 18.6797 34.2726L41.4223 7.26589C41.6907 6.947 42.0829 6.76443 42.5 6.76443C42.9171 6.76443 43.3094 6.94708 43.578 7.26617ZM83.0098 80.8284C83.0098 79.6252 82.0317 78.6471 80.8285 78.6471H4.17147C2.9683 78.6471 1.99023 79.6252 1.99023 80.8284C1.99023 82.0317 2.96827 83.0098 4.17147 83.0098H80.8285C82.0317 83.0098 83.0098 82.0317 83.0098 80.8284Z" fill="#3880FF"/>
</svg>
