<svg width="85" height="85" viewBox="0 0 85 85" fill="none" xmlns="http://www.w3.org/2000/svg">
<path d="M42.5 0.5C31.2805 0.5 20.735 4.86816 12.8014 12.8014C4.86814 20.735 0.5 31.2805 0.5 42.5C0.5 53.7195 4.86815 64.265 12.8014 72.1986C20.735 80.1319 31.2805 84.5 42.5 84.5C53.7195 84.5 64.265 80.1319 72.1986 72.1986C80.1319 64.265 84.5 53.7195 84.5 42.5C84.5 35.7633 82.9537 29.331 79.9041 23.3773C76.9954 17.6994 72.7497 12.6726 67.6269 8.84216C67.2971 8.59559 66.8302 8.66314 66.5839 8.99266C66.3374 9.32234 66.4049 9.78928 66.7344 10.0356C71.6766 13.7312 75.7715 18.5788 78.5776 24.0568C81.5185 29.7978 83.0098 36.0045 83.0098 42.5C83.0098 53.3197 78.7954 63.4941 71.1448 71.1448C63.4941 78.7954 53.3197 83.0098 42.5 83.0098C31.6803 83.0098 21.5059 78.7954 13.8552 71.1448C6.20459 63.4941 1.99023 53.3197 1.99023 42.5C1.99023 31.6803 6.20459 21.5059 13.8552 13.8552C21.5059 6.20459 31.6803 1.99023 42.5 1.99023C49.689 1.99023 56.7503 3.89733 62.9208 7.50624C63.2761 7.714 63.7326 7.59436 63.9403 7.23918C64.1481 6.88381 64.0284 6.42743 63.6732 6.21974C57.2758 2.47814 49.9541 0.5 42.5 0.5Z" fill="#3880FF"/>
<path fill-rule="evenodd" clip-rule="evenodd" d="M42.5 73.5548C36.6301 73.5548 30.9153 71.9091 25.9725 68.7962C25.6242 68.5767 25.5198 68.1168 25.7391 67.7686C25.9586 67.4204 26.4186 67.316 26.7667 67.5352C30.9731 70.1845 35.6513 71.5365 40.5648 72.0177L24.383 43.9902L16.8053 57.115L16.9509 57.3654C18.4566 59.9561 20.3594 62.3273 22.6154 64.3789C22.9199 64.6558 22.9423 65.1271 22.6654 65.4315C22.3885 65.7359 21.9175 65.7584 21.6128 65.4815C15.1513 59.6053 11.4452 51.2284 11.4452 42.5C11.4452 25.3767 25.3769 11.4452 42.5 11.4452C54.1416 11.4452 64.3087 17.8839 69.6254 27.3912C72.1936 31.9848 73.5549 37.2376 73.5549 42.5C73.5548 59.6233 59.6233 73.5548 42.5 73.5548ZM67.0841 58.9348H34.732L42.313 72.0653C52.3572 72.0315 61.2856 66.9964 67.0841 58.9348ZM69.029 29.4203L52.8492 57.4445H68.004L68.1482 57.1938C70.6388 52.8627 72.0647 47.8438 72.0647 42.5C72.0647 38.1555 71.1224 34.0255 69.4312 30.3051L69.029 29.4203ZM25.2434 42.5L33.8717 57.4445H51.1283L59.7566 42.5L51.1283 27.5555H33.8717L25.2434 42.5ZM22.7043 27.5555H16.9961L16.8519 27.8062C14.3614 32.1373 12.9355 37.1562 12.9355 42.5C12.9355 46.7412 13.8546 50.8948 15.5718 54.6885L15.9734 55.5757L32.151 27.5553H27.6949C27.2834 27.5553 26.9498 27.2217 26.9498 26.8102C26.9498 26.3987 27.2834 26.0651 27.6949 26.0651C35.2191 26.0648 42.7435 26.0651 50.268 26.0651L42.687 12.9347L42.3972 12.9356C32.5572 12.9689 23.8372 17.833 18.4853 25.2733L17.9157 26.0652H22.7043C23.1158 26.0652 23.4494 26.3989 23.4494 26.8104C23.4494 27.2219 23.1158 27.5555 22.7043 27.5555ZM60.617 41.0098L68.1947 27.8847L68.0482 27.634C63.3801 19.6423 55.0668 14.0237 45.4032 13.077L44.5 13L60.617 41.0098Z" fill="#3880FF"/>
</svg>
