<svg width="85" height="81" viewBox="0 0 85 81" fill="none" xmlns="http://www.w3.org/2000/svg">
<path d="M25.8821 41.5304C26.2675 41.6745 26.4631 42.1039 26.3188 42.4892C26.1748 42.8745 25.7452 43.0701 25.3599 42.926C24.3509 42.5485 23.3097 42.2795 22.2488 42.1215C21.6657 42.0347 21.0766 41.9814 20.4835 41.962C19.0608 41.9154 17.6461 42.0606 16.2787 42.3944C14.7788 42.7606 13.2229 42.4277 12.0061 41.4805C10.6881 40.4546 10.068 38.9186 10.068 37.2291C10.068 27.3195 13.8965 18.0054 20.8493 10.9981C27.8024 3.98995 37.0858 0.0895057 46.9942 0.0140802C54.0616 -0.0344932 60.9373 1.89126 66.8999 5.5968C67.2495 5.81395 67.3569 6.27327 67.1396 6.62292C66.9224 6.97233 66.4631 7.07977 66.1133 6.86248C60.3891 3.30524 53.7768 1.4545 47.0057 1.5042C27.4585 1.65271 11.5579 17.6779 11.5579 37.2289C11.5579 38.3735 11.9068 39.5149 12.9212 40.3045C13.7753 40.9693 14.872 41.2034 15.9252 40.9465C17.4229 40.5811 18.974 40.4219 20.5321 40.4726C22.3667 40.5327 24.1665 40.8885 25.8821 41.5304Z" fill="#3880FF"/>
<path fill-rule="evenodd" clip-rule="evenodd" d="M49.2391 12.2152C49.8011 15.526 47.5027 18.7648 44.1919 19.3271C40.8817 19.8895 37.6422 17.5903 37.0802 14.2801C36.5112 10.9282 38.7757 7.73738 42.1274 7.16819C45.4789 6.59965 48.6701 8.8638 49.2391 12.2152ZM47.77 12.4648C47.3383 9.92226 44.9189 8.20562 42.3769 8.63735C39.8344 9.06923 38.1177 11.4879 38.5494 14.0304C38.9767 16.5467 41.4256 18.2857 43.9424 17.8578C46.4597 17.4307 48.197 14.9815 47.77 12.4648Z" fill="#3880FF"/>
<path fill-rule="evenodd" clip-rule="evenodd" d="M23.4247 28.4322C20.6861 26.4889 20.0212 22.573 21.9648 19.8346C23.9325 17.062 27.7902 16.4069 30.5625 18.3747C33.3351 20.3423 33.99 24.1999 32.0225 26.9724C30.8722 28.5932 28.9634 29.5716 26.9794 29.5716C25.7133 29.5716 24.4805 29.1816 23.4247 28.4322ZM24.2872 27.2168C26.369 28.6941 29.3293 28.1915 30.8069 26.1099C32.2995 24.0068 31.8029 21.0825 29.7 19.5897C27.5971 18.097 24.6727 18.5938 23.1801 20.6969C21.7027 22.7787 22.2055 25.7393 24.2872 27.2168Z" fill="#3880FF"/>
<path fill-rule="evenodd" clip-rule="evenodd" d="M44.7546 43.633L44.5025 43.5927L44.322 43.7732C42.8853 45.21 40.6491 47.4199 39.6495 48.3947L39.6063 48.4368L39.5743 48.488C35.3694 55.229 30.0733 61.1343 23.8186 66.0437L20.764 68.4411C20.4402 68.6952 19.9721 68.6387 19.7178 68.3151C19.4636 67.9912 19.5202 67.5229 19.8438 67.2689L22.8985 64.8715C28.9107 60.1527 34.0206 54.4947 38.0988 48.0433L38.3124 47.7053L33.7821 43.1752L33.4441 43.3888C26.9926 47.467 21.3347 52.5769 16.616 58.5891L2.34995 76.7647C1.82231 77.4367 1.88016 78.3987 2.48434 79.0029C3.08887 79.6075 4.05088 79.6638 4.72277 79.1373L15.2925 70.8412C15.6161 70.5871 16.0842 70.6434 16.3387 70.9673C16.5928 71.2912 16.5363 71.7595 16.2127 72.0135L5.64302 80.3095C5.06431 80.7637 4.37167 80.9874 3.68076 80.9874C2.86121 80.9874 2.04692 80.6732 1.43065 80.0569C0.293901 78.9203 0.185299 77.1089 1.17774 75.8446L15.4436 57.669C20.444 51.2982 26.4762 45.9201 33.3736 41.6786L33.4236 41.6478L37.9211 37.1503L37.7203 35.8945C37.2986 33.2593 39.0194 30.8077 41.641 30.3084C44.5645 29.7515 47.3457 29.0487 50.1322 27.8777C51.1322 27.4575 52.2719 27.6808 53.0391 28.448C53.8064 29.2153 54.03 30.355 53.6097 31.3552C52.4386 34.1418 51.7359 36.9229 51.179 39.8464C50.7303 42.2031 48.7038 43.8306 46.3874 43.8306C45.9492 43.8306 45.5205 43.7595 45.0455 43.6807C44.9506 43.665 44.8537 43.6489 44.7546 43.633ZM42.0449 31.7482L41.9198 31.772C40.0988 32.1189 38.899 33.8284 39.1915 35.6586L39.4144 37.0517L44.4351 42.0724L45.8275 42.2952C47.6587 42.5899 49.3683 41.388 49.715 39.5673L49.7385 39.4435C50.2211 36.9091 50.6869 34.4633 51.6663 32.1323L52.2356 30.7778C52.6379 29.8205 51.6651 28.8509 50.7095 29.2513L49.3546 29.8206C47.0241 30.8 44.5788 31.2656 42.0449 31.7482ZM38.7169 38.4619L34.9466 42.2322L39.3511 46.6365L43.1212 42.8662L38.7169 38.4619Z" fill="#3880FF"/>
<path fill-rule="evenodd" clip-rule="evenodd" d="M56.7435 13.929C58.7112 11.1565 62.5687 10.5016 65.3413 12.4693C68.1137 14.4371 68.7687 18.2945 66.801 21.067C64.8333 23.8394 60.9758 24.4944 58.2034 22.5268C55.4309 20.5591 54.776 16.7016 56.7435 13.929ZM57.9589 14.7916C56.4665 16.8946 56.9629 19.819 59.066 21.3116C61.1691 22.8038 64.0932 22.3076 65.5858 20.2044C67.0784 18.1014 66.5818 15.1772 64.4787 13.6846C62.3758 12.1919 59.4514 12.6889 57.9589 14.7916Z" fill="#3880FF"/>
<path fill-rule="evenodd" clip-rule="evenodd" d="M72.9603 39.7444C76.312 39.1747 78.5764 35.984 78.0073 32.6322C77.4454 29.3216 74.2061 27.0233 70.8957 27.5852C67.5849 28.1475 65.2865 31.3863 65.8484 34.697C66.4175 38.0482 69.609 40.3115 72.9603 39.7444ZM76.5382 32.8817C76.9697 35.4242 75.2532 37.843 72.7105 38.2747C70.1678 38.7072 67.7493 36.9895 67.3176 34.4472C66.8902 31.9307 68.6282 29.4814 71.145 29.0543C73.6618 28.6266 76.1109 30.3652 76.5382 32.8817Z" fill="#3880FF"/>
<path fill-rule="evenodd" clip-rule="evenodd" d="M62.6491 48.7083C60.6815 51.4807 61.3365 55.3382 64.1089 57.3059C66.8813 59.2735 70.7388 58.6185 72.7065 55.8461C74.65 53.1077 73.9851 49.1919 71.2467 47.2484C68.4742 45.2807 64.6168 45.9358 62.6491 48.7083ZM70.3838 48.4636C68.2808 46.9709 65.3566 47.4678 63.864 49.5707C62.3716 51.6737 62.8681 54.598 64.9712 56.0906C67.0747 57.5829 69.9985 57.0866 71.4911 54.9834C72.9688 52.9016 72.4654 49.9408 70.3838 48.4636Z" fill="#3880FF"/>
<path fill-rule="evenodd" clip-rule="evenodd" d="M52.9742 56.4558C52.1766 56.2535 51.33 56.2088 50.4787 56.3533C47.127 56.9227 44.8626 60.1133 45.4317 63.4652C45.7393 65.2768 46.8487 66.7856 48.3327 67.6883C49.5605 68.435 51.0447 68.767 52.5434 68.5124C55.854 67.9501 58.1527 64.7111 57.5905 61.4005C57.1729 58.941 55.2782 57.0403 52.9742 56.4558ZM52.399 57.8478C51.8605 57.7397 51.2962 57.726 50.7284 57.8225C48.1859 58.2543 46.4692 60.673 46.9009 63.2154C47.1213 64.5132 47.8794 65.6042 48.9073 66.2979C49.8724 66.9492 51.0752 67.2501 52.2941 67.0429C54.811 66.6157 56.5484 64.1664 56.1215 61.65C55.7906 59.7013 54.2473 58.2189 52.399 57.8478Z" fill="#3880FF"/>
<path d="M34.3142 69.2249C34.6959 70.2239 35.5025 70.983 36.5231 71.3051C39.6912 72.3747 41.7879 72.762 46.3554 72.9425C56.0246 73.1919 65.1697 69.6541 72.0943 62.9881C79.01 56.3307 82.8855 47.3434 83.0067 37.6879C83.135 27.4639 78.8689 17.6569 71.3014 10.781C70.9969 10.5043 70.9745 10.0327 71.2513 9.72827C71.5278 9.4237 71.999 9.40115 72.3036 9.67796C80.1862 16.8403 84.6306 27.0564 84.4969 37.7064C84.3707 47.7675 80.3331 57.1253 73.1278 64.0617C65.9137 71.0063 56.401 74.6929 46.3175 74.4323C42.8264 74.3433 39.3802 73.7692 36.075 72.7264C34.6157 72.2659 33.4679 71.1845 32.9223 69.7567C32.3669 68.3031 32.5058 66.6974 33.3067 65.3468C34.3858 63.5269 35.0697 61.539 35.338 59.4411C35.3903 59.0328 35.7637 58.7443 36.1716 58.7966C36.5798 58.8489 36.8684 59.222 36.8163 59.6304C36.5218 61.9318 35.7726 64.1103 34.5885 66.1069C34.0237 67.0594 33.9216 68.1974 34.3142 69.2249Z" fill="#3880FF"/>
</svg>
