<svg width="58" height="84" viewBox="0 0 58 84" fill="none" xmlns="http://www.w3.org/2000/svg">
<path d="M31.3004 41.8939C31.6856 41.7491 32.1153 41.944 32.2601 42.329C32.405 42.7141 32.2102 43.1438 31.825 43.2887C29.5412 44.148 27.3578 44.1396 25.2638 43.2806C24.8833 43.1246 24.7012 42.6892 24.8574 42.3084C25.0134 41.9278 25.4489 41.7458 25.8295 41.902C27.589 42.6236 29.3908 42.6123 31.3004 41.8939Z" fill="#3880FF"/>
<path d="M21.1089 31.8618C21.1089 31.4501 21.4423 31.1166 21.854 31.1166C22.2655 31.1166 22.5991 31.4501 22.5991 31.8618V33.7098C22.5991 34.1215 22.2657 34.455 21.854 34.455C21.4423 34.455 21.1089 34.1215 21.1089 33.7098V31.8618Z" fill="#3880FF"/>
<path d="M36 33.7098C36 34.1215 35.6664 34.455 35.2549 34.455C34.8434 34.455 34.5098 34.1213 34.5098 33.7098V31.8618C34.5098 31.4501 34.8432 31.1166 35.2549 31.1166C35.6664 31.1166 36 31.4501 36 31.8618V33.7098Z" fill="#3880FF"/>
<path fill-rule="evenodd" clip-rule="evenodd" d="M45.911 76.4693H55.6186V72.6418C55.6186 72.2302 55.952 71.8967 56.3637 71.8967C56.7753 71.8967 57.1088 72.2302 57.1088 72.6418V81.5947C57.1088 82.9205 56.0293 84 54.7035 84H2.40527C1.07953 84 0 82.9205 0 81.5947V65.3823C0 59.0729 5.13381 53.939 11.4432 53.939H20.6205V49.3368C16.3341 46.6163 13.7162 42.0925 13.3613 37.0327C10.0257 37.0327 7.01134 34.8413 7.01134 31.2558C7.01134 29.7264 7.66104 28.4504 8.57308 27.2754C7.4113 26.5346 6.51246 25.5501 6.51246 24.0768C6.51246 22.5704 7.465 21.4297 8.78129 20.8308C9.89599 13.5048 14.9508 7.34969 21.8933 4.7536V3.23535C21.8933 1.4519 23.3452 0 25.1287 0H31.9806C33.7641 0 35.216 1.4519 35.216 3.23535V4.75393C42.1499 7.34692 47.2101 13.484 48.3282 20.8308C49.6445 21.4297 50.5968 22.5704 50.5968 24.0768C50.5968 25.5502 49.698 26.5347 48.5361 27.2753C49.4483 28.4503 50.0979 29.7264 50.0979 31.2558C50.0979 34.9868 46.9455 37.0327 43.5518 37.0327C43.1968 42.0922 40.5791 46.616 36.2931 49.3365V53.939H45.6658C51.9751 53.939 57.1088 59.0729 57.1088 65.3823V67.2156C57.1088 67.6273 56.7753 67.9607 56.3637 67.9607C55.952 67.9607 55.6186 67.6273 55.6186 67.2156V65.3823C55.6186 59.8579 51.2136 55.8367 45.911 55.4207V76.4693ZM41.0981 55.4294V65.2197H44.4208V55.4294H41.0981ZM27.467 65.2196H39.6077V55.4294H36.2465C35.604 59.3316 32.5452 62.3873 28.4528 62.3873C24.3627 62.3873 21.3019 59.329 20.6592 55.4294H17.5009V65.2197H22.0404C22.4521 65.2197 22.7856 65.5532 22.7856 65.9649C22.7856 66.3765 22.4521 66.71 22.0404 66.71H12.688V82.5098H18.7923V76.9953C18.7923 75.6695 19.8718 74.59 21.1976 74.59H35.911C37.2368 74.59 38.3163 75.6695 38.3163 76.9953V82.5098H44.4206V66.7098H27.467C27.0553 66.7098 26.7219 66.3763 26.7219 65.9647C26.7219 65.553 27.0553 65.2196 27.467 65.2196ZM16.0107 55.4294H12.688V65.2197H16.0107V55.4294ZM43.5573 35.5424C46.1308 35.5424 48.6073 34.1649 48.6075 31.256C48.6075 29.6805 47.7506 28.3246 46.4248 27.5185H43.4342C43.6896 30.1932 43.5573 32.861 43.5573 35.5424ZM35.2158 6.33161V20.6352H46.8019C45.5246 14.0921 41.2791 8.97359 35.2158 6.33161ZM23.3832 20.6352H33.7254V3.23535C33.7254 2.27257 32.9431 1.49023 31.9803 1.49023H25.1283C24.1656 1.49023 23.3832 2.27257 23.3832 3.23535V20.6352ZM10.3069 20.6352H21.893V6.33148C15.8125 8.98069 11.5758 14.1322 10.3069 20.6352ZM13.4782 27.5183H10.684C9.35824 28.3244 8.50141 29.6804 8.50141 31.2558C8.50141 34.0225 10.8376 35.5423 13.3555 35.5423V29.5161C13.3555 29.0329 13.3802 28.5484 13.4261 28.0657L13.4782 27.5183ZM30.5589 27.5183H14.8455V36.4303C14.8455 43.9358 20.9508 50.0411 28.4563 50.0411C35.9617 50.0411 42.067 43.9358 42.067 36.4303V27.5183H35.9854C35.5738 27.5183 35.2403 27.1849 35.2403 26.7732C35.2403 26.3616 35.5738 26.0281 35.9854 26.0281H47.1549C48.2313 26.0281 49.1063 25.1531 49.1063 24.0768C49.1063 23.0005 48.2313 22.1255 47.1549 22.1255H9.95384C8.8775 22.1255 8.00253 23.0005 8.00253 24.0768C8.00253 25.1531 8.8775 26.0281 9.95384 26.0281H30.5589C30.9705 26.0281 31.304 26.3616 31.304 26.7732C31.304 27.1849 30.9705 27.5183 30.5589 27.5183ZM34.7903 54.8136L34.7907 54.8043L34.8052 50.1501C32.7621 50.979 30.6804 51.5312 28.4564 51.5312C26.2332 51.5312 24.1519 50.9793 22.1095 50.1508L22.1162 54.8236L22.1166 54.8341C22.2641 58.2335 25.0486 60.8969 28.453 60.8969C31.8684 60.8969 34.6534 58.2242 34.7903 54.8136ZM1.49023 76.4693H11.1978V55.4207C5.89522 55.8367 1.49023 59.858 1.49023 65.3823V76.4693ZM11.1978 77.9595H1.49023V81.5947C1.49023 82.0998 1.9002 82.5098 2.40527 82.5098H11.1978V77.9595ZM20.2825 76.9953V82.5098H36.8261V76.9953C36.8261 76.4902 36.4161 76.0802 35.911 76.0802H21.1976C20.6925 76.0802 20.2825 76.4902 20.2825 76.9953ZM55.6186 81.5947V77.9595H45.911V82.5098H54.7035C55.2086 82.5098 55.6186 82.0998 55.6186 81.5947Z" fill="#3880FF"/>
</svg>
