<svg width="85" height="67" viewBox="0 0 85 67" fill="none" xmlns="http://www.w3.org/2000/svg">
<path fill-rule="evenodd" clip-rule="evenodd" d="M79.3507 5.90062H81.2049C83.0214 5.90062 84.5 7.37924 84.5 9.19591V22.7876C84.5 24.6041 83.0214 26.0827 81.2049 26.0827H79.3507C78.993 28.7735 77.0419 31.0004 74.172 31.0004H68.4247C66.0314 31.0004 64.0836 29.0526 64.0836 26.6594V21.156H41.7061C40.8317 22.8527 39.3027 23.7007 37.3987 23.7431V26.7212C37.3987 28.581 35.8849 30.0948 34.0252 30.0948H33.0896C32.678 30.0948 32.3445 29.7613 32.3445 29.3497C32.3445 28.9381 32.678 28.6046 33.0896 28.6046H34.0252C35.0641 28.6046 35.9085 27.7601 35.9085 26.7212V23.7348H33.1898C32.7783 23.7348 32.4447 23.4013 32.4447 22.9896C32.4447 22.578 32.7783 22.2445 33.1898 22.2445H37.7921C39.3111 22.2445 40.546 21.0096 40.546 19.4907C40.546 17.9729 39.3123 16.7391 37.7953 16.7369L29.7229 16.7367C28.3529 16.7367 27.2391 17.8506 27.2391 19.2208V27.3607C27.2391 28.2537 27.5387 29.1337 28.0834 29.8413L28.0893 29.8489L34.2683 37.2702L34.2754 37.2785C35.3838 38.552 36.9878 39.2824 38.676 39.2824H46.1191C46.5307 39.2824 46.8643 39.6159 46.8643 40.0275C46.8643 40.4391 46.5307 40.7726 46.1191 40.7726H38.676C36.5565 40.7726 34.5428 39.8558 33.1513 38.2569L31.4054 36.2507V62.207C31.4054 63.4865 32.4455 64.5269 33.7251 64.5269H52.0884C53.368 64.5269 54.4081 63.4865 54.4081 62.207V36.3576C54.4081 34.9058 54.9637 33.5341 55.9737 32.4913L56.8555 31.5813C57.5941 30.8191 58.0013 29.8131 58.0013 28.7521V25.3378C58.0013 24.9262 58.3349 24.5927 58.7465 24.5927C59.158 24.5927 59.4916 24.9262 59.4916 25.3378V28.7522C59.4916 30.204 58.9361 31.5757 57.926 32.6185L57.0441 33.5285C56.3057 34.2906 55.8985 35.2967 55.8985 36.3577V62.207C55.8985 64.3076 54.1889 66.0171 52.0886 66.0171H33.7252C31.6249 66.0171 29.9153 64.3074 29.9153 62.207V36.0469C29.9153 35.1539 29.6156 34.2739 29.0709 33.5662L26.9027 30.7506C26.1589 29.7843 25.7488 28.5796 25.7488 27.3607V21.156H20.9163V26.6594C20.9163 29.0526 18.9686 31.0004 16.5753 31.0004H10.828C7.95808 31.0004 6.00696 28.7735 5.64934 26.0827H3.79512C1.97863 26.0827 0.5 24.6041 0.5 22.7876V9.19591C0.5 7.37924 1.97865 5.90062 3.79512 5.90062H5.64934C6.00696 3.20985 7.95808 0.98291 10.828 0.98291H16.5752C18.9684 0.98291 20.9162 2.9307 20.9162 5.32393V10.8273H29.915V5.22714C29.915 2.8872 31.8193 0.98291 34.159 0.98291C35.62 0.98291 36.7158 1.73822 37.6582 2.76775C38.6005 1.73805 39.6961 0.98291 41.1571 0.98291C42.6181 0.98291 43.7138 1.73823 44.6563 2.76775C45.5986 1.73805 46.6942 0.98291 48.1552 0.98291C49.6161 0.98291 50.7118 1.73816 51.6541 2.76775C52.5965 1.73811 53.6922 0.98291 55.1532 0.98291C57.493 0.98291 59.3973 2.8872 59.3973 5.22714V10.8273H64.0836V5.32393C64.0836 2.9307 66.0314 0.98291 68.4247 0.98291H74.172C77.0419 0.98291 78.993 3.20985 79.3507 5.90062ZM55.1532 2.47315C53.6342 2.47315 52.3994 3.70825 52.3992 5.22707V12.4926C52.3992 14.0116 53.6343 15.2466 55.1532 15.2466C56.6722 15.2466 57.907 14.0115 57.907 12.4926V5.22714C57.907 3.70825 56.6722 2.47315 55.1532 2.47315ZM38.4034 5.22721V15.2466H41.1573C42.6764 15.2466 43.9113 14.0116 43.9113 12.4926V5.22714C43.9113 3.7082 42.6762 2.47315 41.1573 2.47315C39.6384 2.47315 38.4033 3.70824 38.4034 5.22721ZM31.4054 15.2465H36.9132V5.22714C36.9132 3.7082 35.6781 2.47315 34.1592 2.47315C32.6402 2.47315 31.4054 3.70825 31.4054 5.22714V15.2465ZM3.79512 24.5925H5.66026V20.9825C5.66026 20.5709 5.99384 20.2374 6.40538 20.2374C6.81692 20.2374 7.1505 20.5709 7.1505 20.9825V25.8325C7.1505 27.8607 8.79973 29.5102 10.828 29.5102H16.5752C17.977 29.5102 19.1452 28.4941 19.3821 27.1594L19.4261 5.32393C19.4261 3.75172 18.1477 2.47315 16.5753 2.47315H10.828C8.79973 2.47315 7.1505 4.12261 7.1505 6.15085V15.9918C7.1505 16.4034 6.81692 16.7369 6.40538 16.7369C5.99384 16.7369 5.66026 16.4034 5.66026 15.9918V7.39103H3.79512C2.79946 7.39103 1.99023 8.20025 1.99023 9.19591V22.7876C1.99023 23.7833 2.79946 24.5925 3.79512 24.5925ZM20.9163 19.6658H25.7441C25.7743 17.1767 27.3538 15.4003 29.9151 15.2253V12.3175H20.9163V19.6658ZM42.0566 19.6656L64.0838 19.666V12.3177H59.418C59.2578 14.6731 57.6985 16.737 55.1534 16.737C53.6924 16.737 52.5967 15.9817 51.6542 14.9522C50.7063 15.9881 49.6237 16.737 48.1553 16.737C46.6945 16.737 45.5988 15.9817 44.6564 14.9523C43.6569 16.044 42.5681 16.5613 41.1432 16.7957C41.6622 17.7181 41.9834 18.5904 42.0566 19.6656ZM79.3397 15.9916V24.5925H81.2049C82.2005 24.5925 83.0098 23.7833 83.0098 22.7876V9.19591C83.0098 8.20025 82.2005 7.39103 81.2049 7.39103H79.3397V10.8224C79.3397 11.234 79.0062 11.5675 78.5946 11.5675C78.1831 11.5675 77.8495 11.234 77.8495 10.8224V6.15085C77.8495 4.12261 76.2003 2.47315 74.172 2.47315H68.4247C66.8523 2.47315 65.5739 3.75153 65.5739 5.32393V26.6594C65.5739 28.2316 66.8522 29.5102 68.4247 29.5102H74.172C76.2003 29.5102 77.8495 27.8607 77.8495 25.8325V15.9916C77.8495 15.58 78.1831 15.2465 78.5946 15.2465C79.0062 15.2465 79.3397 15.58 79.3397 15.9916ZM50.909 5.22714C50.909 3.70825 49.6741 2.47315 48.1552 2.47315C46.6364 2.47315 45.4013 3.70823 45.4013 5.22714V12.4926C45.4013 14.0115 46.6362 15.2466 48.1552 15.2466C49.6741 15.2466 50.909 14.0115 50.909 12.4926V5.22714Z" fill="#3880FF"/>
</svg>
