<svg width="85" height="85" viewBox="0 0 85 85" fill="none" xmlns="http://www.w3.org/2000/svg">
<path fill-rule="evenodd" clip-rule="evenodd" d="M76.792 67.3979H81.3302C82.8255 67.3979 84.0429 68.6153 84.0429 70.1104V81.7873C84.0429 83.2827 82.8255 84.4999 81.3302 84.4999H41.4815C41.0641 84.4999 40.7257 84.1617 40.7257 83.7442C40.7257 83.3267 41.0641 82.9885 41.4815 82.9885H63.12V68.9092H21.8799V82.9885H35.6214C36.0388 82.9885 36.3771 83.3267 36.3771 83.7442C36.3771 84.1617 36.0388 84.4999 35.6214 84.4999H3.66971C2.17443 84.4999 0.957031 83.2825 0.957031 81.7873V70.1104C0.957031 68.615 2.17441 67.3977 3.66971 67.3977H12.227L11.2104 66.5194C9.12348 64.7163 7.80113 62.0562 7.80113 59.0917C7.80113 53.6791 12.2056 49.2744 17.6186 49.2744H19.8807V43.9675C19.8807 42.8516 20.7895 41.9428 21.9054 41.9428H23.683V26.0703H21.3081C20.1922 26.0703 19.2834 25.1615 19.2834 24.0456V19.2519C19.2834 18.136 20.1922 17.2272 21.3081 17.2272H22.8014L40.9129 1.10417C41.8165 0.299383 43.1817 0.297863 44.0874 1.1041L49.2828 5.72917C49.5945 6.0067 49.6222 6.48452 49.3446 6.79625C49.0673 7.10778 48.5896 7.13573 48.2776 6.85803L43.0823 2.23301C42.7496 1.93694 42.2496 1.93777 41.9179 2.2329L25.0744 17.2272H59.9254L52.6543 10.7545C52.3427 10.477 52.3148 9.9994 52.5925 9.68745C52.8697 9.376 53.3475 9.34804 53.6596 9.62575L62.1987 17.2274H63.6918C64.8077 17.2274 65.7165 18.1362 65.7165 19.2521V24.0458C65.7165 25.1617 64.8077 26.0705 63.6918 26.0705H61.3169V41.9429H63.0945C64.2104 41.9429 65.1192 42.8518 65.1192 43.9677V49.2744H73.9716C75.7506 49.2744 77.1988 50.7227 77.1988 52.5016C77.1988 54.2809 75.7505 55.729 73.9716 55.729H72.2555V62.4548H73.9716C75.7506 62.4548 77.1988 63.9031 77.1988 65.6822C77.1988 66.2875 76.9868 66.8352 76.792 67.3979ZM17.7197 62.455H70.7442V55.7292H17.6184C15.8413 55.7292 14.3176 57.1419 14.2603 58.9879C14.2003 60.9527 15.8626 62.455 17.7197 62.455ZM55.6135 41.9429H59.8056V26.0705H55.6135V41.9429ZM46.1075 26.0705V41.9429H54.102V26.0705H46.1075ZM30.8981 26.0705V41.9429H38.8925V26.0705H30.8981ZM44.5961 26.0705H40.404V41.9429H44.5961V26.0705ZM29.3864 26.0705H25.1943V41.9429H29.3864V26.0705ZM21.392 49.2746H63.6081V43.9677C63.6081 43.6841 63.3784 43.4544 63.0949 43.4544H21.9054C21.6158 43.4855 21.4108 43.7072 21.402 43.993C21.3481 45.7529 21.392 47.5143 21.392 49.2746ZM13.3088 82.9888V68.9095H3.66971C3.00704 68.9095 2.46851 69.4478 2.46851 70.1108V81.7876C2.46851 82.4503 3.00726 82.9885 3.66971 82.9888H13.3088ZM14.8203 82.9886H20.3684V68.9094H14.8203V82.9886ZM64.6315 68.9094V82.9886H70.1796V68.9094H64.6315ZM71.6911 68.9095V82.9888H81.3302C81.9929 82.9888 82.5314 82.4503 82.5314 81.7876V70.1108C82.5314 69.448 81.9929 68.9095 81.3302 68.9095H71.6911ZM20.7947 19.2521V24.0458C20.7947 24.3335 21.0288 24.559 21.308 24.559H63.6921C63.9905 24.5271 64.1847 24.3201 64.1954 24.0206C64.2441 22.433 64.2071 20.8401 64.2053 19.2521C64.2053 18.9687 63.9758 18.7388 63.6921 18.7388H21.308C21.0287 18.7388 20.7947 18.9645 20.7947 19.2521ZM9.31261 59.0919C9.31261 63.6722 13.0381 67.3979 17.6186 67.3979C36.403 67.3979 55.1874 67.3971 73.9719 67.3981C74.9184 67.3981 75.6876 66.6289 75.6876 65.6824C75.6876 64.7359 74.9185 63.9665 73.9719 63.9665H17.6186C14.9812 63.9665 12.8461 61.8623 12.7479 59.2794C12.6431 56.5172 14.8599 54.2177 17.6186 54.2177H73.9719C74.9184 54.2177 75.6876 53.4485 75.6876 52.502C75.6876 51.5555 74.9185 50.7861 73.9719 50.7861H17.6186C13.0383 50.7861 9.31261 54.5116 9.31261 59.0919Z" fill="#3880FF"/>
</svg>
