<svg width="103" height="94" viewBox="0 0 103 94" fill="none" xmlns="http://www.w3.org/2000/svg">
<path d="M102.387 1.45204C102.552 1.34996 102.602 1.13388 102.5 0.969413C102.398 0.804949 102.182 0.754377 102.018 0.856459L91.8603 7.16527C91.696 7.26736 91.6454 7.48343 91.7475 7.6479C91.8495 7.81236 92.0654 7.86294 92.2298 7.76085L102.387 1.45204Z" fill="#222428"/>
<path d="M47.3971 6.70842C47.561 6.60549 47.6104 6.38915 47.5075 6.22522C47.4046 6.06128 47.1884 6.01183 47.0246 6.11477L16.9016 25.0412C16.7378 25.1442 16.6884 25.3605 16.7912 25.5244C16.8941 25.6884 17.1103 25.7378 17.2741 25.6349L47.3971 6.70842Z" fill="#222428"/>
<path d="M102.391 9.16072C102.554 9.0568 102.602 8.84016 102.498 8.67685C102.394 8.51355 102.178 8.4654 102.015 8.56933L90.456 15.9296C90.2928 16.0335 90.2446 16.2502 90.3485 16.4135C90.4523 16.5768 90.6689 16.6249 90.8321 16.521L102.391 9.16072Z" fill="#222428"/>
<path d="M28.8527 9.14848C29.0091 9.03462 29.0437 8.81542 28.93 8.65887C28.8162 8.50233 28.5971 8.46772 28.4406 8.58157L24.5877 11.3855C24.4312 11.4993 24.3967 11.7185 24.5105 11.8751C24.6243 12.0316 24.8433 12.0662 24.9997 11.9524L28.8527 9.14848Z" fill="#222428"/>
<path d="M89.0869 9.85763C89.2479 9.75025 89.2914 9.53265 89.1841 9.37159C89.0768 9.21053 88.8593 9.167 88.6983 9.27438L85.5459 11.3773C85.385 11.4847 85.3415 11.7023 85.4488 11.8634C85.5561 12.0244 85.7736 12.0679 85.9345 11.9606L89.0869 9.85763Z" fill="#222428"/>
<path d="M21.135 14.414C21.296 14.3066 21.3395 14.089 21.2322 13.928C21.1249 13.7669 20.9074 13.7234 20.7465 13.8307L3.93363 25.0464C3.77267 25.1538 3.72921 25.3714 3.83652 25.5325C3.94383 25.6935 4.16128 25.737 4.32224 25.6297L21.135 14.414Z" fill="#222428"/>
<path d="M99.5897 15.8194C99.7525 15.7149 99.7999 15.4981 99.6955 15.3352C99.5911 15.1722 99.3745 15.1248 99.2116 15.2293L85.5512 23.9915C85.3883 24.096 85.3409 24.3128 85.4453 24.4757C85.5497 24.6387 85.7664 24.6861 85.9292 24.5816L99.5897 15.8194Z" fill="#222428"/>
<path d="M92.234 61.7336C92.3969 61.6292 92.4444 61.4124 92.34 61.2494C92.2356 61.0864 92.0189 61.0389 91.856 61.1434L55.7785 84.2757C55.6157 84.3801 55.5682 84.5969 55.6726 84.7599C55.7769 84.9229 55.9937 84.9703 56.1565 84.8659L92.234 61.7336Z" fill="#222428"/>
<path d="M70.5202 81.7097C70.6821 81.6038 70.7275 81.3866 70.6216 81.2246C70.5157 81.0626 70.2987 81.0171 70.1367 81.123L51.9229 93.0397C51.761 93.1456 51.7156 93.3628 51.8214 93.5248C51.9273 93.6869 52.1443 93.7323 52.3062 93.6264L70.5202 81.7097Z" fill="#222428"/>
<path d="M50.89 38.2168C51.0539 38.1139 51.1033 37.8975 51.0004 37.7336C50.8975 37.5697 50.6813 37.5202 50.5175 37.6231L0.394502 69.5496C0.230678 69.6525 0.181282 69.8689 0.28415 70.0328C0.387019 70.1967 0.603175 70.2462 0.766999 70.1432L50.89 38.2168Z" fill="#222428"/>
</svg>
