<svg width="131" height="107" viewBox="0 0 131 107" fill="none" xmlns="http://www.w3.org/2000/svg">
<path fill-rule="evenodd" clip-rule="evenodd" d="M99.9762 12.6205C100.112 12.4284 100.394 12.4211 100.537 12.6076C101.923 14.4105 103.318 16.4883 104.691 18.851C108.178 24.8494 109.862 30.6852 110.138 35.2603C110.276 37.5465 110.064 39.534 109.536 41.0742C109.01 42.6108 108.153 43.7449 106.975 44.236C104.718 45.1772 101.927 44.6733 98.7481 42.3556C95.5703 40.0388 91.9515 35.8767 87.9774 29.3743C83.986 22.8433 82.4747 16.8229 82.4581 12.2376C82.4498 9.94631 82.8149 8.0021 83.4406 6.52975C84.0632 5.06486 84.9644 4.02359 86.0549 3.62677C88.1573 2.8618 91.1113 3.74672 94.3416 6.2188C95.2169 6.88859 96.1186 7.67925 97.037 8.59389C97.1984 8.75462 97.163 9.02384 96.9671 9.13997C96.8285 9.22218 96.6518 9.19921 96.5375 9.08546C95.6413 8.19339 94.7642 7.42467 93.916 6.77561C90.7344 4.34084 88.045 3.64855 86.2943 4.28554C85.4584 4.5897 84.6683 5.43226 84.0853 6.80407C83.5055 8.16842 83.1506 10.0138 83.1586 12.235C83.1684 14.9355 83.7146 18.1749 85.0265 21.7472L90.3689 19.9779C90.4296 19.9476 90.5107 19.9141 90.6025 19.886C90.7245 19.8167 90.8599 19.765 91.0097 19.735C92.0377 19.5293 92.9359 19.9551 93.7265 20.6996C94.5109 21.4384 95.2326 22.5285 95.936 23.7602C96.6562 25.0214 97.198 26.5534 97.3799 27.873C97.4707 28.5316 97.475 29.1594 97.352 29.6824C97.2488 30.1212 97.0472 30.517 96.7041 30.7741L92.3342 34.6189C94.8106 37.9502 97.0962 40.284 99.1606 41.789C102.231 44.0278 104.76 44.4001 106.706 43.5889C107.629 43.2038 108.383 42.2787 108.873 40.847C109.362 39.4189 109.573 37.529 109.439 35.3026C109.17 30.8523 107.526 25.1217 104.086 19.2034C102.726 16.8645 101.349 14.8137 99.9852 13.0391C99.8911 12.9165 99.8871 12.7469 99.9762 12.6205ZM93.2464 21.2101C92.5484 20.5528 91.8704 20.2776 91.1471 20.4224C90.8773 20.4764 90.6478 20.6924 90.4859 21.137C90.3239 21.5818 90.257 22.1932 90.2843 22.8885C90.339 24.2804 90.7653 25.8851 91.3787 26.9082C91.8777 27.7402 92.8078 28.7584 93.7822 29.4791C94.2687 29.839 94.75 30.1124 95.1789 30.2554C95.613 30.4002 95.9437 30.396 96.1757 30.2799C96.3996 30.1679 96.5743 29.9292 96.6701 29.5218C96.766 29.1139 96.7703 28.5806 96.6859 27.9688C96.5176 26.7474 96.0086 25.3002 95.3277 24.108C94.63 22.8861 93.9506 21.8733 93.2464 21.2101Z" fill="#222428"/>
<path d="M41.4831 75.3367C41.4864 75.298 41.4899 75.2593 41.4936 75.2204C41.6426 73.5427 41.6907 71.8541 41.6907 70.9002C41.6877 70.2823 41.6117 68.9063 41.3315 68.3455C41.892 68.6259 42.2715 70.1655 42.3912 70.9002C42.3912 72.5363 42.2521 76.4069 41.6802 78.696C41.5584 78.2059 41.3535 76.8634 41.4831 75.3367Z" fill="#222428"/>
<path fill-rule="evenodd" clip-rule="evenodd" d="M100.118 9.54816C98.72 7.87217 97.2827 6.36109 95.8572 5.0621C93.6674 3.06671 91.4911 1.55876 89.5134 0.727812C87.5435 -0.0998823 85.7072 -0.280335 84.2584 0.492975C82.644 1.35469 81.5861 2.72414 80.9523 4.40039C79.7203 6.65875 77.3714 11.8362 75.2612 16.4876C74.1349 18.9702 73.0765 21.3032 72.2924 22.9622C70.4835 24.3634 67.6522 26.5319 65.028 28.4903C62.3901 30.459 59.9879 32.1954 59.0302 32.743C57.7644 33.4668 56.8623 34.281 55.9731 35.2152C55.6257 35.5802 55.2879 35.9547 54.9336 36.3474L54.9325 36.3486L54.9316 36.3496C54.3657 36.9769 53.7575 37.6511 53.0018 38.4073C51.7691 39.6408 50.5103 41.0751 49.74 42.6166C48.9659 44.1659 48.6704 45.8568 49.4268 47.5597C50.1477 49.1828 50.9826 50.1361 52.0421 50.6662C53.0855 51.1882 54.2981 51.2728 55.7014 51.2728C57.6749 51.2728 59.1449 51.0994 61.0355 50.8764L61.0372 50.8763C61.8526 50.7801 62.7463 50.6747 63.7924 50.57C64.706 50.4786 66.2244 50.0964 67.9965 49.5601C68.5998 49.3775 69.2355 49.176 69.891 48.9605C70.5501 50.7726 71.5949 53.6387 72.4565 55.9848C72.2642 56.0726 72.0952 56.1953 71.9492 56.3479C71.6455 56.6653 71.4607 57.0907 71.3436 57.5362C71.1131 58.4126 71.1131 59.5007 71.1131 60.3603V60.3855C71.1131 62.0814 70.4266 65.1652 69.0703 67.2009C68.3938 68.2163 66.758 69.9433 64.8262 71.8324C62.9045 73.7116 60.7192 75.7234 58.9697 77.299C58.1274 78.0576 57.3724 78.4361 56.7108 78.5685C56.0537 78.7 55.4632 78.594 54.9339 78.339C53.8559 77.8196 53.0248 76.6765 52.512 75.6503C51.735 74.0953 50.5077 72.0338 49.8572 70.9783C50.232 70.587 50.3032 70.0127 50.2255 69.4198C50.1306 68.6957 49.8045 67.8229 49.3625 66.8941C48.4999 65.0813 47.1379 62.9402 45.9399 61.0568L45.8391 60.8983C44.807 59.2754 43.1928 58.2156 41.6219 57.5481C40.2525 56.9662 38.8921 56.6721 37.9236 56.5659C38.649 53.2176 39.7239 50.8807 40.8035 49.2087C42.4256 49.5215 43.5641 49.6101 44.3151 49.4222C44.7236 49.32 45.0474 49.129 45.2614 48.8232C45.4711 48.5233 45.5436 48.1578 45.5436 47.7679C45.5436 47.2444 45.6208 46.8762 45.6972 46.6112C45.7271 46.5077 45.7561 46.4219 45.7837 46.3405L45.7981 46.2976L45.8101 46.2617C45.84 46.1715 45.8805 46.0474 45.8848 45.9268C45.8903 45.7706 45.8134 45.6548 45.7621 45.5929C45.7067 45.5261 45.639 45.4713 45.5789 45.4284C45.4667 45.3484 45.3284 45.2734 45.2029 45.21C45.3244 45.1482 45.4569 45.0764 45.5659 45.0004C45.6266 44.9581 45.6938 44.905 45.7497 44.8413C45.8007 44.7834 45.8795 44.6748 45.8848 44.5248C45.8898 44.3836 45.845 44.2568 45.8036 44.1662C45.7603 44.0714 45.705 43.9829 45.6577 43.9118L45.6416 43.8879L45.6238 43.8618L45.6071 43.8376C45.6235 43.8224 45.6415 43.806 45.661 43.7883C45.6814 43.7699 45.7034 43.7503 45.7266 43.7297L45.7797 43.6827C45.893 43.5826 46.0252 43.4658 46.1327 43.3582L46.1387 43.3522C46.222 43.2688 46.3204 43.1704 46.4031 43.0685C46.4859 42.9666 46.5785 42.8313 46.6189 42.6697C46.6641 42.4888 46.638 42.2972 46.5184 42.1232C46.4104 41.9659 46.2413 41.8453 46.0417 41.7454C45.9373 41.6932 45.8302 41.6512 45.7338 41.6142L45.6933 41.5987C45.609 41.5664 45.5317 41.5368 45.4532 41.5022C45.2786 41.425 45.1155 41.3296 44.9613 41.1671C44.6485 40.8376 44.3126 40.1676 44.1404 38.6164C43.8565 36.0594 42.4025 34.6351 41.5803 34.1797C41.151 32.5976 39.4571 30.3475 35.0356 30.5933C28.758 30.9423 25.9529 38.2407 24.2001 42.8013L24.1773 42.8604C22.457 47.3362 16.0048 48.7682 12.789 49.4819L12.6185 49.5198C12.5105 49.5438 12.3967 49.5686 12.2777 49.5946L12.2763 49.5949C8.92037 50.3276 1.3855 51.9726 0.709086 61.7869C0.189845 69.3207 4.84223 72.8228 7.75748 73.8544C6.40929 75.8574 4.36692 79.073 2.71871 82.2615C1.7295 84.1752 0.874639 86.0936 0.400093 87.7416C0.16287 88.5655 0.016631 89.3353 0.00133245 90.011C-0.013897 90.6837 0.0999717 91.2963 0.417862 91.7735C0.911907 92.515 1.87151 92.9828 2.99752 93.2835C4.13907 93.5884 5.52763 93.7412 6.9747 93.7957C9.56936 93.8934 12.4013 93.6767 14.4419 93.4191C13.6101 95.1259 13.6173 96.4074 14.0936 97.3302C14.4368 97.995 14.9985 98.4231 15.5609 98.6751C13.8391 100.123 11.2174 103.234 11.2174 107H40.9902C40.54 106.212 39.786 103.492 40.2338 98.7779C44.291 97.972 48.7862 95.5255 50.6376 94.3268L50.7976 94.2232V90.1868C51.2985 90.4053 51.88 90.5276 52.549 90.5276C53.8146 90.5276 54.9221 90.3455 56.1207 89.7458C57.3085 89.1515 58.5657 88.1571 60.1522 86.5696C62.6842 84.036 70.0956 75.6837 73.4778 71.8325L73.4819 71.8279L73.4858 71.8231C74.0092 71.183 74.829 70.2056 75.5866 69.3546C75.9657 68.9287 76.3264 68.5377 76.6252 68.2373C76.7748 68.0869 76.9058 67.9623 77.0138 67.8686C77.0913 67.8013 77.1476 67.7583 77.1844 67.7332C77.6468 68.6604 78.4291 69.7379 79.8698 69.4976C81.9714 69.1471 81.2709 65.9927 80.9206 64.9412C80.8502 64.7297 80.7634 64.4841 80.6694 64.2257L80.8947 63.6721C81.5438 62.0779 82.2786 59.6681 82.3478 57.6373C82.3822 56.6256 82.2537 55.6579 81.82 54.9319C81.3688 54.1765 80.6129 53.7262 79.5196 53.7262C78.4785 53.7262 77.653 53.9232 77.0139 54.265L74.6818 47.2642C76.4113 46.6105 78.0766 45.9355 79.465 45.317C80.2682 44.9591 80.9819 44.6188 81.5632 44.3113C82.0187 44.0703 82.405 43.8433 82.6912 43.6382C90.3327 45.2241 101.184 47.2577 105.423 47.6126C106.426 47.7351 107.405 47.6778 108.34 47.4025C109.868 46.9527 110.908 45.7481 111.531 44.0916C112.151 42.4406 112.373 40.3083 112.258 37.9132C112.029 33.1195 110.448 27.175 107.858 21.6815C105.857 17.4391 103.298 13.4564 100.566 10.092L108.427 4.84799C108.588 4.74062 108.631 4.52301 108.524 4.36195C108.417 4.20089 108.199 4.15737 108.038 4.26474L100.118 9.54816ZM89.2422 1.37413C87.3563 0.581719 85.7664 0.48258 84.5882 1.11146C82.6938 2.12261 81.6224 3.93195 81.1545 6.24549C80.6852 8.56557 80.8314 11.3611 81.353 14.2694C82.3959 20.0843 84.9202 26.2458 86.8318 29.7234C89.1393 33.9212 92.7926 38.6973 96.7312 42.1616C98.7003 43.8937 100.729 45.2869 102.684 46.12C104.64 46.9534 106.496 47.215 108.143 46.7301C109.396 46.3612 110.303 45.3671 110.875 43.8449C111.449 42.3172 111.67 40.2907 111.558 37.9468C111.334 33.2625 109.783 27.4082 107.224 21.9806C105.237 17.7655 102.691 13.8121 99.9803 10.4826L96.8681 12.5588C96.7071 12.6661 96.4896 12.6226 96.3823 12.4616C96.275 12.3005 96.3185 12.0829 96.4795 11.9755L99.5319 9.93929C98.1691 8.31054 96.7706 6.84252 95.3855 5.58039C93.2297 3.61594 91.1204 2.16328 89.2422 1.37413ZM72.055 24.0315C71.4687 29.2606 72.6962 39.2215 81.8421 43.3531C81.6662 43.4579 81.4637 43.571 81.2358 43.6916C80.6732 43.9892 79.9749 44.3225 79.1801 44.6766C77.5908 45.3846 75.6279 46.1704 73.6187 46.9134C71.6098 47.6563 69.5588 48.3549 67.7937 48.8891C66.0804 49.4076 64.6614 49.7635 63.8115 49.8629C57.7616 46.308 56.3394 39.4395 56.3774 35.8075C56.4118 35.7709 56.4462 35.7346 56.4804 35.6986C57.3426 34.7927 58.1918 34.0297 59.3778 33.3516C60.3817 32.7776 62.8248 31.0091 65.4468 29.0522C67.7718 27.317 70.2583 25.4179 72.055 24.0315ZM51.3496 41.3481C50.883 45.7879 53.8561 49.1164 55.8768 50.5713C55.8576 50.5714 55.8384 50.5715 55.8192 50.5716C55.7801 50.5717 55.7409 50.5718 55.7014 50.5718C54.3025 50.5718 53.2384 50.481 52.3554 50.0392C51.4884 49.6055 50.7471 48.8063 50.0669 47.275C49.4222 45.8235 49.6521 44.36 50.3666 42.9301C50.6356 42.3918 50.9711 41.8631 51.3496 41.3481ZM76.8771 67.0529L76.8933 67.091C76.7857 67.1482 76.668 67.2408 76.5548 67.339C76.4288 67.4484 76.2845 67.5861 76.1287 67.7428C75.8167 68.0565 75.4462 68.4584 75.0635 68.8883C74.2994 69.7467 73.4751 70.7293 72.9475 71.3745C69.556 75.2361 62.1678 83.5614 59.6569 86.0739C58.091 87.6407 56.8963 88.574 55.8074 89.1188C54.7293 89.6582 53.7352 89.8266 52.549 89.8266C51.7462 89.8266 51.124 89.6253 50.6395 89.3073C49.7456 88.7207 49.257 87.6917 49.0395 86.6035C48.803 85.4204 48.7299 84.41 48.5938 82.5279L48.5937 82.5262L48.5936 82.5246L48.5935 82.5234C48.5311 81.6601 48.4553 80.6134 48.3445 79.2828C48.0911 76.2396 47.6284 72.2079 47.3687 70.0756C47.3573 69.982 47.4396 69.9045 47.5312 69.9267C47.6918 69.9658 47.8643 70.0215 48.0364 70.0986C48.4545 70.2857 48.8488 70.5876 49.0833 71.0569L49.0907 71.0718L49.0995 71.0859C49.6818 72.0182 51.0524 74.2967 51.8854 75.9638C52.4234 77.0405 53.3436 78.3508 54.63 78.9706C55.2828 79.2851 56.0276 79.4201 56.8482 79.2558C57.6643 79.0925 58.5294 78.6386 59.4383 77.82C61.1915 76.2412 63.3846 74.2223 65.3158 72.3337C67.2369 70.4551 68.9287 68.6772 69.6532 67.5897C71.0991 65.4195 71.8137 62.1945 71.8137 60.3855C71.8137 59.4966 71.816 58.4944 72.021 57.7146C72.1228 57.3277 72.2664 57.0301 72.4552 56.8327C72.5264 56.7584 72.6067 56.6952 72.6996 56.646C73.0439 57.5817 73.3463 58.3993 73.565 58.9829C74.6158 61.7868 76.3672 65.9927 76.7174 66.6937C76.7637 66.7863 76.8161 66.9096 76.8771 67.0529ZM50.0971 93.8407C48.0487 95.1392 43.312 97.6513 39.3209 98.2237C37.9806 98.1909 36.0384 98.1048 33.84 98.0073L33.8383 98.0072L33.8346 98.0071L33.8335 98.007C26.6488 97.6884 16.733 97.2487 16.1483 98.1508C15.6046 97.9777 15.029 97.6147 14.716 97.0085C14.347 96.2937 14.2872 95.1277 15.2905 93.3047C17.9302 92.9444 23.3576 92.2005 25.2775 91.926C25.8025 91.851 26.2876 91.7629 26.7475 91.6794C28.5042 91.3605 29.8952 91.1079 31.7451 91.9012C32.992 92.436 33.9983 92.715 34.9751 92.7616C35.9537 92.8082 36.8752 92.62 37.9484 92.2621C38.3516 92.1276 38.7606 92.005 39.1741 91.8811C40.8624 91.3752 42.6252 90.847 44.3667 89.3949C44.914 88.9385 45.2343 88.4967 45.3038 88.0641C45.3795 87.5924 45.146 87.232 44.8301 87.0021C44.5259 86.7807 44.1237 86.6576 43.7433 86.6093C43.362 86.5609 42.9562 86.5816 42.6306 86.6902C41.5912 87.0369 40.3114 87.3428 39.0451 86.7092C38.4416 86.4073 37.6506 86.2263 36.9253 86.119C37.2637 85.9924 37.5971 85.8508 37.9001 85.6966C38.3352 85.4751 38.7417 85.2109 39.0034 84.9023C39.1365 84.7452 39.2447 84.5621 39.2887 84.3539C39.3342 84.1389 39.306 83.9203 39.2017 83.7115C38.9837 83.2752 38.6611 83.0264 38.2667 82.9353C37.8984 82.8503 37.503 82.9117 37.1397 83.0025C36.9116 83.0596 36.662 83.1384 36.4217 83.2143C36.2869 83.2568 36.1548 83.2985 36.0312 83.3349C35.6655 83.4426 35.3332 83.5178 35.0355 83.5178C34.6989 83.5178 34.3815 83.4968 34.0753 83.4749L34.0068 83.47C33.7286 83.45 33.4536 83.4302 33.1966 83.4302C32.6356 83.4302 32.0831 83.523 31.6354 83.971C31.4037 84.2028 30.9306 84.4731 30.3876 84.7243C29.8851 84.9567 29.3658 85.1539 29.0236 85.2703H16.1619C16.2654 84.2199 16.3617 82.3552 16.1477 80.8596C16.823 80.3079 18.2211 79.1082 19.5211 77.8073C20.3983 76.9296 21.1873 75.9738 21.2863 74.7847C21.3866 73.5798 20.7741 72.2566 19.1709 70.6523C16.544 68.0238 12.9826 67.8554 11.51 68.101L11.5171 68.1434C10.9973 67.7132 10.7188 66.842 11.9178 65.6423C13.6691 63.8898 19.6237 58.6325 22.0755 57.2305C24.3688 55.9193 27.2749 54.3014 28.7876 54.6711C28.9162 54.7493 29.0486 54.8392 29.1849 54.9408C29.6366 55.2773 30.1108 55.7262 30.6019 56.2516C31.4127 57.1188 32.2455 58.1679 33.081 59.2202C33.2603 59.4461 33.4399 59.6722 33.6192 59.8967C34.6239 61.1536 35.6312 62.3664 36.572 63.1524C37.0424 63.5454 37.5202 63.8527 37.9945 63.9963C38.4819 64.1438 38.9732 64.1193 39.4244 63.8371C40.0812 63.4264 40.4028 62.8384 40.4739 62.1753C40.543 61.5313 40.3752 60.8337 40.1016 60.1651C39.6864 59.1502 38.9967 58.129 38.351 57.3309C39.2001 57.4665 40.2709 57.7356 41.3481 58.1933C42.843 58.8285 44.3187 59.8132 45.2481 61.2746L45.3359 61.4127C46.5438 63.3117 47.8862 65.4222 48.73 67.1955C49.1637 68.1067 49.4506 68.8988 49.5309 69.5109C49.5803 69.8878 49.5481 70.1525 49.4571 70.3367C49.1185 69.8671 48.7406 69.6092 48.3224 69.4587C47.804 69.2267 47.282 69.1477 46.9447 69.1477C46.6867 69.1761 46.5964 69.2523 46.5971 69.5417C46.8304 71.4095 47.3668 75.9836 47.6464 79.341C47.7541 80.6341 47.8287 81.6653 47.891 82.5257C48.0298 84.444 48.1071 85.5131 48.3526 86.741C48.5771 87.8646 49.088 89.0419 50.0971 89.7836V93.8407ZM9.00556 73.1713C9.94799 71.7677 11.2916 69.7883 12.0507 68.7415C13.5689 68.6207 16.4861 68.9572 18.6755 71.148C20.2247 72.6982 20.663 73.8284 20.5882 74.7265C20.5121 75.6402 19.8999 76.4369 19.0258 77.3116C17.6358 78.7025 16.1281 79.979 15.552 80.4402L15.5313 80.4567L10.8869 85.4914L11.4989 85.6139C12.105 85.7352 13.786 85.9712 15.7708 85.9712H29.1378L29.1917 85.9532C29.5523 85.833 30.125 85.618 30.6816 85.3606C31.2244 85.1094 31.802 84.7956 32.1308 84.4666C32.3836 84.2136 32.7067 84.1312 33.1966 84.1312C33.4273 84.1312 33.6778 84.1491 33.9634 84.1696L34.0254 84.1741C34.3322 84.196 34.6716 84.2188 35.0355 84.2188C35.4383 84.2188 35.8504 84.1188 36.2289 84.0074C36.3833 83.962 36.528 83.9161 36.6673 83.872C36.8895 83.8016 37.0979 83.7355 37.3096 83.6826C37.6468 83.5982 37.9082 83.572 38.1091 83.6184C38.2839 83.6587 38.4429 83.7604 38.5751 84.025C38.611 84.0967 38.6149 84.1541 38.6034 84.2088C38.5903 84.2703 38.5524 84.3506 38.4692 84.4488C38.2982 84.6505 37.991 84.8639 37.5825 85.0718C36.8899 85.4243 36.0029 85.7135 35.2945 85.8973C35.1026 85.9471 34.9737 86.1291 34.9961 86.3262C35.0186 86.5233 35.1852 86.6719 35.3834 86.6793C35.7687 86.6939 36.2728 86.7322 36.7976 86.8087C37.507 86.9122 38.2218 87.081 38.7318 87.3362C40.2676 88.1046 41.7898 87.7095 42.8521 87.3552C43.0519 87.2886 43.3467 87.2655 43.6551 87.3047C43.9643 87.344 44.2407 87.4399 44.4181 87.569C44.5838 87.6897 44.6349 87.8111 44.6121 87.9528C44.5831 88.1335 44.4217 88.4365 43.9182 88.8564C42.2968 90.2084 40.6965 90.6897 39.0236 91.1927C38.5966 91.3211 38.1649 91.451 37.7269 91.5971C36.6984 91.9401 35.8686 92.1024 35.0084 92.0614C34.1462 92.0203 33.226 91.7737 32.0211 91.2569C29.9612 90.3736 28.332 90.6725 26.5437 91.0007C26.1013 91.0818 25.6492 91.1648 25.1785 91.2321C23.2183 91.5123 17.5921 92.2832 15.023 92.6338L15.0208 92.6341C12.9914 92.9242 9.84337 93.2022 7.00105 93.0952C5.57884 93.0416 4.24843 92.8921 3.17817 92.6062C2.09238 92.3163 1.34734 91.9049 1.00074 91.3847C0.793232 91.0732 0.688184 90.6234 0.701687 90.0269C0.715122 89.4335 0.845266 88.7274 1.07324 87.9357C1.52909 86.3527 2.3599 84.4814 3.34094 82.5835C5.30139 78.7909 7.83135 74.9496 9.0524 73.2041L9.00556 73.1713ZM31.1135 55.7727C30.6244 55.2495 30.1349 54.7816 29.6524 54.4155C33.1003 52.0132 33.9846 47.1821 33.9846 44.9634C34.5684 45.3139 36.0162 45.8747 37.137 45.3139C35.7359 45.6644 33.9846 44.6129 33.2841 42.8604C32.5836 41.108 35.0354 40.0565 35.736 41.4585C38.5381 42.8604 40.2895 37.6032 40.2895 35.8507C40.2895 34.8303 40.7843 34.6145 41.2337 34.6627L41.1838 34.7627C41.7817 35.0619 43.1775 36.2925 43.4441 38.6938C43.6222 40.297 43.9824 41.1537 44.4533 41.6498C44.6909 41.9002 44.9415 42.0423 45.1703 42.1434C45.2663 42.1858 45.3616 42.2223 45.445 42.2542L45.4829 42.2686C45.5789 42.3055 45.6576 42.337 45.7284 42.3724C45.8606 42.4386 45.9152 42.4888 45.9349 42.5122C45.9266 42.532 45.9062 42.569 45.8594 42.6265C45.8018 42.6974 45.7279 42.7719 45.6373 42.8625C45.5461 42.9538 45.4418 43.046 45.335 43.1403C45.2874 43.1824 45.2392 43.225 45.1916 43.2679C45.1204 43.3323 45.0466 43.4013 44.9896 43.465C44.9616 43.4964 44.9283 43.5368 44.9007 43.5826C44.8808 43.6155 44.8243 43.7132 44.8355 43.842C44.8432 43.9287 44.8789 43.9978 44.8926 44.0238C44.9115 44.0596 44.9338 44.0944 44.9527 44.1228C44.9709 44.1501 44.9912 44.1793 45.0101 44.2063L45.0142 44.2123L45.0368 44.2448L45.0569 44.2741L45.0748 44.3007C45.1078 44.3502 45.1347 44.3942 45.1544 44.4328C45.0779 44.4847 44.9702 44.5429 44.846 44.6049C44.8001 44.6279 44.7488 44.6529 44.6974 44.678C44.619 44.7162 44.5404 44.7544 44.4808 44.7856C44.4299 44.8123 44.3721 44.8442 44.3239 44.8782C44.3011 44.8944 44.2649 44.9217 44.2315 44.9597C44.2094 44.9847 44.1213 45.0876 44.135 45.2439C44.147 45.3803 44.2305 45.4638 44.2497 45.483C44.2814 45.5147 44.3147 45.5385 44.3375 45.5537C44.385 45.5854 44.4419 45.616 44.4936 45.6425C44.544 45.6683 44.6161 45.7032 44.6888 45.7384L44.7471 45.7666L44.8002 45.7925L44.8359 45.8101L44.8593 45.8217C44.9827 45.8834 45.088 45.9408 45.1612 45.9915L45.1544 46.0128L45.1452 46.0411L45.1343 46.0737L45.1231 46.1068C45.0949 46.1901 45.0589 46.2964 45.0242 46.4168C44.9322 46.7358 44.8431 47.1697 44.8431 47.7679C44.8431 48.0788 44.7842 48.2829 44.6875 48.4212C44.5949 48.5534 44.4371 48.6691 44.1451 48.7422C43.5304 48.896 42.4648 48.8271 40.7086 48.4756L40.4785 48.4296L40.3484 48.6249C40.1559 48.9842 39.9546 49.324 39.7492 49.6708C38.969 50.9881 38.129 52.4064 37.4786 55.3774L37.4673 55.4328C37.27 56.3993 37.0297 57.5761 37.4839 59.0331C37.5521 58.5557 37.6269 58.0953 37.7077 57.6512C38.351 58.4286 39.05 59.4449 39.4533 60.4307C39.7056 61.0472 39.8289 61.6201 39.7774 62.1005C39.7279 62.5619 39.5173 62.9524 39.0532 63.2427C38.8039 63.3986 38.5287 63.4257 38.1974 63.3253C37.853 63.2211 37.4599 62.981 37.021 62.6143C36.1431 61.8808 35.1779 60.7244 34.1663 59.4588C33.9908 59.2392 33.8139 59.0164 33.6362 58.7926C32.8005 57.7398 31.9456 56.6628 31.1135 55.7727ZM45.5122 43.6968C45.5099 43.6924 45.5108 43.6932 45.5132 43.6985L45.5122 43.6968ZM76.0676 58.2835C76.1961 58.8236 76.4148 59.2366 76.6148 59.4367C76.8363 59.6583 77.1655 59.8565 77.5811 60.0753C77.6934 60.1345 77.8124 60.1953 77.9354 60.2582L77.9364 60.2587C78.25 60.419 78.5896 60.5925 78.9117 60.7859C79.569 61.1806 80.2177 61.6937 80.6027 62.4657C81.1201 60.998 81.5946 59.17 81.6476 57.6134C81.6803 56.6536 81.5505 55.8469 81.2187 55.2915C80.9045 54.7655 80.3877 54.4272 79.5196 54.4272C78.347 54.4272 77.5496 54.6992 77.0169 55.0882C76.4865 55.4754 76.1878 56.001 76.0509 56.5685C75.9129 57.1408 75.9411 57.752 76.0676 58.2835ZM15.4581 85.2683C15.5486 84.384 15.637 82.8473 15.5171 81.5057L12.2656 85.0304C12.9971 85.134 14.1455 85.2517 15.4581 85.2683Z" fill="#222428"/>
<path d="M130.834 3.4522C130.999 3.35012 131.049 3.13404 130.947 2.96957C130.845 2.80511 130.629 2.75454 130.465 2.85662L120.307 9.16543C120.143 9.26751 120.092 9.48359 120.194 9.64806C120.296 9.81252 120.512 9.86309 120.677 9.76101L130.834 3.4522Z" fill="#222428"/>
<path d="M75.844 8.70858C76.0078 8.60565 76.0572 8.38931 75.9544 8.22537C75.8515 8.06144 75.6353 8.01199 75.4715 8.11493L45.3485 27.0414C45.1847 27.1443 45.1352 27.3606 45.2381 27.5246C45.341 27.6885 45.5572 27.738 45.721 27.635L75.844 8.70858Z" fill="#222428"/>
<path d="M130.838 11.1609C131.001 11.057 131.049 10.8403 130.945 10.677C130.841 10.5137 130.625 10.4656 130.462 10.5695L118.903 17.9298C118.74 18.0337 118.692 18.2503 118.795 18.4136C118.899 18.5769 119.116 18.6251 119.279 18.5212L130.838 11.1609Z" fill="#222428"/>
<path d="M57.2996 11.1486C57.456 11.0348 57.4906 10.8156 57.3768 10.659C57.2631 10.5025 57.044 10.4679 56.8876 10.5817L53.0346 13.3856C52.8782 13.4995 52.8436 13.7187 52.9574 13.8752C53.0711 14.0318 53.2902 14.0664 53.4466 13.9526L57.2996 11.1486Z" fill="#222428"/>
<path d="M117.534 11.8578C117.695 11.7504 117.738 11.5328 117.631 11.3717C117.524 11.2107 117.306 11.1672 117.145 11.2745L113.993 13.3775C113.832 13.4848 113.788 13.7025 113.896 13.8635C114.003 14.0246 114.22 14.0681 114.381 13.9607L117.534 11.8578Z" fill="#222428"/>
<path d="M49.582 16.4142C49.7429 16.3068 49.7864 16.0892 49.6791 15.9281C49.5718 15.7671 49.3543 15.7235 49.1934 15.8309L32.3806 27.0466C32.2196 27.1539 32.1761 27.3716 32.2834 27.5326C32.3907 27.6937 32.6082 27.7372 32.7691 27.6298L49.582 16.4142Z" fill="#222428"/>
<path d="M128.037 17.8196C128.199 17.7151 128.247 17.4983 128.142 17.3353C128.038 17.1724 127.821 17.125 127.659 17.2294L113.998 25.9917C113.835 26.0961 113.788 26.3129 113.892 26.4759C113.997 26.6388 114.213 26.6863 114.376 26.5818L128.037 17.8196Z" fill="#222428"/>
<path d="M120.681 63.7337C120.844 63.6293 120.891 63.4125 120.787 63.2495C120.682 63.0866 120.466 63.0391 120.303 63.1435L84.2254 86.2759C84.0626 86.3803 84.0151 86.5971 84.1195 86.7601C84.2239 86.923 84.4405 86.9705 84.6034 86.8661L120.681 63.7337Z" fill="#222428"/>
<path d="M98.9671 83.7099C99.129 83.604 99.1744 83.3868 99.0685 83.2247C98.9627 83.0627 98.7456 83.0173 98.5837 83.1232L80.3698 95.0399C80.2079 95.1458 80.1624 95.363 80.2683 95.525C80.3742 95.687 80.5912 95.7325 80.7532 95.6266L98.9671 83.7099Z" fill="#222428"/>
</svg>
